<svg width="81" height="79" viewBox="0 0 81 79" fill="none" xmlns="http://www.w3.org/2000/svg">
<path fill-rule="evenodd" clip-rule="evenodd" d="M77.2813 0.874997C78.1681 0.874997 79.0186 1.21412 79.6457 1.81775C80.2727 2.42138 80.625 3.24008 80.625 4.09375L80.625 42.7187C80.625 43.5724 80.2727 44.3911 79.6457 44.9947C79.0186 45.5984 78.1681 45.9375 77.2813 45.9375C76.3944 45.9375 75.544 45.5984 74.9169 44.9947C74.2898 44.3911 73.9375 43.5724 73.9375 42.7187L73.9375 11.8638L6.08614 77.1851C5.77525 77.4844 5.40617 77.7218 4.99998 77.8837C4.59378 78.0457 4.15842 78.1291 3.71876 78.1291C3.2791 78.1291 2.84374 78.0457 2.43755 77.8837C2.03135 77.7218 1.66227 77.4844 1.35139 77.1851C1.0405 76.8859 0.79389 76.5306 0.625638 76.1396C0.457387 75.7486 0.370788 75.3295 0.370788 74.9062C0.370788 74.483 0.457387 74.0639 0.625638 73.6729C0.793889 73.2819 1.0405 72.9266 1.35139 72.6274L69.2095 7.3125L37.1563 7.3125C36.2694 7.3125 35.4189 6.97339 34.7919 6.36975C34.1648 5.76612 33.8125 4.94742 33.8125 4.09375C33.8125 3.24008 34.1648 2.42138 34.7919 1.81775C35.4189 1.21412 36.2694 0.874998 37.1563 0.874998L77.2813 0.874997Z" fill="black"/>
<path fill-rule="evenodd" clip-rule="evenodd" d="M77.2813 0.874997C78.1681 0.874997 79.0186 1.21412 79.6457 1.81775C80.2727 2.42138 80.625 3.24008 80.625 4.09375L80.625 42.7187C80.625 43.5724 80.2727 44.3911 79.6457 44.9947C79.0186 45.5984 78.1681 45.9375 77.2813 45.9375C76.3944 45.9375 75.544 45.5984 74.9169 44.9947C74.2898 44.3911 73.9375 43.5724 73.9375 42.7187L73.9375 11.8638L6.08614 77.1851C5.77525 77.4844 5.40617 77.7218 4.99998 77.8837C4.59378 78.0457 4.15842 78.1291 3.71876 78.1291C3.2791 78.1291 2.84374 78.0457 2.43755 77.8837C2.03135 77.7218 1.66227 77.4844 1.35139 77.1851C1.0405 76.8859 0.79389 76.5306 0.625638 76.1396C0.457387 75.7486 0.370788 75.3295 0.370788 74.9062C0.370788 74.483 0.457387 74.0639 0.625638 73.6729C0.793889 73.2819 1.0405 72.9266 1.35139 72.6274L69.2095 7.3125L37.1563 7.3125C36.2694 7.3125 35.4189 6.97339 34.7919 6.36975C34.1648 5.76612 33.8125 4.94742 33.8125 4.09375C33.8125 3.24008 34.1648 2.42138 34.7919 1.81775C35.4189 1.21412 36.2694 0.874998 37.1563 0.874998L77.2813 0.874997Z" fill="white" fill-opacity="0.3"/>
</svg>
