<svg width="530" height="533" viewBox="0 0 530 533" fill="none" xmlns="http://www.w3.org/2000/svg">
<g opacity="0.94" filter="url(#filter0_f_37_113)">
<path d="M128.626 320.177C130.407 319.106 131.983 318.17 133.547 317.213C133.987 316.943 134.39 316.613 134.842 316.288V312.704C133.675 312.145 132.511 311.587 131.471 311.088C127.061 312.913 124.307 314.351 122.874 315.609C124.739 317.09 126.58 318.552 128.626 320.177ZM123.192 303.409C123.535 303.836 123.612 304.021 123.747 304.085C127.14 305.679 130.535 307.269 133.943 308.829C134.202 308.948 134.562 308.845 135.001 308.845V301.6C133.479 300.913 131.973 300.233 130.467 299.553C129.862 299.28 129.296 299.323 128.737 299.7C126.938 300.915 125.129 302.115 123.192 303.409ZM144.64 315.054C145.402 311.846 146.257 308.676 146.729 305.387C144.406 303.496 142.233 301.637 139.912 299.934C139.319 300.237 138.861 300.472 138.247 300.786C138.183 305.976 138.115 311.199 138.066 316.423C138.063 316.651 138.235 316.881 138.397 317.291C140.486 316.61 142.537 315.951 144.64 315.054ZM148.205 313.262C158.913 314.255 169.29 315.219 179.67 316.172C180.259 316.226 180.858 316.179 181.693 316.179C181.299 314.008 180.478 312.167 179.94 310.255C179.419 308.402 178.823 306.569 178.212 304.744C177.582 302.861 177.206 300.873 176.042 299.059C171.585 299.903 167.326 301.245 163.018 302.371C158.63 303.518 154.193 304.501 149.858 305.924C149.313 308.343 148.797 310.633 148.205 313.262ZM126.749 192.204C123.884 191.848 121.356 191.609 118.857 191.203C116.348 190.796 113.866 190.234 111.376 189.721C108.948 189.22 106.683 188.035 103.906 187.792C104.204 188.344 104.35 188.648 104.525 188.935C109.585 197.238 114.647 205.54 119.713 213.839C122.314 218.1 124.921 222.359 127.538 226.611C127.784 227.011 127.908 227.648 128.621 227.449C128.621 225.702 128.704 223.962 128.604 222.232C128.378 218.299 128.019 214.374 127.791 210.441C127.507 205.544 127.308 200.643 127.054 195.744C126.996 194.619 126.862 193.498 126.749 192.204ZM140.766 191.739C140.301 200.394 139.833 208.864 139.399 217.335C139.224 220.745 139.123 224.158 138.995 227.57C138.991 227.649 139.04 227.754 139.1 227.804C139.16 227.854 139.264 227.851 139.349 227.87C139.49 227.783 139.689 227.73 139.763 227.603C147.884 213.779 155.997 199.949 164.102 186.115C164.222 185.91 164.245 185.647 164.376 185.191C161.618 185.903 159.247 187.229 156.681 187.977C154.157 188.713 151.639 189.481 149.084 190.085C146.447 190.708 143.768 191.15 140.766 191.739ZM127.581 309.408C125.091 307.94 122.906 307.083 120.645 306.421C116.613 305.24 112.564 304.114 108.533 302.931C102.983 301.302 97.4448 299.634 91.896 298.003C91.2518 297.813 90.5697 297.752 89.8564 297.622C89.673 298.092 89.4956 298.398 89.4341 298.726C88.434 304.055 87.4482 309.387 86.4619 314.719C86.3186 315.493 86.1527 316.267 86.0748 317.05C86.0363 317.436 86.1742 317.84 86.2423 318.303C88.2253 318.044 90.0447 317.819 91.8603 317.567C98.9803 316.578 106.1 315.588 113.218 314.585C118.8 313.799 118.801 313.794 123.913 311.288C124.998 310.757 126.065 310.187 127.581 309.408ZM116.739 375.315C116.938 374.486 117.105 373.906 117.215 373.315C118.207 367.976 119.176 362.633 120.177 357.296C121.614 349.638 123.082 341.985 124.519 334.327C125.1 331.23 125.457 328.078 126.235 325.033C126.996 322.059 126.36 322.342 124.688 320.921C124.287 320.581 123.883 320.236 123.441 319.956C123.034 319.697 122.573 319.522 121.986 319.239C115.626 337.142 109.327 354.874 103.038 372.609C102.959 372.833 103.028 373.109 103.028 373.385C103.278 373.511 103.497 373.698 103.738 373.731C107.644 374.27 111.553 374.794 115.462 375.309C115.797 375.354 116.143 375.315 116.739 375.315ZM165.564 371.488C159.226 353.732 152.957 336.167 146.678 318.605C146.596 318.376 146.393 318.19 146.258 318C143.054 318.691 142.727 318.854 141.53 320.312C142.061 323.275 142.576 326.206 143.115 329.132C143.67 332.147 144.243 335.159 144.819 338.17C145.378 341.097 145.96 344.02 146.517 346.948C147.072 349.876 147.61 352.807 148.154 355.737C148.715 358.752 149.199 361.784 149.856 364.778C150.488 367.658 150.59 370.655 151.591 373.417C153.564 373.444 163.533 372.094 165.564 371.488ZM80.5117 328.572C82.7045 316.432 84.7243 304.913 86.8771 293.31C88.1144 293.302 88.6081 292.64 88.6564 291.5C88.7723 288.79 89.009 286.082 89.0617 283.371C89.0925 281.803 88.8217 280.231 88.7536 278.658C88.5746 274.534 88.0029 270.467 87.1451 266.432C86.0155 261.118 84.6546 255.867 82.8105 250.751C82.6133 250.203 82.3113 249.693 82.0971 249.247C81.8302 249.229 81.7094 249.182 81.6633 249.222C77.0843 253.167 72.4965 257.101 67.9411 261.073C64.0452 264.47 60.1862 267.911 56.3145 271.335C56.2552 271.388 56.23 271.487 56.2042 271.568C56.1789 271.648 56.174 271.735 56.1388 271.944C56.5891 272.477 57.074 273.092 57.6007 273.668C60.1423 276.45 62.6987 279.216 65.243 281.996C71.0428 288.331 76.8415 294.669 82.6304 301.015C82.9599 301.376 83.1982 301.821 83.5392 302.313C81.6468 303.955 79.868 305.508 78.0788 307.048C76.3517 308.536 74.5652 309.957 72.8952 311.505C71.1806 313.094 69.213 314.417 67.527 316.349C71.676 320.426 75.8706 324.236 80.5117 328.572ZM204.899 314.215C204.216 313.664 203.824 313.328 203.413 313.02C198.011 308.962 192.601 304.914 187.21 300.843C186.536 300.333 185.681 299.972 185.37 299.047C185.524 298.818 185.637 298.57 185.818 298.391C189.498 294.75 193.188 291.119 196.871 287.482C201.867 282.55 206.862 277.619 211.844 272.674C212.186 272.333 212.411 271.876 212.673 271.498C208.792 267.685 182.377 244.787 180.536 243.635C180.378 243.821 180.131 243.988 180.066 244.208C179.422 246.391 178.75 248.569 178.198 250.777C177.007 255.538 176.068 260.345 175.35 265.21C174.044 274.051 173.9 282.846 175.653 291.633C175.872 292.731 175.941 293.885 176.557 294.965C177.174 294.93 177.764 294.897 178.408 294.86C178.596 295.17 178.839 295.443 178.94 295.76C181.364 303.357 183.774 310.957 186.178 318.56C186.329 319.038 186.412 319.538 186.554 320.144C185.726 320.215 185.086 320.271 184.332 320.336C185.06 323.071 185.728 325.602 186.412 328.129C186.572 328.72 186.778 329.3 186.974 329.88C187.056 330.12 187.167 330.349 187.332 330.748C193.33 325.103 199.002 319.765 204.899 314.215ZM14.958 267.632C16.086 270.874 17.1052 273.854 18.1591 276.823C19.8 281.444 21.4712 286.055 23.117 290.675C24.8217 295.461 26.5065 300.255 28.2079 305.043C29.7335 309.336 31.2816 313.62 32.7984 317.916C34.4322 322.541 36.0319 327.179 37.6712 331.802C37.8931 332.427 38.2599 333.001 38.6054 333.69C39.0623 333.414 39.3824 333.276 39.6345 333.06C51.4774 322.886 63.3148 312.707 75.1468 302.521C75.3999 302.302 75.5817 302.002 75.9068 301.606C74.1841 299.569 72.3987 297.653 70.6199 295.731C68.7742 293.736 66.9322 291.736 65.0975 289.73C63.322 287.789 61.5734 285.822 59.7842 283.893C57.9357 281.901 56.0487 279.944 54.1865 277.965C52.383 276.049 50.5828 274.131 48.7936 272.202C46.9445 270.208 45.0916 268.219 43.275 266.196C41.5544 264.28 39.6532 262.519 38.1649 260.365C38.6108 260.464 38.9601 260.676 39.2814 260.924C42.41 263.331 45.531 265.746 48.6607 268.151C49.205 268.569 49.686 269.141 50.6394 269.023C51.0859 268.674 51.6554 268.269 52.1798 267.812C55.8175 264.644 59.4465 261.466 63.0776 258.29C68.426 253.613 73.7436 248.9 79.1464 244.286C80.3469 243.262 80.6154 242.322 80.0948 240.868C79.0904 238.066 78.232 235.211 77.3226 232.375C76.6284 230.212 75.948 228.044 75.2714 225.875C75.2572 225.829 75.3653 225.746 75.4483 225.64C75.6284 225.832 75.8453 225.992 75.9711 226.206C78.7268 230.889 81.4804 235.574 84.2147 240.27C84.7414 241.174 85.2818 242.089 85.6557 243.061C88.3978 250.183 90.6307 257.452 92.2222 264.93C94.2294 274.362 94.7687 283.846 93.7742 293.429C93.7231 293.919 93.8247 294.425 93.856 294.933C95.7858 295.578 97.5563 296.308 99.6146 296.275C110.467 277.799 121.264 259.357 131.966 241.001C130.387 237.939 100.771 189.059 99.4707 187.957C99.2489 188.065 98.9699 188.131 98.7903 188.301C70.8912 214.693 42.9998 241.092 14.958 267.632ZM171.121 296.356C170.943 295.399 170.793 294.546 170.627 293.695C169.067 285.728 168.621 277.705 169.499 269.627C170.057 264.486 170.734 259.365 171.923 254.314C173.41 247.995 175.033 241.729 177.442 235.68C179.193 231.285 180.803 226.835 182.495 222.417C182.657 221.991 182.955 221.618 183.191 221.221C182.657 226.492 181.727 231.651 181.358 236.806C181.713 237.181 181.933 237.455 182.193 237.681C194.095 248.059 206 258.433 217.908 268.806C217.971 268.861 218.062 268.891 218.146 268.914C218.229 268.938 218.318 268.938 218.617 268.975C219.148 268.686 219.841 268.332 220.511 267.937C221.267 267.492 222.004 267.014 222.744 266.542C223.409 266.118 224.061 265.672 224.73 265.252C225.473 264.785 226.22 264.324 226.98 263.886C227.598 263.531 228.085 262.854 229.262 262.912C226.075 266.12 223.135 269.113 220.156 272.068C217.23 274.971 214.26 277.83 211.318 280.718C208.314 283.668 205.289 286.598 202.332 289.594C199.386 292.58 196.233 295.367 193.352 298.611C193.897 299.091 194.32 299.516 194.795 299.873C206.433 308.628 218.076 317.377 229.726 326.117C230.116 326.41 230.587 326.595 231.171 326.912C233.357 321.934 235.053 316.966 236.946 312.077C238.846 307.173 240.711 302.257 242.59 297.346C244.501 292.354 246.476 287.386 248.301 282.363C250.09 277.441 252.211 272.636 253.767 267.599C253.322 267.135 252.976 266.744 252.599 266.386C245.089 259.265 237.579 252.143 230.061 245.03C219.927 235.445 209.784 225.872 199.648 216.29C189.513 206.708 179.383 197.119 169.242 187.544C168.89 187.212 168.434 186.99 167.923 186.647C167.378 187.524 166.901 188.252 166.463 189.003C164.873 191.729 163.307 194.469 161.712 197.192C156.66 205.817 151.591 214.431 146.548 223.061C143.851 227.677 141.217 232.33 138.516 236.944C136.081 241.104 133.577 245.224 131.135 249.381C125.498 258.983 119.881 268.598 114.253 278.206C110.84 284.032 107.415 289.849 104.018 295.684C103.689 296.249 103.101 296.801 103.624 297.82C108.338 299.184 113.219 300.589 118.094 302.014C119.028 302.287 119.789 302.029 120.561 301.504C122.812 299.977 125.085 298.483 127.36 296.991C128.011 296.565 128.697 296.19 129.364 295.794C130.819 296.429 132.175 297.043 133.547 297.618C135.891 298.599 135.248 298.623 137.734 297.585C138.616 297.217 139.501 296.856 140.481 296.452C143.072 298.527 145.595 300.547 148.01 302.481C150.816 302.075 168.859 297.318 171.121 296.356ZM108.617 43.7386C107.917 43.8701 107.654 43.8844 107.416 43.9693C100.011 46.6159 93.1212 50.2195 86.9062 55.0593C71.4448 67.0997 62.2055 82.8616 59.2416 102.153C57.4014 114.132 58.6699 125.938 62.8618 137.354C67.0838 148.851 73.8354 158.647 82.989 166.798C89.3434 172.456 96.5036 176.811 104.38 179.995C109.031 181.876 113.85 183.264 118.795 184.04C124.783 184.98 130.812 185.295 136.899 184.814C147.583 183.969 157.536 180.879 166.841 175.639C175.759 170.617 183.24 163.948 189.362 155.763C195.378 147.72 199.528 138.796 201.814 129.021C204.161 118.982 204.351 108.898 202.388 98.7628C200.994 91.5605 198.56 84.7386 195.094 78.2878C190.944 70.5619 185.517 63.8381 178.937 58.0374C171.669 51.6288 163.365 47.0232 154.273 43.7397C152.061 42.9405 150.065 43.0117 147.971 44.1162C145.492 45.4242 142.911 46.5424 140.367 47.7259C140.006 47.8936 139.611 48.2302 139.126 47.7051C139.881 45.3195 141.772 43.5297 143 41.2828C140.398 40.3405 137.824 40.4956 135.337 40.0949C134.032 39.8844 132.946 40.2424 131.994 41.194C129.454 43.7347 126.876 46.2371 124.305 48.7477C124.021 49.0256 123.808 49.4937 123.139 49.2268C123.824 46.0891 125.627 43.3856 126.833 40.4534C126.519 40.3307 126.358 40.209 126.205 40.2166C122.517 40.4129 118.901 41.1381 115.266 41.7208C113.783 41.9581 112.675 42.7184 111.788 43.88C110.246 45.9 108.703 47.9189 107.148 49.929C106.966 50.1647 106.71 50.3434 106.488 50.5484C106.4 50.4941 106.312 50.4399 106.225 50.3856C106.979 48.2889 107.734 46.1922 108.617 43.7386ZM133.743 332.34C133.833 332.67 133.952 332.994 134.009 333.329C134.844 338.256 135.69 343.18 136.493 348.113C137.872 356.587 139.21 365.069 140.586 373.545C141.808 381.069 143.072 388.586 144.29 396.11C145.888 405.976 147.447 415.849 149.046 425.715C150.028 431.77 151.069 437.814 152.055 443.869C152.97 449.489 153.836 455.118 154.741 460.74C156.119 469.306 157.502 477.871 158.912 486.432C159.078 487.439 159.077 488.53 159.841 489.418C160.289 489.418 160.73 489.482 161.148 489.409C180.075 486.084 199.001 482.748 217.923 479.402C218.165 479.36 218.378 479.166 218.678 479.002C218.631 478.664 218.611 478.323 218.534 477.995C217.482 473.563 216.426 469.132 215.366 464.702C213.917 458.649 212.467 452.595 211.011 446.544C210.232 443.306 209.448 440.069 208.649 436.837C207.724 433.096 206.766 429.363 205.849 425.62C204.117 418.557 202.421 411.484 200.678 404.423C199.124 398.127 197.533 391.839 195.946 385.551C194.809 381.049 193.645 376.554 192.507 372.053C191.412 367.72 190.371 363.375 189.241 359.051C187.623 352.86 185.956 346.682 184.292 340.503C182.674 334.496 181.033 328.495 179.408 322.489C179.134 321.477 178.836 320.48 178.208 319.554C177.498 319.469 176.81 319.368 176.118 319.31C173.581 319.097 171.041 318.927 168.507 318.687C162.915 318.159 157.327 317.592 151.736 317.062C151.261 317.017 150.771 317.131 150.16 317.183C150.545 319.906 151.775 322.164 152.537 324.564C153.279 326.901 154.147 329.198 154.974 331.508C155.83 333.9 156.709 336.285 157.568 338.676C158.428 341.069 159.281 343.464 160.126 345.861C160.971 348.258 161.796 350.663 162.643 353.059C163.461 355.372 164.29 357.681 165.124 359.989C165.987 362.379 166.944 364.738 167.708 367.158C168.464 369.555 169.625 371.831 170.126 374.497C163.433 375.824 156.764 376.205 150.201 377.294C149.787 377.362 149.353 377.302 148.767 377.302C147.855 373.46 147.187 369.681 146.545 365.893C145.914 362.177 145.17 358.481 144.478 354.775C143.769 350.985 143.065 347.194 142.356 343.404C141.663 339.701 140.972 335.998 140.268 332.297C139.55 328.526 138.816 324.757 138.07 320.887C137.009 321.107 136.099 321.295 135.26 321.469C134.917 321.012 134.671 320.684 134.366 320.278C133.201 320.973 132.164 321.624 131.095 322.219C130.247 322.692 129.883 323.394 129.749 324.333C129.401 326.763 129.045 329.194 128.591 331.606C126.937 340.386 125.225 349.154 123.567 357.933C122.64 362.842 121.784 367.765 120.879 372.679C120.562 374.403 120.216 376.124 119.835 377.835C119.729 378.314 119.45 378.754 119.222 379.279C118.332 379.182 117.551 379.116 116.777 379.01C114.864 378.748 112.955 378.452 111.041 378.2C107.646 377.753 104.245 377.349 100.854 376.879C99.9304 376.751 98.8979 376.847 98.0879 375.931C99.8233 371.114 101.585 366.266 103.315 361.407C105.05 356.537 106.747 351.653 108.477 346.781C110.206 341.908 111.981 337.052 113.688 332.171C115.384 327.322 117.308 322.547 118.818 317.385C115.064 317.499 111.661 318.341 108.214 318.808C104.736 319.279 101.243 319.661 97.787 320.259C94.347 320.855 90.824 320.943 87.5015 321.787C84.0253 332.649 59.5728 474.007 58.9473 482.057C59.6563 482.711 60.58 482.623 61.4328 482.713C65.2743 483.119 69.1223 483.462 72.9638 483.871C81.5183 484.782 90.0678 485.74 98.6239 486.638C104.734 487.279 110.851 487.86 116.967 488.45C117.457 488.498 117.961 488.41 118.632 488.376C123.551 436.274 128.329 384.299 133.743 332.34ZM225.219 483.325C219.743 484.716 214.505 485.274 209.356 486.296C204.227 487.313 199.018 487.935 193.9 489.16C193.786 490.554 194.366 491.531 194.726 492.405C195.572 493.079 196.393 492.92 197.163 492.907C202.176 492.826 207.178 493.034 212.148 493.66C217.286 494.306 222.429 494.971 227.521 495.898C230.521 496.445 233.535 497.176 236.225 498.793C237.678 499.666 238.931 500.724 239.916 502.106C240.592 503.055 241.007 504.106 241.209 505.241C241.488 506.809 241.115 508.191 239.998 509.36C238.43 511 236.439 511.903 234.32 512.531C230.863 513.557 227.332 514.216 223.733 514.523C215.833 515.196 207.947 515.119 200.07 514.194C193.878 513.468 187.722 512.54 181.726 510.771C178.773 509.899 175.883 508.847 173.327 507.08C172.54 506.535 171.784 505.905 171.148 505.194C168.954 502.739 169.255 499.099 171.766 496.995C172.861 496.078 174.097 495.447 175.489 495.109C176.675 494.821 177.853 494.502 179.032 494.196C179.088 493.837 179.191 493.576 179.152 493.338C179.071 492.836 178.915 492.346 178.75 491.694C176.079 492.159 173.505 492.604 170.933 493.058C168.34 493.515 165.749 493.986 163.156 494.443C160.583 494.897 158.018 495.409 155.28 495.592C154.464 493.068 154.418 490.513 153.959 488.039C153.48 485.456 153.063 482.862 152.62 480.272C152.191 477.768 151.739 475.268 151.341 472.759C150.943 470.249 150.627 467.725 150.224 465.216C149.819 462.707 149.34 460.21 148.914 457.705C148.473 455.112 148.042 452.518 147.635 449.92C147.241 447.408 146.912 444.886 146.503 442.376C146.095 439.867 145.603 437.37 145.187 434.862C144.772 432.353 144.415 429.836 144.016 427.324C143.605 424.73 143.189 422.136 142.749 419.546C142.324 417.042 141.838 414.547 141.431 412.04C141.023 409.531 140.699 407.008 140.306 404.497C139.912 401.989 139.485 399.485 139.059 396.982C138.619 394.39 138.139 391.805 137.721 389.21C137.316 386.7 137.002 384.176 136.587 381.669C136.176 379.19 135.69 376.725 135.235 374.242C134.432 374.342 134.572 374.884 134.538 375.248C133.719 383.889 132.921 392.531 132.111 401.173C131.325 409.553 130.522 417.931 129.741 426.311C129.195 432.158 128.682 438.008 128.138 443.855C127.708 448.481 127.245 453.104 126.81 457.729C126.046 465.844 125.3 473.961 124.531 482.075C124.184 485.739 123.805 489.4 123.426 493.061C123.392 493.394 123.258 493.716 123.153 494.109C120.793 494.544 118.58 493.802 116.335 493.633C114.06 493.463 111.786 493.25 109.515 493.024C107.244 492.798 104.977 492.532 102.708 492.288C100.455 492.045 98.201 491.808 95.7688 491.549C95.6271 492.443 95.5101 493.178 95.4063 493.83C96.1993 494.658 97.1373 494.577 97.9611 494.801C99.574 495.241 101.158 495.702 102.513 496.772C105.324 498.995 105.759 502.328 103.497 505.104C102.075 506.851 100.129 507.886 98.1236 508.796C93.6149 510.842 88.83 511.936 83.9868 512.821C77.2408 514.052 70.4398 514.778 63.585 514.963C57.7808 515.12 51.9942 514.774 46.2498 513.975C44.0899 513.675 41.9476 513.084 39.8707 512.403C38.389 511.917 36.9397 511.194 35.6343 510.338C32.6485 508.378 32.8127 505.468 33.9819 503.17C34.7441 501.672 35.8134 500.353 37.2731 499.476C38.5455 498.712 39.8536 497.907 41.2551 497.478C43.8494 496.682 46.4953 495.97 49.1703 495.541C54.1953 494.734 59.2438 494.031 64.3061 493.518C68.1426 493.13 72.0154 493.1 75.8722 492.921C76.4862 492.892 77.1018 492.925 77.7164 492.91C79.8559 492.857 80.0223 492.676 80.2475 490.087C75.6926 489.252 71.0379 489.187 66.4567 488.544C61.9595 487.914 57.3975 487.779 52.7652 486.939C53.0552 482.211 54.2194 477.796 54.8713 473.308C55.5265 468.798 56.3222 464.308 57.0592 459.809C57.7957 455.312 58.5167 450.812 59.279 446.319C60.0407 441.828 60.8469 437.345 61.63 432.857C62.4126 428.369 63.1913 423.879 63.9711 419.389C64.7509 414.898 65.5319 410.406 66.31 405.914C67.0877 401.421 67.8576 396.927 68.6391 392.435C69.4205 387.945 70.2042 383.455 71.0011 378.967C71.7979 374.481 72.6008 369.997 73.4235 365.516C74.2428 361.054 75.0908 356.598 75.9974 351.755C75.3544 352.176 74.9677 352.334 74.7102 352.611C70.5831 357.049 65.3792 359.694 59.7084 361.501C56.7237 362.453 53.812 361.95 51.0353 360.553C49.3422 359.701 48.6684 358.271 48.709 356.465C48.7425 354.949 49.2319 353.547 49.9288 352.205C51.8618 348.483 54.6225 345.458 57.8033 342.775C61.3796 339.759 65.3556 337.365 69.493 335.217C69.7934 335.061 70.0829 334.885 70.4321 334.687C70.3437 334.381 70.3481 334.078 70.1987 333.928C66.6807 330.383 63.1462 326.855 59.5239 323.234C57.2921 324.628 55.5781 326.507 53.6318 328.089C51.6581 329.695 49.7585 331.391 47.8298 333.051C45.9676 334.653 44.1125 336.265 42.2486 337.865C40.3254 339.518 38.3956 341.163 36.2972 342.958C35.9682 342.381 35.6651 341.993 35.508 341.553C33.034 334.621 30.5765 327.683 28.12 320.744C25.9854 314.713 23.865 308.677 21.7243 302.648C19.3492 295.959 16.9476 289.279 14.5785 282.587C12.6789 277.222 10.8106 271.846 9 266.679C9.17354 265.566 9.87263 265.126 10.4366 264.593C20.4387 255.127 30.4469 245.669 40.4467 236.202C53.1277 224.197 65.801 212.185 78.4808 200.179C83.5134 195.414 88.5614 190.664 93.5831 185.886C94.2014 185.299 95.001 184.827 95.2525 183.79C93.4469 182.748 91.6099 181.735 89.8185 180.647C78.2628 173.626 69.0532 164.295 62.2319 152.623C56.8983 143.497 53.5797 133.701 52.1287 123.223C51.4511 118.331 51.1276 113.436 51.4379 108.537C51.7866 103.027 52.5011 97.5371 54.0585 92.2084C54.8202 89.603 55.6209 87.0014 56.5584 84.4552C60.6876 73.2392 67.1843 63.5613 75.7536 55.2484C83.2828 47.9435 91.9833 42.4301 101.692 38.5173C104.942 37.2077 108.262 36.0034 111.726 35.367C113.407 35.0578 114.57 34.2433 115.587 32.9211C118.98 28.5106 122.995 24.7206 127.539 21.5138C133.681 17.1789 140.351 13.9524 147.624 11.9297C151.715 10.7917 155.848 10.118 160.074 10.0061C161.559 9.96667 163.053 10.1251 164.537 10.2528C165.039 10.2961 165.525 10.5225 165.961 10.6491C166.168 11.4703 165.656 11.7186 165.158 11.8716C162.979 12.5409 160.801 13.2173 158.599 13.8071C145.583 17.2924 133.984 23.4608 123.702 32.1339C123.464 32.3345 123.086 32.5143 123.284 33.159C123.699 33.1798 124.183 33.2423 124.664 33.2226C126.856 33.1321 129.047 32.9534 131.239 32.9391C132.465 32.9309 133.432 32.5845 134.302 31.7299C137.079 28.9995 140.311 26.8924 143.729 25.0664C148.33 22.609 153.157 20.7814 158.374 20.185C159.848 20.0167 161.352 20.0458 162.84 20.0798C163.308 20.0907 163.769 20.4142 164.466 20.6849C163.974 21.2041 163.697 21.6651 163.29 21.8936C162.144 22.5367 160.968 23.1369 159.762 23.6598C155.573 25.4764 151.437 27.3994 147.505 29.7253C145.92 30.6626 144.393 31.697 142.853 32.7078C142.654 32.8377 142.539 33.0938 142.271 33.438C142.656 33.5948 142.931 33.757 143.227 33.8206C145.63 34.3337 148.057 34.7487 150.432 35.361C151.696 35.686 152.826 35.6147 154.02 35.1801C157.138 34.0453 160.372 33.9462 163.64 34.1945C164.806 34.2833 165.876 34.6231 166.854 35.2552C167.454 35.6438 167.527 36.4124 166.92 36.7686C166.173 37.2066 165.343 37.501 164.557 37.8754C163.801 38.2355 162.83 38.1698 162.087 39.1121C173.112 43.9447 182.655 50.6191 190.566 59.5158C198.557 68.5014 204.314 78.7356 207.633 90.3106C210.921 101.778 211.692 113.394 209.795 125.191C207.884 137.075 203.526 147.971 196.658 157.842C189.857 167.617 181.278 175.531 170.759 181.634C185.829 195.894 200.659 209.942 215.507 223.971C230.357 238.003 245.172 252.071 260 266.062C259.881 266.602 259.85 266.953 259.728 267.271C251.134 289.787 242.534 312.301 233.923 334.81C233.87 334.949 233.667 335.031 233.42 335.233C232.598 335.109 231.965 334.474 231.289 333.967C226.024 330.019 220.774 326.049 215.515 322.093C214.823 321.572 214.102 321.089 213.443 320.623C211.782 321.778 201.383 332.103 198.919 335.011C199.199 335.966 200.162 336.114 200.874 336.544C203.351 338.038 205.921 339.393 208.305 341.021C212.17 343.661 215.559 346.835 218.163 350.771C219.185 352.315 220.048 353.94 220.478 355.752C221.16 358.626 220.065 360.802 217.274 361.807C214.751 362.716 212.123 362.956 209.516 362.149C203.544 360.303 198.216 357.377 193.972 352.685C193.808 352.504 193.568 352.39 193.333 352.223C193.237 353.867 194.521 359.155 196.612 366.666C197.953 371.479 199.08 376.35 200.294 381.198C201.508 386.044 202.709 390.893 203.92 395.74C205.13 400.585 206.353 405.427 207.558 410.273C208.763 415.12 209.955 419.971 211.148 424.821C212.342 429.673 213.537 434.525 214.716 439.38C215.896 444.233 217.069 449.088 218.223 453.946C219.377 458.803 220.436 463.685 221.663 468.523C222.888 473.357 223.969 478.219 225.219 483.325Z" fill="black" fill-opacity="0.25"/>
<path d="M148.187 113.34C147.527 112.591 146.897 111.877 146.337 111.241C146.331 110.447 146.877 110.252 147.303 109.99C152.298 106.912 157.285 103.82 162.304 100.781C166.499 98.2422 170.732 95.7667 174.953 93.272C175.243 93.1004 175.577 93.0039 175.939 92.8521C176.832 93.5548 177.189 94.5426 177.877 95.4855C174.712 97.6792 171.451 99.3676 168.331 101.281C165.201 103.199 162.022 105.038 158.642 107.044C159.133 107.384 159.416 107.685 159.762 107.804C165.99 109.961 166.273 118.342 163.299 121.947C161.075 124.644 158.173 125.507 154.824 124.895C151.625 124.31 149.405 122.464 148.516 119.296C148.167 118.053 148.118 116.717 148.025 115.417C147.976 114.732 148.127 114.033 148.187 113.34Z" fill="black" fill-opacity="0.25"/>
<path d="M101.541 107.597C95.6673 104.397 90.1437 101.388 84.574 98.3531C84.7657 97.1187 85.4104 96.3337 86.0903 95.3991C88.8126 96.5442 91.2569 98.0653 93.7842 99.4204C96.4098 100.828 99.0244 102.257 101.638 103.687C104.175 105.074 106.721 106.447 109.235 107.874C111.721 109.286 114.361 110.458 116.594 112.29C115.222 114.252 115.222 114.252 113.634 114.935C113.56 115.954 113.574 117.013 113.393 118.038C112.81 121.328 110.991 123.703 107.748 124.662C104.304 125.681 101.035 125.133 98.5911 122.346C94.8891 118.125 95.9897 111.863 99.6615 108.92C100.129 108.545 100.642 108.227 101.541 107.597Z" fill="black" fill-opacity="0.25"/>
<path d="M103.947 157.774C103.35 156.892 103.469 156.027 103.495 155.268C103.629 155.096 103.676 155.02 103.739 154.959C103.798 154.899 103.864 154.827 103.941 154.806C106.308 154.155 108.664 153.465 111.045 152.872C126.954 148.909 142.868 144.967 158.783 141.029C158.932 140.992 159.115 141.089 159.457 141.161C159.728 142.476 158.916 143.6 158.725 144.891C158.076 145.113 157.519 145.357 156.936 145.494C139.771 149.535 122.604 153.568 105.435 157.591C104.94 157.708 104.419 157.719 103.947 157.774Z" fill="black" fill-opacity="0.25"/>
</g>
<g opacity="0.94" filter="url(#filter1_f_37_113)">
<path d="M389.626 320.177C391.407 319.106 392.983 318.17 394.547 317.213C394.987 316.943 395.39 316.613 395.842 316.288V312.704C394.675 312.145 393.511 311.587 392.471 311.088C388.061 312.913 385.307 314.351 383.874 315.609C385.739 317.09 387.58 318.552 389.626 320.177ZM384.192 303.409C384.535 303.836 384.612 304.021 384.747 304.085C388.14 305.679 391.535 307.269 394.943 308.829C395.202 308.948 395.562 308.845 396.001 308.845V301.6C394.479 300.913 392.973 300.233 391.467 299.553C390.862 299.28 390.296 299.323 389.737 299.7C387.938 300.915 386.129 302.115 384.192 303.409ZM405.64 315.054C406.402 311.846 407.257 308.676 407.729 305.387C405.406 303.496 403.233 301.637 400.912 299.934C400.319 300.237 399.861 300.472 399.247 300.786C399.183 305.976 399.115 311.199 399.066 316.423C399.063 316.651 399.235 316.881 399.397 317.291C401.486 316.61 403.537 315.951 405.64 315.054ZM409.205 313.262C419.913 314.255 430.29 315.219 440.67 316.172C441.259 316.226 441.858 316.179 442.693 316.179C442.299 314.008 441.478 312.167 440.94 310.255C440.419 308.402 439.823 306.569 439.212 304.744C438.582 302.861 438.206 300.873 437.042 299.059C432.585 299.903 428.326 301.245 424.018 302.371C419.63 303.518 415.193 304.501 410.858 305.924C410.313 308.343 409.797 310.633 409.205 313.262ZM387.749 192.204C384.884 191.848 382.356 191.609 379.857 191.203C377.348 190.796 374.866 190.234 372.376 189.721C369.948 189.22 367.683 188.035 364.906 187.792C365.204 188.344 365.35 188.648 365.525 188.935C370.585 197.238 375.647 205.54 380.713 213.839C383.314 218.1 385.921 222.359 388.538 226.611C388.784 227.011 388.908 227.648 389.621 227.449C389.621 225.702 389.704 223.962 389.604 222.232C389.378 218.299 389.019 214.374 388.791 210.441C388.507 205.544 388.308 200.643 388.054 195.744C387.996 194.619 387.862 193.498 387.749 192.204ZM401.766 191.739C401.301 200.394 400.833 208.864 400.399 217.335C400.224 220.745 400.123 224.158 399.995 227.57C399.991 227.649 400.04 227.754 400.1 227.804C400.16 227.854 400.264 227.851 400.349 227.87C400.49 227.783 400.689 227.73 400.763 227.603C408.884 213.779 416.997 199.949 425.102 186.115C425.222 185.91 425.245 185.647 425.376 185.191C422.618 185.903 420.247 187.229 417.681 187.977C415.157 188.713 412.639 189.481 410.084 190.085C407.447 190.708 404.768 191.15 401.766 191.739ZM388.581 309.408C386.091 307.94 383.906 307.083 381.645 306.421C377.613 305.24 373.564 304.114 369.533 302.931C363.983 301.302 358.445 299.634 352.896 298.003C352.252 297.813 351.57 297.752 350.856 297.622C350.673 298.092 350.496 298.398 350.434 298.726C349.434 304.055 348.448 309.387 347.462 314.719C347.319 315.493 347.153 316.267 347.075 317.05C347.036 317.436 347.174 317.84 347.242 318.303C349.225 318.044 351.045 317.819 352.86 317.567C359.98 316.578 367.1 315.588 374.218 314.585C379.8 313.799 379.801 313.794 384.913 311.288C385.998 310.757 387.065 310.187 388.581 309.408ZM377.739 375.315C377.938 374.486 378.105 373.906 378.215 373.315C379.207 367.976 380.176 362.633 381.177 357.296C382.614 349.638 384.082 341.985 385.519 334.327C386.1 331.23 386.457 328.078 387.235 325.033C387.996 322.059 387.36 322.342 385.688 320.921C385.287 320.581 384.883 320.236 384.441 319.956C384.034 319.697 383.573 319.522 382.986 319.239C376.626 337.142 370.327 354.874 364.038 372.609C363.959 372.833 364.028 373.109 364.028 373.385C364.278 373.511 364.497 373.698 364.738 373.731C368.644 374.27 372.553 374.794 376.462 375.309C376.797 375.354 377.143 375.315 377.739 375.315ZM426.564 371.488C420.226 353.732 413.957 336.167 407.678 318.605C407.596 318.376 407.393 318.19 407.258 318C404.054 318.691 403.727 318.854 402.53 320.312C403.061 323.275 403.576 326.206 404.115 329.132C404.67 332.147 405.243 335.159 405.819 338.17C406.378 341.097 406.96 344.02 407.517 346.948C408.072 349.876 408.61 352.807 409.154 355.737C409.715 358.752 410.199 361.784 410.856 364.778C411.488 367.658 411.59 370.655 412.591 373.417C414.564 373.444 424.533 372.094 426.564 371.488ZM341.512 328.572C343.704 316.432 345.724 304.913 347.877 293.31C349.114 293.302 349.608 292.64 349.656 291.5C349.772 288.79 350.009 286.082 350.062 283.371C350.092 281.803 349.822 280.231 349.754 278.658C349.575 274.534 349.003 270.467 348.145 266.432C347.015 261.118 345.655 255.867 343.81 250.751C343.613 250.203 343.311 249.693 343.097 249.247C342.83 249.229 342.709 249.182 342.663 249.222C338.084 253.167 333.496 257.101 328.941 261.073C325.045 264.47 321.186 267.911 317.315 271.335C317.255 271.388 317.23 271.487 317.204 271.568C317.179 271.648 317.174 271.735 317.139 271.944C317.589 272.477 318.074 273.092 318.601 273.668C321.142 276.45 323.699 279.216 326.243 281.996C332.043 288.331 337.842 294.669 343.63 301.015C343.96 301.376 344.198 301.821 344.539 302.313C342.647 303.955 340.868 305.508 339.079 307.048C337.352 308.536 335.565 309.957 333.895 311.505C332.181 313.094 330.213 314.417 328.527 316.349C332.676 320.426 336.871 324.236 341.512 328.572ZM465.899 314.215C465.216 313.664 464.824 313.328 464.413 313.02C459.011 308.962 453.601 304.914 448.21 300.843C447.536 300.333 446.681 299.972 446.37 299.047C446.524 298.818 446.637 298.57 446.818 298.391C450.498 294.75 454.188 291.119 457.871 287.482C462.867 282.55 467.862 277.619 472.844 272.674C473.186 272.333 473.411 271.876 473.673 271.498C469.792 267.685 443.377 244.787 441.536 243.635C441.378 243.821 441.131 243.988 441.066 244.208C440.422 246.391 439.75 248.569 439.198 250.777C438.007 255.538 437.068 260.345 436.35 265.21C435.044 274.051 434.9 282.846 436.653 291.633C436.872 292.731 436.941 293.885 437.557 294.965C438.174 294.93 438.764 294.897 439.408 294.86C439.596 295.17 439.839 295.443 439.94 295.76C442.364 303.357 444.774 310.957 447.178 318.56C447.329 319.038 447.412 319.538 447.554 320.144C446.726 320.215 446.086 320.271 445.332 320.336C446.06 323.071 446.728 325.602 447.412 328.129C447.572 328.72 447.778 329.3 447.974 329.88C448.056 330.12 448.167 330.349 448.332 330.748C454.33 325.103 460.002 319.765 465.899 314.215ZM275.958 267.632C277.086 270.874 278.105 273.854 279.159 276.823C280.8 281.444 282.471 286.055 284.117 290.675C285.822 295.461 287.507 300.255 289.208 305.043C290.733 309.336 292.282 313.62 293.798 317.916C295.432 322.541 297.032 327.179 298.671 331.802C298.893 332.427 299.26 333.001 299.605 333.69C300.062 333.414 300.382 333.276 300.635 333.06C312.477 322.886 324.315 312.707 336.147 302.521C336.4 302.302 336.582 302.002 336.907 301.606C335.184 299.569 333.399 297.653 331.62 295.731C329.774 293.736 327.932 291.736 326.097 289.73C324.322 287.789 322.573 285.822 320.784 283.893C318.936 281.901 317.049 279.944 315.186 277.965C313.383 276.049 311.583 274.131 309.794 272.202C307.945 270.208 306.092 268.219 304.275 266.196C302.554 264.28 300.653 262.519 299.165 260.365C299.611 260.464 299.96 260.676 300.281 260.924C303.41 263.331 306.531 265.746 309.661 268.151C310.205 268.569 310.686 269.141 311.639 269.023C312.086 268.674 312.655 268.269 313.18 267.812C316.818 264.644 320.446 261.466 324.078 258.29C329.426 253.613 334.744 248.9 340.146 244.286C341.347 243.262 341.615 242.322 341.095 240.868C340.09 238.066 339.232 235.211 338.323 232.375C337.628 230.212 336.948 228.044 336.271 225.875C336.257 225.829 336.365 225.746 336.448 225.64C336.628 225.832 336.845 225.992 336.971 226.206C339.727 230.889 342.48 235.574 345.215 240.27C345.741 241.174 346.282 242.089 346.656 243.061C349.398 250.183 351.631 257.452 353.222 264.93C355.229 274.362 355.769 283.846 354.774 293.429C354.723 293.919 354.825 294.425 354.856 294.933C356.786 295.578 358.556 296.308 360.615 296.275C371.467 277.799 382.264 259.357 392.966 241.001C391.387 237.939 361.771 189.059 360.471 187.957C360.249 188.065 359.97 188.131 359.79 188.301C331.891 214.693 304 241.092 275.958 267.632ZM432.121 296.356C431.943 295.399 431.793 294.546 431.627 293.695C430.067 285.728 429.621 277.705 430.499 269.627C431.057 264.486 431.734 259.365 432.923 254.314C434.41 247.995 436.033 241.729 438.442 235.68C440.193 231.285 441.803 226.835 443.495 222.417C443.657 221.991 443.955 221.618 444.191 221.221C443.657 226.492 442.727 231.651 442.358 236.806C442.713 237.181 442.933 237.455 443.193 237.681C455.095 248.059 467 258.433 478.908 268.806C478.971 268.861 479.062 268.891 479.146 268.914C479.229 268.938 479.318 268.938 479.617 268.975C480.148 268.686 480.841 268.332 481.511 267.937C482.267 267.492 483.004 267.014 483.744 266.542C484.409 266.118 485.061 265.672 485.73 265.252C486.473 264.785 487.22 264.324 487.98 263.886C488.598 263.531 489.085 262.854 490.262 262.912C487.075 266.12 484.135 269.113 481.156 272.068C478.23 274.971 475.26 277.83 472.318 280.718C469.314 283.668 466.289 286.598 463.332 289.594C460.386 292.58 457.233 295.367 454.352 298.611C454.897 299.091 455.32 299.516 455.795 299.873C467.433 308.628 479.076 317.377 490.726 326.117C491.116 326.41 491.587 326.595 492.171 326.912C494.357 321.934 496.053 316.966 497.946 312.077C499.846 307.173 501.711 302.257 503.59 297.346C505.501 292.354 507.476 287.386 509.301 282.363C511.09 277.441 513.211 272.636 514.767 267.599C514.322 267.135 513.976 266.744 513.599 266.386C506.089 259.265 498.579 252.143 491.061 245.03C480.927 235.445 470.784 225.872 460.648 216.29C450.513 206.708 440.383 197.119 430.242 187.544C429.89 187.212 429.434 186.99 428.923 186.647C428.378 187.524 427.901 188.252 427.463 189.003C425.873 191.729 424.307 194.469 422.712 197.192C417.66 205.817 412.591 214.431 407.548 223.061C404.851 227.677 402.217 232.33 399.516 236.944C397.081 241.104 394.577 245.224 392.135 249.381C386.498 258.983 380.881 268.598 375.253 278.206C371.84 284.032 368.415 289.849 365.018 295.684C364.689 296.249 364.101 296.801 364.624 297.82C369.338 299.184 374.219 300.589 379.094 302.014C380.028 302.287 380.789 302.029 381.561 301.504C383.812 299.977 386.085 298.483 388.36 296.991C389.011 296.565 389.697 296.19 390.364 295.794C391.819 296.429 393.175 297.043 394.547 297.618C396.891 298.599 396.248 298.623 398.734 297.585C399.616 297.217 400.501 296.856 401.481 296.452C404.072 298.527 406.595 300.547 409.01 302.481C411.816 302.075 429.859 297.318 432.121 296.356ZM369.617 43.7386C368.917 43.8701 368.654 43.8844 368.416 43.9693C361.011 46.6159 354.121 50.2195 347.906 55.0593C332.445 67.0997 323.206 82.8616 320.242 102.153C318.401 114.132 319.67 125.938 323.862 137.354C328.084 148.851 334.835 158.647 343.989 166.798C350.343 172.456 357.504 176.811 365.38 179.995C370.031 181.876 374.85 183.264 379.795 184.04C385.783 184.98 391.812 185.295 397.899 184.814C408.583 183.969 418.536 180.879 427.841 175.639C436.759 170.617 444.24 163.948 450.362 155.763C456.378 147.72 460.528 138.796 462.814 129.021C465.161 118.982 465.351 108.898 463.388 98.7628C461.994 91.5605 459.56 84.7386 456.094 78.2878C451.944 70.5619 446.517 63.8381 439.937 58.0374C432.669 51.6288 424.365 47.0232 415.273 43.7397C413.061 42.9405 411.065 43.0117 408.971 44.1162C406.492 45.4242 403.911 46.5424 401.367 47.7259C401.006 47.8936 400.611 48.2302 400.126 47.7051C400.881 45.3195 402.772 43.5297 404 41.2828C401.398 40.3405 398.824 40.4956 396.337 40.0949C395.032 39.8844 393.946 40.2424 392.994 41.194C390.454 43.7347 387.876 46.2371 385.305 48.7477C385.021 49.0256 384.808 49.4937 384.139 49.2268C384.824 46.0891 386.627 43.3856 387.833 40.4534C387.519 40.3307 387.358 40.209 387.205 40.2166C383.517 40.4129 379.901 41.1381 376.266 41.7208C374.783 41.9581 373.675 42.7184 372.788 43.88C371.246 45.9 369.703 47.9189 368.148 49.929C367.966 50.1647 367.71 50.3434 367.488 50.5484C367.4 50.4941 367.312 50.4399 367.225 50.3856C367.979 48.2889 368.734 46.1922 369.617 43.7386ZM394.743 332.34C394.833 332.67 394.952 332.994 395.009 333.329C395.844 338.256 396.69 343.18 397.493 348.113C398.872 356.587 400.21 365.069 401.586 373.545C402.808 381.069 404.072 388.586 405.29 396.11C406.888 405.976 408.447 415.849 410.046 425.715C411.028 431.77 412.069 437.814 413.055 443.869C413.97 449.489 414.836 455.118 415.741 460.74C417.119 469.306 418.502 477.871 419.912 486.432C420.078 487.439 420.077 488.53 420.841 489.418C421.289 489.418 421.73 489.482 422.148 489.409C441.075 486.084 460.001 482.748 478.923 479.402C479.165 479.36 479.378 479.166 479.678 479.002C479.631 478.664 479.611 478.323 479.534 477.995C478.482 473.563 477.426 469.132 476.366 464.702C474.917 458.649 473.467 452.595 472.011 446.544C471.232 443.306 470.448 440.069 469.649 436.837C468.724 433.096 467.766 429.363 466.849 425.62C465.117 418.557 463.421 411.484 461.678 404.423C460.124 398.127 458.533 391.839 456.946 385.551C455.809 381.049 454.645 376.554 453.507 372.053C452.412 367.72 451.371 363.375 450.241 359.051C448.623 352.86 446.956 346.682 445.292 340.503C443.674 334.496 442.033 328.495 440.408 322.489C440.134 321.477 439.836 320.48 439.208 319.554C438.498 319.469 437.81 319.368 437.118 319.31C434.581 319.097 432.041 318.927 429.507 318.687C423.915 318.159 418.327 317.592 412.736 317.062C412.261 317.017 411.771 317.131 411.16 317.183C411.545 319.906 412.775 322.164 413.537 324.564C414.279 326.901 415.147 329.198 415.974 331.508C416.83 333.9 417.709 336.285 418.568 338.676C419.428 341.069 420.281 343.464 421.126 345.861C421.971 348.258 422.796 350.663 423.643 353.059C424.461 355.372 425.29 357.681 426.124 359.989C426.987 362.379 427.944 364.738 428.708 367.158C429.464 369.555 430.625 371.831 431.126 374.497C424.433 375.824 417.764 376.205 411.201 377.294C410.787 377.362 410.353 377.302 409.767 377.302C408.855 373.46 408.187 369.681 407.545 365.893C406.914 362.177 406.17 358.481 405.478 354.775C404.769 350.985 404.065 347.194 403.356 343.404C402.663 339.701 401.972 335.998 401.268 332.297C400.55 328.526 399.816 324.757 399.07 320.887C398.009 321.107 397.099 321.295 396.26 321.469C395.917 321.012 395.671 320.684 395.366 320.278C394.201 320.973 393.164 321.624 392.095 322.219C391.247 322.692 390.883 323.394 390.749 324.333C390.401 326.763 390.045 329.194 389.591 331.606C387.937 340.386 386.225 349.154 384.567 357.933C383.64 362.842 382.784 367.765 381.879 372.679C381.562 374.403 381.216 376.124 380.835 377.835C380.729 378.314 380.45 378.754 380.222 379.279C379.332 379.182 378.551 379.116 377.777 379.01C375.864 378.748 373.955 378.452 372.041 378.2C368.646 377.753 365.245 377.349 361.854 376.879C360.93 376.751 359.898 376.847 359.088 375.931C360.823 371.114 362.585 366.266 364.315 361.407C366.05 356.537 367.747 351.653 369.477 346.781C371.206 341.908 372.981 337.052 374.688 332.171C376.384 327.322 378.308 322.547 379.818 317.385C376.064 317.499 372.661 318.341 369.214 318.808C365.736 319.279 362.243 319.661 358.787 320.259C355.347 320.855 351.824 320.943 348.502 321.787C345.025 332.649 320.573 474.007 319.947 482.057C320.656 482.711 321.58 482.623 322.433 482.713C326.274 483.119 330.122 483.462 333.964 483.871C342.518 484.782 351.068 485.74 359.624 486.638C365.734 487.279 371.851 487.86 377.967 488.45C378.457 488.498 378.961 488.41 379.632 488.376C384.551 436.274 389.329 384.299 394.743 332.34ZM486.219 483.325C480.743 484.716 475.505 485.274 470.356 486.296C465.227 487.313 460.018 487.935 454.9 489.16C454.786 490.554 455.366 491.531 455.726 492.405C456.572 493.079 457.393 492.92 458.163 492.907C463.176 492.826 468.178 493.034 473.148 493.66C478.286 494.306 483.429 494.971 488.521 495.898C491.521 496.445 494.535 497.176 497.225 498.793C498.678 499.666 499.931 500.724 500.916 502.106C501.592 503.055 502.007 504.106 502.209 505.241C502.488 506.809 502.115 508.191 500.998 509.36C499.43 511 497.439 511.903 495.32 512.531C491.863 513.557 488.332 514.216 484.733 514.523C476.833 515.196 468.947 515.119 461.07 514.194C454.878 513.468 448.722 512.54 442.726 510.771C439.773 509.899 436.883 508.847 434.327 507.08C433.54 506.535 432.784 505.905 432.148 505.194C429.954 502.739 430.255 499.099 432.766 496.995C433.861 496.078 435.097 495.447 436.489 495.109C437.675 494.821 438.853 494.502 440.032 494.196C440.088 493.837 440.191 493.576 440.152 493.338C440.071 492.836 439.915 492.346 439.75 491.694C437.079 492.159 434.505 492.604 431.933 493.058C429.34 493.515 426.749 493.986 424.156 494.443C421.583 494.897 419.018 495.409 416.28 495.592C415.464 493.068 415.418 490.513 414.959 488.039C414.48 485.456 414.063 482.862 413.62 480.272C413.191 477.768 412.739 475.268 412.341 472.759C411.943 470.249 411.627 467.725 411.224 465.216C410.819 462.707 410.34 460.21 409.914 457.705C409.473 455.112 409.042 452.518 408.635 449.92C408.241 447.408 407.912 444.886 407.503 442.376C407.095 439.867 406.603 437.37 406.187 434.862C405.772 432.353 405.415 429.836 405.016 427.324C404.605 424.73 404.189 422.136 403.749 419.546C403.324 417.042 402.838 414.547 402.431 412.04C402.023 409.531 401.699 407.008 401.306 404.497C400.912 401.989 400.485 399.485 400.059 396.982C399.619 394.39 399.139 391.805 398.721 389.21C398.316 386.7 398.002 384.176 397.587 381.669C397.176 379.19 396.69 376.725 396.235 374.242C395.432 374.342 395.572 374.884 395.538 375.248C394.719 383.889 393.921 392.531 393.111 401.173C392.325 409.553 391.522 417.931 390.741 426.311C390.195 432.158 389.682 438.008 389.138 443.855C388.708 448.481 388.245 453.104 387.81 457.729C387.046 465.844 386.3 473.961 385.531 482.075C385.184 485.739 384.805 489.4 384.426 493.061C384.392 493.394 384.258 493.716 384.153 494.109C381.793 494.544 379.58 493.802 377.335 493.633C375.06 493.463 372.786 493.25 370.515 493.024C368.244 492.798 365.977 492.532 363.708 492.288C361.455 492.045 359.201 491.808 356.769 491.549C356.627 492.443 356.51 493.178 356.406 493.83C357.199 494.658 358.137 494.577 358.961 494.801C360.574 495.241 362.158 495.702 363.513 496.772C366.324 498.995 366.759 502.328 364.497 505.104C363.075 506.851 361.129 507.886 359.124 508.796C354.615 510.842 349.83 511.936 344.987 512.821C338.241 514.052 331.44 514.778 324.585 514.963C318.781 515.12 312.994 514.774 307.25 513.975C305.09 513.675 302.948 513.084 300.871 512.403C299.389 511.917 297.94 511.194 296.634 510.338C293.648 508.378 293.813 505.468 294.982 503.17C295.744 501.672 296.813 500.353 298.273 499.476C299.546 498.712 300.854 497.907 302.255 497.478C304.849 496.682 307.495 495.97 310.17 495.541C315.195 494.734 320.244 494.031 325.306 493.518C329.143 493.13 333.015 493.1 336.872 492.921C337.486 492.892 338.102 492.925 338.716 492.91C340.856 492.857 341.022 492.676 341.247 490.087C336.693 489.252 332.038 489.187 327.457 488.544C322.959 487.914 318.398 487.779 313.765 486.939C314.055 482.211 315.219 477.796 315.871 473.308C316.526 468.798 317.322 464.308 318.059 459.809C318.796 455.312 319.517 450.812 320.279 446.319C321.041 441.828 321.847 437.345 322.63 432.857C323.413 428.369 324.191 423.879 324.971 419.389C325.751 414.898 326.532 410.406 327.31 405.914C328.088 401.421 328.858 396.927 329.639 392.435C330.421 387.945 331.204 383.455 332.001 378.967C332.798 374.481 333.601 369.997 334.423 365.516C335.243 361.054 336.091 356.598 336.997 351.755C336.354 352.176 335.968 352.334 335.71 352.611C331.583 357.049 326.379 359.694 320.708 361.501C317.724 362.453 314.812 361.95 312.035 360.553C310.342 359.701 309.668 358.271 309.709 356.465C309.743 354.949 310.232 353.547 310.929 352.205C312.862 348.483 315.623 345.458 318.803 342.775C322.38 339.759 326.356 337.365 330.493 335.217C330.793 335.061 331.083 334.885 331.432 334.687C331.344 334.381 331.348 334.078 331.199 333.928C327.681 330.383 324.146 326.855 320.524 323.234C318.292 324.628 316.578 326.507 314.632 328.089C312.658 329.695 310.759 331.391 308.83 333.051C306.968 334.653 305.112 336.265 303.249 337.865C301.325 339.518 299.396 341.163 297.297 342.958C296.968 342.381 296.665 341.993 296.508 341.553C294.034 334.621 291.576 327.683 289.12 320.744C286.985 314.713 284.865 308.677 282.724 302.648C280.349 295.959 277.948 289.279 275.579 282.587C273.679 277.222 271.811 271.846 270 266.679C270.174 265.566 270.873 265.126 271.437 264.593C281.439 255.127 291.447 245.669 301.447 236.202C314.128 224.197 326.801 212.185 339.481 200.179C344.513 195.414 349.561 190.664 354.583 185.886C355.201 185.299 356.001 184.827 356.253 183.79C354.447 182.748 352.61 181.735 350.818 180.647C339.263 173.626 330.053 164.295 323.232 152.623C317.898 143.497 314.58 133.701 313.129 123.223C312.451 118.331 312.128 113.436 312.438 108.537C312.787 103.027 313.501 97.5371 315.059 92.2084C315.82 89.603 316.621 87.0014 317.558 84.4552C321.688 73.2392 328.184 63.5613 336.754 55.2484C344.283 47.9435 352.983 42.4301 362.692 38.5173C365.942 37.2077 369.262 36.0034 372.726 35.367C374.407 35.0578 375.57 34.2433 376.587 32.9211C379.98 28.5106 383.995 24.7206 388.539 21.5138C394.681 17.1789 401.351 13.9524 408.624 11.9297C412.715 10.7917 416.848 10.118 421.074 10.0061C422.559 9.96667 424.053 10.1251 425.537 10.2528C426.039 10.2961 426.525 10.5225 426.961 10.6491C427.168 11.4703 426.656 11.7186 426.158 11.8716C423.979 12.5409 421.801 13.2173 419.599 13.8071C406.583 17.2924 394.984 23.4608 384.702 32.1339C384.464 32.3345 384.086 32.5143 384.284 33.159C384.699 33.1798 385.183 33.2423 385.664 33.2226C387.856 33.1321 390.047 32.9534 392.239 32.9391C393.465 32.9309 394.432 32.5845 395.302 31.7299C398.079 28.9995 401.311 26.8924 404.729 25.0664C409.33 22.609 414.157 20.7814 419.374 20.185C420.848 20.0167 422.352 20.0458 423.84 20.0798C424.308 20.0907 424.769 20.4142 425.466 20.6849C424.974 21.2041 424.697 21.6651 424.29 21.8936C423.144 22.5367 421.968 23.1369 420.762 23.6598C416.573 25.4764 412.437 27.3994 408.505 29.7253C406.92 30.6626 405.393 31.697 403.853 32.7078C403.654 32.8377 403.539 33.0938 403.271 33.438C403.656 33.5948 403.931 33.757 404.227 33.8206C406.63 34.3337 409.057 34.7487 411.432 35.361C412.696 35.686 413.826 35.6147 415.02 35.1801C418.138 34.0453 421.372 33.9462 424.64 34.1945C425.806 34.2833 426.876 34.6231 427.854 35.2552C428.454 35.6438 428.527 36.4124 427.92 36.7686C427.173 37.2066 426.343 37.501 425.557 37.8754C424.801 38.2355 423.83 38.1698 423.087 39.1121C434.112 43.9447 443.655 50.6191 451.566 59.5158C459.557 68.5014 465.314 78.7356 468.633 90.3106C471.921 101.778 472.692 113.394 470.795 125.191C468.884 137.075 464.526 147.971 457.658 157.842C450.857 167.617 442.278 175.531 431.759 181.634C446.829 195.894 461.659 209.942 476.507 223.971C491.357 238.003 506.172 252.071 521 266.062C520.881 266.602 520.85 266.953 520.728 267.271C512.134 289.787 503.534 312.301 494.923 334.81C494.87 334.949 494.667 335.031 494.42 335.233C493.598 335.109 492.965 334.474 492.289 333.967C487.024 330.019 481.774 326.049 476.515 322.093C475.823 321.572 475.102 321.089 474.443 320.623C472.782 321.778 462.383 332.103 459.919 335.011C460.199 335.966 461.162 336.114 461.874 336.544C464.351 338.038 466.921 339.393 469.305 341.021C473.17 343.661 476.559 346.835 479.163 350.771C480.185 352.315 481.048 353.94 481.478 355.752C482.16 358.626 481.065 360.802 478.274 361.807C475.751 362.716 473.123 362.956 470.516 362.149C464.544 360.303 459.216 357.377 454.972 352.685C454.808 352.504 454.568 352.39 454.333 352.223C454.237 353.867 455.521 359.155 457.612 366.666C458.953 371.479 460.08 376.35 461.294 381.198C462.508 386.044 463.709 390.893 464.92 395.74C466.13 400.585 467.353 405.427 468.558 410.273C469.763 415.12 470.955 419.971 472.148 424.821C473.342 429.673 474.537 434.525 475.716 439.38C476.896 444.233 478.069 449.088 479.223 453.946C480.377 458.803 481.436 463.685 482.663 468.523C483.888 473.357 484.969 478.219 486.219 483.325Z" fill="black" fill-opacity="0.25"/>
<path d="M409.187 113.34C408.527 112.591 407.897 111.877 407.337 111.241C407.331 110.447 407.877 110.252 408.303 109.99C413.298 106.912 418.285 103.82 423.304 100.781C427.499 98.2422 431.732 95.7667 435.953 93.272C436.243 93.1004 436.577 93.0039 436.939 92.8521C437.832 93.5548 438.189 94.5426 438.877 95.4855C435.712 97.6792 432.451 99.3676 429.331 101.281C426.201 103.199 423.022 105.038 419.642 107.044C420.133 107.384 420.416 107.685 420.762 107.804C426.99 109.961 427.273 118.342 424.299 121.947C422.075 124.644 419.173 125.507 415.824 124.895C412.625 124.31 410.405 122.464 409.516 119.296C409.167 118.053 409.118 116.717 409.025 115.417C408.976 114.732 409.127 114.033 409.187 113.34Z" fill="black" fill-opacity="0.25"/>
<path d="M362.541 107.597C356.667 104.397 351.144 101.388 345.574 98.3531C345.766 97.1187 346.41 96.3337 347.09 95.3991C349.813 96.5442 352.257 98.0653 354.784 99.4204C357.41 100.828 360.024 102.257 362.638 103.687C365.175 105.074 367.721 106.447 370.235 107.874C372.721 109.286 375.361 110.458 377.594 112.29C376.222 114.252 376.222 114.252 374.634 114.935C374.56 115.954 374.574 117.013 374.393 118.038C373.81 121.328 371.991 123.703 368.748 124.662C365.304 125.681 362.035 125.133 359.591 122.346C355.889 118.125 356.99 111.863 360.661 108.92C361.129 108.545 361.642 108.227 362.541 107.597Z" fill="black" fill-opacity="0.25"/>
<path d="M364.947 157.774C364.35 156.892 364.469 156.027 364.495 155.268C364.629 155.096 364.676 155.02 364.739 154.959C364.798 154.899 364.864 154.827 364.941 154.806C367.308 154.155 369.664 153.465 372.045 152.872C387.954 148.909 403.868 144.967 419.783 141.029C419.932 140.992 420.115 141.089 420.457 141.161C420.728 142.476 419.916 143.6 419.725 144.891C419.076 145.113 418.519 145.357 417.936 145.494C400.771 149.535 383.604 153.568 366.435 157.591C365.94 157.708 365.419 157.719 364.947 157.774Z" fill="black" fill-opacity="0.25"/>
</g>
<g filter="url(#filter2_d_37_113)">
<path d="M251.743 332.34C246.329 384.3 241.551 436.274 236.632 488.376C235.961 488.41 235.457 488.497 234.967 488.45C228.851 487.86 222.734 487.279 216.624 486.638C208.068 485.74 199.518 484.782 190.964 483.871C187.123 483.462 183.274 483.119 179.433 482.714C178.58 482.624 177.656 482.711 176.947 482.057C177.573 474.007 202.026 332.65 205.501 321.787C208.824 320.943 212.347 320.854 215.787 320.259C219.243 319.662 222.736 319.278 226.213 318.808C229.661 318.341 233.064 317.499 236.817 317.385C235.308 322.548 233.384 327.322 231.688 332.171C229.981 337.052 228.206 341.908 226.477 346.781C224.747 351.653 223.051 356.537 221.315 361.407C219.584 366.266 217.823 371.114 216.088 375.931C216.898 376.847 217.93 376.751 218.854 376.879C222.245 377.35 225.646 377.753 229.041 378.2C230.956 378.452 232.863 378.748 234.777 379.01C235.552 379.116 236.331 379.182 237.222 379.279C237.45 378.754 237.729 378.314 237.835 377.835C238.216 376.124 238.562 374.404 238.879 372.678C239.784 367.765 240.64 362.842 241.567 357.933C243.225 349.155 244.937 340.386 246.591 331.606C247.045 329.195 247.401 326.763 247.749 324.334C247.883 323.394 248.247 322.692 249.095 322.219C250.163 321.624 251.201 320.973 252.366 320.278C252.671 320.685 252.916 321.012 253.26 321.469C254.099 321.295 255.009 321.107 256.07 320.887C256.816 324.757 257.55 328.525 258.268 332.297C258.972 335.997 259.663 339.701 260.356 343.404C261.065 347.194 261.769 350.985 262.478 354.775C263.17 358.481 263.914 362.177 264.545 365.893C265.188 369.682 265.854 373.46 266.767 377.302C267.353 377.302 267.787 377.362 268.201 377.293C274.764 376.205 281.433 375.824 288.126 374.497C287.625 371.83 286.464 369.556 285.708 367.158C284.944 364.738 283.987 362.378 283.124 359.989C282.29 357.682 281.461 355.372 280.643 353.059C279.796 350.663 278.971 348.258 278.126 345.861C277.281 343.463 276.428 341.069 275.568 338.676C274.709 336.285 273.83 333.9 272.974 331.507C272.147 329.198 271.28 326.901 270.537 324.564C269.775 322.165 268.545 319.907 268.16 317.183C268.771 317.131 269.261 317.017 269.735 317.062C275.327 317.592 280.915 318.159 286.507 318.688C289.041 318.927 291.581 319.097 294.118 319.31C294.81 319.368 295.498 319.47 296.208 319.554C296.836 320.481 297.134 321.477 297.408 322.49C299.033 328.495 300.674 334.496 302.292 340.503C303.955 346.682 305.623 352.861 307.241 359.052C308.371 363.374 309.412 367.721 310.507 372.053C311.645 376.554 312.809 381.049 313.945 385.551C315.533 391.839 317.124 398.126 318.678 404.423C320.421 411.484 322.117 418.557 323.849 425.62C324.766 429.363 325.724 433.096 326.649 436.837C327.448 440.07 328.232 443.306 329.011 446.544C330.467 452.595 331.917 458.649 333.366 464.702C334.426 469.132 335.482 473.563 336.534 477.995C336.611 478.322 336.631 478.665 336.678 479.003C336.378 479.166 336.164 479.36 335.923 479.402C317.001 482.748 298.075 486.084 279.148 489.409C278.73 489.483 278.289 489.418 277.841 489.418C277.077 488.53 277.078 487.439 276.912 486.431C275.503 477.871 274.119 469.306 272.741 460.74C271.836 455.118 270.969 449.49 270.055 443.869C269.069 437.815 268.028 431.77 267.046 425.715C265.447 415.849 263.888 405.977 262.29 396.11C261.072 388.586 259.807 381.069 258.586 373.545C257.21 365.069 255.872 356.588 254.493 348.112C253.69 343.181 252.843 338.256 252.009 333.329C251.952 332.994 251.833 332.67 251.743 332.34Z" fill="white"/>
<path d="M221.947 157.774C222.419 157.719 222.94 157.708 223.436 157.591C240.604 153.568 257.771 149.536 274.936 145.494C275.519 145.357 276.077 145.113 276.725 144.891C276.916 143.6 277.728 142.476 277.457 141.161C277.115 141.089 276.932 140.992 276.783 141.029C260.868 144.967 244.954 148.909 229.045 152.872C226.664 153.465 224.308 154.155 221.941 154.806C221.864 154.827 221.798 154.899 221.739 154.959C221.677 155.02 221.629 155.096 221.495 155.268C221.47 156.027 221.35 156.892 221.947 157.774ZM219.541 107.598C218.642 108.227 218.129 108.545 217.662 108.92C213.99 111.863 212.889 118.125 216.591 122.347C219.035 125.133 222.304 125.682 225.748 124.663C228.991 123.703 230.81 121.329 231.393 118.038C231.574 117.013 231.56 115.954 231.634 114.935C233.222 114.251 233.222 114.251 234.594 112.29C232.361 110.458 229.721 109.286 227.235 107.874C224.721 106.447 222.175 105.074 219.639 103.686C217.024 102.257 214.41 100.828 211.784 99.4201C209.257 98.0656 206.812 96.5444 204.09 95.3993C203.411 96.3334 202.766 97.1189 202.574 98.3534C208.144 101.387 213.667 104.397 219.541 107.598ZM266.187 113.34C266.127 114.033 265.976 114.731 266.025 115.417C266.118 116.717 266.168 118.053 266.517 119.295C267.406 122.464 269.624 124.31 272.824 124.895C276.173 125.507 279.075 124.644 281.299 121.947C284.273 118.342 283.99 109.961 277.762 107.804C277.416 107.685 277.133 107.384 276.642 107.044C280.022 105.038 283.201 103.199 286.331 101.281C289.451 99.3675 292.712 97.6791 295.877 95.4854C295.189 94.5425 294.831 93.5547 293.939 92.852C293.578 93.0038 293.243 93.1003 292.953 93.2719C288.732 95.7666 284.499 98.2421 280.305 100.781C275.285 103.82 270.298 106.912 265.302 109.99C264.877 110.252 264.331 110.446 264.337 111.241C264.897 111.877 265.526 112.591 266.187 113.34ZM226.616 43.7386C225.734 46.1922 224.979 48.2889 224.225 50.3857C224.313 50.4399 224.4 50.4942 224.488 50.5485C224.71 50.3435 224.966 50.1648 225.148 49.9291C226.703 47.9189 228.246 45.9 229.788 43.8801C230.675 42.7185 231.784 41.9582 233.265 41.7208C236.901 41.1381 240.516 40.4129 244.205 40.2167C244.358 40.209 244.519 40.3307 244.834 40.4535C243.628 43.3856 241.824 46.0892 241.139 49.2268C241.809 49.4933 242.021 49.0257 242.305 48.7478C244.875 46.2372 247.454 43.7348 249.994 41.194C250.945 40.2424 252.032 39.8845 253.336 40.095C255.824 40.4957 258.398 40.3406 261.001 41.2829C259.772 43.5298 257.881 45.3195 257.126 47.7051C257.612 48.2303 258.007 47.8937 258.367 47.726C260.912 46.5425 263.492 45.4242 265.972 44.1163C268.065 43.0118 270.061 42.9405 272.273 43.7397C281.364 47.0232 289.67 51.6289 296.937 58.0375C303.516 63.8382 308.945 70.562 313.094 78.2873C316.559 84.7386 318.994 91.5605 320.388 98.7623C322.35 108.898 322.161 118.982 319.813 129.022C317.528 138.796 313.378 147.72 307.362 155.763C301.24 163.948 293.759 170.617 284.841 175.639C275.536 180.879 265.582 183.969 254.899 184.814C248.812 185.295 242.783 184.98 236.795 184.04C231.851 183.264 227.031 181.875 222.38 179.995C214.504 176.811 207.343 172.456 200.989 166.798C191.836 158.647 185.084 148.851 180.862 137.354C176.67 125.938 175.402 114.132 177.242 102.153C180.205 82.8617 189.444 67.0998 204.906 55.0593C211.121 50.2196 218.01 46.6154 225.416 43.9694C225.654 43.8844 225.917 43.8702 226.616 43.7386Z" fill="white"/>
<path d="M289.121 296.356C286.859 297.318 268.816 302.076 266.01 302.48C263.595 300.547 261.072 298.527 258.481 296.453C257.5 296.857 256.616 297.217 255.734 297.585C253.248 298.623 253.891 298.599 251.547 297.618C250.174 297.043 248.819 296.43 247.364 295.794C246.697 296.191 246.011 296.565 245.36 296.991C243.086 298.483 240.812 299.977 238.562 301.504C237.789 302.029 237.028 302.287 236.094 302.014C231.219 300.589 226.338 299.184 221.624 297.82C221.101 296.801 221.689 296.249 222.018 295.684C225.414 289.849 228.84 284.032 232.253 278.206C237.881 268.598 243.498 258.983 249.136 249.381C251.577 245.224 254.081 241.104 256.516 236.944C259.217 232.33 261.851 227.677 264.548 223.061C269.591 214.431 274.66 205.817 279.712 197.193C281.307 194.469 282.873 191.729 284.463 189.002C284.901 188.252 285.378 187.525 285.924 186.646C286.435 186.99 286.89 187.212 287.241 187.544C297.383 197.12 307.513 206.708 317.648 216.289C327.784 225.872 337.927 235.446 348.061 245.03C355.579 252.142 363.089 259.265 370.599 266.386C370.976 266.744 371.322 267.135 371.767 267.599C370.21 272.636 368.09 277.441 366.301 282.364C364.475 287.386 362.501 292.354 360.591 297.346C358.711 302.257 356.846 307.174 354.947 312.077C353.053 316.965 351.357 321.934 349.171 326.912C348.587 326.595 348.116 326.41 347.726 326.117C336.076 317.377 324.433 308.628 312.794 299.873C312.32 299.516 311.897 299.091 311.352 298.611C314.233 295.367 317.386 292.58 320.332 289.594C323.289 286.598 326.313 283.668 329.318 280.718C332.26 277.83 335.23 274.971 338.156 272.068C341.135 269.113 344.075 266.12 347.262 262.913C346.085 262.854 345.598 263.531 344.98 263.887C344.22 264.325 343.473 264.786 342.73 265.252C342.061 265.671 341.409 266.118 340.744 266.542C340.004 267.014 339.267 267.492 338.511 267.937C337.841 268.332 337.148 268.686 336.616 268.975C336.319 268.939 336.229 268.938 336.146 268.914C336.062 268.891 335.971 268.861 335.908 268.806C324 258.433 312.095 248.059 300.193 237.681C299.933 237.454 299.713 237.181 299.358 236.806C299.727 231.651 300.657 226.492 301.191 221.221C300.955 221.618 300.657 221.991 300.495 222.417C298.803 226.835 297.193 231.286 295.442 235.68C293.034 241.729 291.41 247.995 289.923 254.315C288.734 259.365 288.057 264.486 287.498 269.628C286.621 277.705 287.067 285.728 288.627 293.695C288.793 294.546 288.943 295.4 289.121 296.356Z" fill="white"/>
<path d="M132.958 267.632C161 241.092 188.892 214.693 216.79 188.301C216.97 188.131 217.249 188.066 217.471 187.957C218.77 189.059 248.387 237.939 249.966 241.001C239.264 259.357 228.467 277.799 217.614 296.274C215.556 296.308 213.786 295.578 211.856 294.933C211.825 294.426 211.723 293.92 211.774 293.429C212.769 283.846 212.23 274.363 210.222 264.93C208.631 257.452 206.398 250.184 203.656 243.061C203.282 242.089 202.742 241.175 202.215 240.27C199.48 235.574 196.727 230.889 193.971 226.206C193.845 225.993 193.629 225.833 193.448 225.641C193.366 225.746 193.258 225.829 193.271 225.874C193.948 228.044 194.628 230.212 195.322 232.375C196.232 235.212 197.091 238.066 198.095 240.869C198.616 242.322 198.347 243.262 197.147 244.287C191.743 248.9 186.426 253.613 181.078 258.29C177.446 261.466 173.818 264.644 170.18 267.812C169.656 268.269 169.086 268.674 168.639 269.024C167.686 269.141 167.205 268.57 166.661 268.151C163.531 265.746 160.41 263.33 157.282 260.924C156.96 260.676 156.611 260.464 156.165 260.365C157.653 262.519 159.554 264.28 161.275 266.196C163.091 268.219 164.945 270.209 166.794 272.202C168.583 274.13 170.383 276.049 172.186 277.965C174.049 279.944 175.936 281.901 177.784 283.894C179.573 285.823 181.322 287.789 183.098 289.73C184.932 291.736 186.774 293.736 188.62 295.731C190.399 297.654 192.184 299.569 193.907 301.606C193.582 302.002 193.4 302.303 193.147 302.521C181.315 312.707 169.477 322.886 157.635 333.06C157.382 333.277 157.062 333.414 156.606 333.691C156.26 333.001 155.893 332.428 155.672 331.803C154.032 327.179 152.432 322.541 150.799 317.916C149.282 313.621 147.733 309.336 146.208 305.043C144.506 300.255 142.822 295.462 141.117 290.675C139.472 286.054 137.8 281.444 136.159 276.822C135.105 273.855 134.086 270.875 132.958 267.632Z" fill="white"/>
<path d="M283.564 371.488C281.533 372.094 271.564 373.444 269.591 373.417C268.591 370.655 268.489 367.658 267.856 364.778C267.2 361.784 266.715 358.752 266.154 355.737C265.61 352.807 265.073 349.876 264.516 346.949C263.96 344.02 263.378 341.097 262.819 338.17C262.243 335.159 261.671 332.147 261.115 329.132C260.577 326.206 260.061 323.275 259.53 320.312C260.727 318.854 261.054 318.691 264.258 318C264.393 318.19 264.597 318.376 264.678 318.605C270.957 336.167 277.226 353.733 283.564 371.488Z" fill="white"/>
<path d="M234.74 375.315C234.143 375.315 233.797 375.354 233.462 375.309C229.553 374.794 225.644 374.27 221.738 373.731C221.497 373.698 221.278 373.511 221.028 373.385C221.028 373.109 220.959 372.833 221.038 372.609C227.326 354.874 233.626 337.142 239.986 319.238C240.574 319.523 241.034 319.697 241.441 319.955C241.883 320.236 242.287 320.581 242.687 320.921C244.361 322.342 244.996 322.059 244.235 325.033C243.457 328.079 243.099 331.23 242.519 334.327C241.083 341.985 239.615 349.637 238.177 357.296C237.176 362.633 236.207 367.976 235.215 373.315C235.105 373.906 234.938 374.486 234.74 375.315Z" fill="white"/>
<path d="M245.581 309.408C244.065 310.187 242.999 310.757 241.914 311.288C236.801 313.794 236.8 313.798 231.217 314.585C224.1 315.588 216.98 316.578 209.86 317.567C208.045 317.819 206.225 318.044 204.242 318.303C204.175 317.841 204.037 317.437 204.075 317.05C204.153 316.268 204.319 315.493 204.462 314.719C205.448 309.387 206.434 304.055 207.434 298.726C207.495 298.398 207.673 298.092 207.857 297.622C208.57 297.751 209.252 297.813 209.896 298.003C215.445 299.634 220.983 301.302 226.532 302.931C230.564 304.114 234.613 305.24 238.646 306.421C240.907 307.083 243.091 307.94 245.581 309.408Z" fill="white"/>
<path d="M258.766 191.739C261.768 191.15 264.447 190.708 267.083 190.085C269.639 189.481 272.158 188.713 274.68 187.977C277.247 187.229 279.618 185.903 282.377 185.191C282.245 185.647 282.222 185.91 282.102 186.115C273.997 199.949 265.884 213.779 257.763 227.603C257.689 227.73 257.49 227.783 257.35 227.87C257.265 227.851 257.16 227.854 257.1 227.804C257.041 227.754 256.992 227.649 256.994 227.57C257.123 224.158 257.224 220.745 257.399 217.335C257.833 208.864 258.301 200.394 258.766 191.739Z" fill="white"/>
<path d="M244.749 192.204C244.862 193.498 244.996 194.619 245.054 195.745C245.308 200.643 245.507 205.544 245.791 210.441C246.019 214.374 246.378 218.299 246.604 222.232C246.704 223.962 246.621 225.702 246.621 227.449C245.908 227.648 245.784 227.011 245.538 226.611C242.921 222.359 240.314 218.1 237.713 213.839C232.647 205.54 227.585 197.238 222.525 188.935C222.35 188.648 222.204 188.344 221.906 187.792C224.683 188.035 226.948 189.22 229.376 189.721C231.866 190.234 234.348 190.796 236.857 191.204C239.356 191.609 241.884 191.848 244.749 192.204Z" fill="white"/>
<path d="M266.206 313.262C266.798 310.633 267.313 308.342 267.858 305.923C272.193 304.501 276.631 303.518 281.017 302.371C285.326 301.245 289.585 299.902 294.042 299.06C295.206 300.873 295.582 302.861 296.212 304.744C296.823 306.569 297.418 308.402 297.94 310.254C298.478 312.167 299.299 314.008 299.693 316.179C298.858 316.179 298.259 316.226 297.669 316.172C287.291 315.22 276.913 314.255 266.206 313.262Z" fill="white"/>
<path d="M262.64 315.054C260.537 315.951 258.485 316.609 256.397 317.291C256.235 316.881 256.063 316.651 256.066 316.422C256.115 311.199 256.183 305.976 256.247 300.786C256.861 300.472 257.319 300.237 257.912 299.934C260.232 301.637 262.406 303.497 264.729 305.388C264.257 308.676 263.402 311.846 262.64 315.054Z" fill="white"/>
<path d="M241.192 303.409C243.128 302.115 244.937 300.915 246.737 299.701C247.296 299.323 247.862 299.28 248.467 299.553C249.973 300.233 251.48 300.913 253 301.599V308.845C252.562 308.845 252.202 308.948 251.943 308.83C248.535 307.269 245.14 305.679 241.747 304.085C241.612 304.021 241.535 303.836 241.192 303.409Z" fill="white"/>
<path d="M246.626 320.177C244.58 318.552 242.739 317.09 240.874 315.609C242.307 314.351 245.061 312.913 249.471 311.088C250.511 311.587 251.675 312.145 252.842 312.704V316.288C252.39 316.613 251.987 316.943 251.547 317.213C249.983 318.17 248.407 319.106 246.626 320.177Z" fill="white"/>
<path d="M246.626 320.177C248.407 319.106 249.983 318.17 251.547 317.213C251.987 316.943 252.39 316.613 252.842 316.288V312.704C251.675 312.145 250.511 311.587 249.471 311.088C245.061 312.913 242.307 314.351 240.874 315.609C242.739 317.09 244.58 318.552 246.626 320.177ZM241.192 303.409C241.535 303.836 241.612 304.021 241.747 304.084C245.14 305.679 248.535 307.269 251.943 308.829C252.202 308.948 252.562 308.845 253.001 308.845V301.6C251.479 300.913 249.973 300.233 248.467 299.553C247.862 299.28 247.296 299.323 246.737 299.7C244.938 300.915 243.129 302.115 241.192 303.409ZM262.64 315.054C263.402 311.846 264.257 308.676 264.729 305.387C262.406 303.496 260.233 301.637 257.912 299.934C257.319 300.237 256.861 300.472 256.247 300.786C256.183 305.976 256.115 311.199 256.066 316.423C256.063 316.651 256.235 316.881 256.397 317.291C258.486 316.61 260.537 315.951 262.64 315.054ZM266.205 313.262C276.913 314.255 287.29 315.219 297.67 316.172C298.259 316.226 298.858 316.179 299.693 316.179C299.299 314.008 298.478 312.167 297.94 310.255C297.419 308.402 296.823 306.569 296.212 304.744C295.582 302.861 295.206 300.873 294.042 299.059C289.585 299.903 285.326 301.245 281.018 302.371C276.63 303.518 272.193 304.501 267.858 305.924C267.313 308.343 266.797 310.633 266.205 313.262ZM244.749 192.204C241.884 191.848 239.356 191.609 236.857 191.203C234.348 190.796 231.866 190.235 229.376 189.721C226.948 189.22 224.683 188.035 221.906 187.792C222.204 188.344 222.35 188.648 222.525 188.935C227.585 197.238 232.647 205.54 237.713 213.838C240.314 218.1 242.921 222.359 245.538 226.611C245.784 227.011 245.908 227.648 246.621 227.449C246.621 225.702 246.704 223.962 246.604 222.232C246.378 218.299 246.019 214.373 245.791 210.441C245.507 205.544 245.308 200.643 245.054 195.744C244.996 194.619 244.862 193.498 244.749 192.204ZM258.766 191.739C258.301 200.394 257.833 208.864 257.399 217.335C257.224 220.745 257.123 224.158 256.995 227.57C256.991 227.649 257.04 227.754 257.1 227.804C257.16 227.854 257.264 227.851 257.349 227.87C257.49 227.783 257.689 227.73 257.763 227.603C265.884 213.779 273.997 199.949 282.102 186.115C282.222 185.91 282.245 185.647 282.376 185.191C279.618 185.903 277.247 187.229 274.681 187.977C272.157 188.713 269.639 189.481 267.084 190.085C264.447 190.708 261.768 191.15 258.766 191.739ZM245.581 309.408C243.091 307.94 240.906 307.083 238.645 306.421C234.613 305.24 230.564 304.114 226.533 302.931C220.983 301.302 215.445 299.634 209.896 298.003C209.252 297.813 208.57 297.752 207.856 297.622C207.673 298.092 207.496 298.398 207.434 298.726C206.434 304.055 205.448 309.387 204.462 314.719C204.319 315.493 204.153 316.267 204.075 317.05C204.036 317.436 204.174 317.84 204.242 318.303C206.225 318.044 208.045 317.819 209.86 317.567C216.98 316.578 224.1 315.588 231.218 314.585C236.8 313.799 236.801 313.794 241.913 311.288C242.998 310.757 244.065 310.187 245.581 309.408ZM234.739 375.315C234.938 374.486 235.105 373.906 235.215 373.315C236.207 367.976 237.176 362.633 238.177 357.296C239.614 349.638 241.082 341.985 242.519 334.327C243.1 331.23 243.457 328.078 244.235 325.033C244.996 322.059 244.36 322.342 242.688 320.921C242.287 320.581 241.883 320.236 241.441 319.956C241.034 319.697 240.573 319.522 239.986 319.239C233.626 337.142 227.327 354.874 221.038 372.609C220.959 372.833 221.028 373.109 221.028 373.385C221.278 373.511 221.497 373.698 221.738 373.731C225.644 374.27 229.553 374.794 233.462 375.309C233.797 375.354 234.143 375.315 234.739 375.315ZM283.564 371.488C277.226 353.732 270.957 336.167 264.678 318.605C264.596 318.376 264.393 318.19 264.258 318C261.054 318.691 260.727 318.854 259.53 320.312C260.061 323.275 260.576 326.206 261.115 329.132C261.67 332.147 262.243 335.159 262.819 338.17C263.378 341.097 263.96 344.02 264.517 346.948C265.072 349.876 265.61 352.807 266.154 355.737C266.715 358.752 267.199 361.784 267.856 364.778C268.488 367.658 268.59 370.655 269.591 373.417C271.564 373.444 281.533 372.094 283.564 371.488ZM198.512 328.572C200.704 316.432 202.724 304.913 204.877 293.31C206.114 293.302 206.608 292.64 206.656 291.5C206.772 288.79 207.009 286.082 207.062 283.371C207.092 281.803 206.822 280.231 206.754 278.658C206.575 274.534 206.003 270.467 205.145 266.432C204.015 261.118 202.655 255.867 200.81 250.751C200.613 250.203 200.311 249.693 200.097 249.247C199.83 249.229 199.709 249.182 199.663 249.222C195.084 253.167 190.496 257.101 185.941 261.073C182.045 264.47 178.186 267.911 174.315 271.336C174.255 271.388 174.23 271.487 174.204 271.568C174.179 271.648 174.174 271.735 174.139 271.944C174.589 272.477 175.074 273.092 175.601 273.668C178.142 276.45 180.699 279.216 183.243 281.996C189.043 288.331 194.842 294.669 200.63 301.015C200.96 301.376 201.198 301.821 201.539 302.313C199.647 303.955 197.868 305.508 196.079 307.048C194.352 308.536 192.565 309.957 190.895 311.505C189.181 313.094 187.213 314.417 185.527 316.349C189.676 320.426 193.871 324.236 198.512 328.572ZM322.899 314.215C322.216 313.664 321.824 313.328 321.413 313.02C316.011 308.962 310.601 304.914 305.21 300.843C304.536 300.333 303.681 299.972 303.37 299.047C303.524 298.818 303.637 298.57 303.818 298.391C307.498 294.75 311.188 291.119 314.871 287.482C319.867 282.55 324.862 277.619 329.844 272.674C330.186 272.333 330.411 271.876 330.673 271.498C326.792 267.685 300.377 244.787 298.536 243.635C298.378 243.821 298.131 243.988 298.066 244.208C297.422 246.391 296.75 248.569 296.198 250.777C295.007 255.538 294.068 260.345 293.35 265.21C292.044 274.051 291.9 282.846 293.653 291.633C293.872 292.731 293.941 293.885 294.557 294.965C295.174 294.93 295.764 294.897 296.408 294.86C296.596 295.17 296.839 295.443 296.94 295.76C299.364 303.357 301.774 310.957 304.178 318.56C304.329 319.038 304.412 319.538 304.554 320.144C303.726 320.215 303.086 320.271 302.332 320.336C303.06 323.071 303.728 325.602 304.412 328.129C304.572 328.72 304.778 329.3 304.974 329.88C305.056 330.12 305.167 330.349 305.332 330.748C311.33 325.103 317.002 319.765 322.899 314.215ZM132.958 267.632C134.086 270.874 135.105 273.854 136.159 276.823C137.8 281.444 139.471 286.055 141.117 290.675C142.822 295.461 144.507 300.255 146.208 305.043C147.733 309.336 149.282 313.62 150.798 317.916C152.432 322.541 154.032 327.179 155.671 331.802C155.893 332.427 156.26 333.001 156.605 333.69C157.062 333.414 157.382 333.276 157.635 333.06C169.477 322.886 181.315 312.707 193.147 302.521C193.4 302.302 193.582 302.002 193.907 301.606C192.184 299.569 190.399 297.653 188.62 295.731C186.774 293.736 184.932 291.736 183.097 289.73C181.322 287.789 179.573 285.822 177.784 283.893C175.936 281.901 174.049 279.944 172.186 277.965C170.383 276.049 168.583 274.131 166.794 272.202C164.945 270.208 163.092 268.219 161.275 266.196C159.554 264.28 157.653 262.519 156.165 260.365C156.611 260.464 156.96 260.676 157.281 260.924C160.41 263.331 163.531 265.746 166.661 268.151C167.205 268.569 167.686 269.141 168.639 269.023C169.086 268.674 169.655 268.269 170.18 267.812C173.818 264.644 177.446 261.466 181.078 258.29C186.426 253.613 191.744 248.9 197.146 244.286C198.347 243.262 198.615 242.322 198.095 240.868C197.09 238.066 196.232 235.211 195.323 232.375C194.628 230.212 193.948 228.044 193.271 225.875C193.257 225.829 193.365 225.746 193.448 225.64C193.628 225.832 193.845 225.992 193.971 226.206C196.727 230.889 199.48 235.574 202.215 240.27C202.741 241.174 203.282 242.089 203.656 243.061C206.398 250.183 208.631 257.452 210.222 264.93C212.229 274.362 212.769 283.846 211.774 293.429C211.723 293.919 211.825 294.425 211.856 294.933C213.786 295.578 215.556 296.308 217.615 296.275C228.467 277.799 239.264 259.357 249.966 241.001C248.387 237.939 218.771 189.059 217.471 187.957C217.249 188.065 216.97 188.131 216.79 188.301C188.891 214.693 161 241.092 132.958 267.632ZM289.121 296.356C288.943 295.399 288.793 294.546 288.627 293.695C287.067 285.728 286.621 277.705 287.499 269.627C288.057 264.486 288.734 259.365 289.923 254.314C291.41 247.995 293.033 241.729 295.442 235.68C297.193 231.285 298.803 226.835 300.495 222.417C300.657 221.991 300.955 221.618 301.191 221.221C300.657 226.492 299.727 231.651 299.358 236.806C299.713 237.181 299.933 237.455 300.193 237.681C312.095 248.059 324 258.433 335.908 268.806C335.971 268.861 336.062 268.891 336.146 268.914C336.229 268.938 336.318 268.938 336.617 268.975C337.148 268.686 337.841 268.332 338.511 267.937C339.267 267.492 340.004 267.014 340.744 266.542C341.409 266.118 342.061 265.672 342.73 265.252C343.473 264.785 344.22 264.324 344.98 263.886C345.598 263.531 346.085 262.854 347.262 262.912C344.075 266.12 341.135 269.113 338.156 272.068C335.23 274.971 332.26 277.83 329.318 280.718C326.314 283.668 323.289 286.597 320.332 289.594C317.386 292.58 314.233 295.366 311.352 298.611C311.897 299.091 312.32 299.516 312.795 299.873C324.433 308.628 336.076 317.377 347.726 326.117C348.116 326.41 348.587 326.595 349.171 326.912C351.357 321.934 353.053 316.966 354.946 312.077C356.846 307.173 358.711 302.257 360.59 297.346C362.501 292.354 364.476 287.386 366.301 282.363C368.09 277.441 370.211 272.636 371.767 267.599C371.322 267.135 370.976 266.744 370.599 266.386C363.089 259.265 355.579 252.143 348.061 245.03C337.927 235.446 327.784 225.872 317.648 216.29C307.513 206.708 297.383 197.119 287.241 187.544C286.89 187.212 286.434 186.99 285.923 186.647C285.378 187.524 284.901 188.252 284.463 189.003C282.873 191.729 281.307 194.469 279.712 197.192C274.66 205.817 269.591 214.431 264.548 223.061C261.851 227.677 259.217 232.33 256.516 236.944C254.081 241.104 251.577 245.224 249.136 249.381C243.498 258.983 237.881 268.598 232.253 278.206C228.84 284.032 225.415 289.849 222.018 295.684C221.689 296.249 221.101 296.801 221.624 297.82C226.338 299.184 231.219 300.589 236.094 302.014C237.028 302.287 237.789 302.029 238.561 301.504C240.812 299.977 243.085 298.483 245.36 296.991C246.011 296.565 246.697 296.19 247.364 295.794C248.819 296.429 250.175 297.043 251.547 297.618C253.891 298.599 253.248 298.623 255.734 297.585C256.616 297.217 257.501 296.856 258.481 296.452C261.072 298.527 263.595 300.547 266.01 302.481C268.816 302.075 286.859 297.318 289.121 296.356ZM226.617 43.7386C225.917 43.8701 225.654 43.8844 225.416 43.9693C218.011 46.6159 211.121 50.2195 204.906 55.0593C189.445 67.0997 180.206 82.8616 177.242 102.153C175.401 114.132 176.67 125.938 180.862 137.354C185.084 148.851 191.835 158.647 200.989 166.798C207.343 172.456 214.504 176.811 222.38 179.995C227.031 181.876 231.85 183.264 236.795 184.04C242.783 184.98 248.812 185.295 254.899 184.814C265.583 183.969 275.536 180.879 284.841 175.639C293.759 170.617 301.24 163.948 307.362 155.763C313.378 147.72 317.528 138.796 319.814 129.021C322.161 118.982 322.351 108.898 320.388 98.7628C318.994 91.5605 316.56 84.7386 313.094 78.2877C308.944 70.5619 303.517 63.8381 296.937 58.0374C289.669 51.6288 281.365 47.0232 272.273 43.7397C270.061 42.9405 268.065 43.0117 265.971 44.1162C263.492 45.4242 260.911 46.5424 258.367 47.7259C258.006 47.8937 257.611 48.2302 257.126 47.7051C257.881 45.3195 259.772 43.5297 261 41.2828C258.398 40.3405 255.824 40.4956 253.337 40.0949C252.032 39.8844 250.946 40.2424 249.994 41.194C247.454 43.7347 244.876 46.2371 242.305 48.7477C242.021 49.0256 241.808 49.4937 241.139 49.2268C241.824 46.0891 243.627 43.3856 244.833 40.4534C244.519 40.3306 244.358 40.209 244.205 40.2166C240.517 40.4129 236.901 41.1381 233.266 41.7208C231.783 41.9581 230.675 42.7184 229.788 43.88C228.246 45.9 226.703 47.9189 225.148 49.929C224.966 50.1647 224.71 50.3434 224.488 50.5484C224.4 50.4941 224.312 50.4399 224.225 50.3856C224.979 48.2889 225.734 46.1922 226.617 43.7386ZM251.743 332.34C251.833 332.67 251.952 332.994 252.009 333.329C252.844 338.256 253.69 343.18 254.493 348.113C255.872 356.587 257.21 365.069 258.586 373.545C259.808 381.069 261.072 388.586 262.29 396.11C263.888 405.976 265.447 415.849 267.046 425.715C268.028 431.77 269.069 437.814 270.055 443.869C270.97 449.489 271.836 455.118 272.741 460.74C274.119 469.306 275.502 477.871 276.912 486.432C277.078 487.439 277.077 488.53 277.841 489.418C278.289 489.418 278.73 489.482 279.148 489.409C298.075 486.084 317.001 482.748 335.923 479.402C336.165 479.36 336.378 479.166 336.678 479.002C336.631 478.664 336.611 478.323 336.534 477.995C335.483 473.563 334.426 469.132 333.366 464.702C331.917 458.649 330.467 452.595 329.011 446.544C328.232 443.306 327.448 440.069 326.649 436.837C325.724 433.096 324.766 429.363 323.849 425.62C322.117 418.557 320.421 411.484 318.678 404.423C317.124 398.127 315.533 391.839 313.946 385.551C312.809 381.049 311.645 376.554 310.507 372.053C309.412 367.72 308.371 363.375 307.241 359.051C305.623 352.86 303.956 346.682 302.292 340.503C300.674 334.496 299.033 328.495 297.408 322.489C297.134 321.477 296.836 320.48 296.208 319.554C295.498 319.469 294.81 319.368 294.118 319.31C291.581 319.097 289.041 318.927 286.507 318.687C280.915 318.159 275.327 317.592 269.736 317.062C269.261 317.017 268.771 317.131 268.16 317.183C268.545 319.906 269.775 322.164 270.537 324.564C271.279 326.901 272.147 329.198 272.974 331.508C273.83 333.9 274.709 336.285 275.568 338.676C276.428 341.069 277.281 343.464 278.126 345.861C278.971 348.258 279.796 350.663 280.643 353.059C281.461 355.372 282.29 357.681 283.124 359.989C283.987 362.379 284.944 364.738 285.708 367.158C286.464 369.555 287.625 371.831 288.126 374.497C281.433 375.824 274.764 376.205 268.201 377.294C267.787 377.362 267.353 377.302 266.767 377.302C265.855 373.46 265.187 369.681 264.545 365.893C263.914 362.177 263.17 358.481 262.478 354.775C261.769 350.985 261.065 347.194 260.356 343.404C259.663 339.701 258.972 335.998 258.268 332.297C257.55 328.526 256.816 324.757 256.07 320.887C255.009 321.107 254.099 321.295 253.26 321.469C252.917 321.012 252.671 320.684 252.366 320.278C251.201 320.973 250.164 321.624 249.095 322.219C248.247 322.692 247.883 323.394 247.749 324.333C247.401 326.763 247.045 329.194 246.591 331.606C244.937 340.386 243.225 349.154 241.567 357.933C240.64 362.842 239.784 367.765 238.879 372.679C238.562 374.403 238.216 376.124 237.835 377.835C237.729 378.314 237.45 378.754 237.222 379.279C236.332 379.182 235.551 379.116 234.777 379.01C232.864 378.748 230.955 378.452 229.041 378.2C225.646 377.753 222.245 377.349 218.854 376.879C217.93 376.751 216.898 376.847 216.088 375.931C217.823 371.114 219.585 366.266 221.315 361.407C223.05 356.537 224.747 351.653 226.477 346.781C228.206 341.908 229.981 337.052 231.688 332.171C233.384 327.322 235.308 322.547 236.818 317.385C233.064 317.499 229.661 318.341 226.214 318.808C222.736 319.279 219.243 319.661 215.787 320.259C212.347 320.855 208.824 320.943 205.502 321.787C202.025 332.649 177.573 474.007 176.947 482.057C177.656 482.711 178.58 482.623 179.433 482.713C183.274 483.119 187.122 483.462 190.964 483.871C199.518 484.782 208.068 485.74 216.624 486.638C222.734 487.279 228.851 487.86 234.967 488.45C235.457 488.498 235.961 488.41 236.632 488.376C241.551 436.274 246.329 384.299 251.743 332.34ZM343.219 483.325C337.743 484.716 332.505 485.274 327.356 486.296C322.227 487.313 317.018 487.935 311.9 489.16C311.786 490.554 312.366 491.531 312.726 492.405C313.572 493.079 314.393 492.92 315.163 492.907C320.176 492.826 325.178 493.034 330.148 493.66C335.286 494.306 340.429 494.971 345.521 495.898C348.521 496.445 351.535 497.176 354.225 498.793C355.678 499.666 356.931 500.724 357.916 502.106C358.592 503.055 359.007 504.106 359.209 505.241C359.488 506.809 359.115 508.191 357.998 509.36C356.43 511 354.439 511.903 352.32 512.531C348.863 513.557 345.332 514.216 341.733 514.523C333.833 515.196 325.947 515.119 318.07 514.194C311.878 513.468 305.722 512.54 299.726 510.771C296.773 509.899 293.883 508.847 291.327 507.08C290.54 506.535 289.784 505.905 289.148 505.194C286.954 502.739 287.255 499.099 289.766 496.995C290.861 496.078 292.097 495.447 293.489 495.109C294.675 494.821 295.853 494.502 297.032 494.196C297.088 493.837 297.191 493.576 297.152 493.338C297.071 492.836 296.915 492.346 296.75 491.694C294.079 492.159 291.505 492.604 288.933 493.058C286.34 493.515 283.749 493.986 281.156 494.443C278.583 494.897 276.018 495.409 273.28 495.592C272.464 493.068 272.418 490.513 271.959 488.039C271.48 485.456 271.063 482.862 270.62 480.272C270.191 477.768 269.739 475.268 269.341 472.759C268.943 470.249 268.627 467.725 268.224 465.216C267.819 462.707 267.34 460.21 266.914 457.705C266.473 455.112 266.042 452.518 265.635 449.92C265.241 447.408 264.912 444.886 264.503 442.376C264.095 439.867 263.603 437.37 263.187 434.862C262.772 432.353 262.415 429.836 262.016 427.324C261.605 424.73 261.189 422.136 260.749 419.546C260.324 417.042 259.838 414.547 259.431 412.04C259.023 409.531 258.699 407.008 258.306 404.497C257.912 401.989 257.485 399.485 257.059 396.982C256.619 394.39 256.139 391.805 255.721 389.21C255.316 386.7 255.002 384.176 254.587 381.669C254.176 379.19 253.69 376.725 253.235 374.242C252.432 374.342 252.572 374.884 252.538 375.248C251.719 383.889 250.921 392.531 250.111 401.173C249.325 409.553 248.522 417.931 247.741 426.311C247.195 432.158 246.682 438.008 246.138 443.855C245.708 448.481 245.245 453.104 244.81 457.729C244.046 465.844 243.3 473.961 242.531 482.075C242.184 485.739 241.805 489.4 241.426 493.061C241.392 493.394 241.258 493.716 241.153 494.109C238.793 494.544 236.58 493.802 234.335 493.633C232.06 493.463 229.786 493.25 227.515 493.024C225.244 492.798 222.977 492.532 220.708 492.288C218.455 492.045 216.201 491.808 213.769 491.549C213.627 492.443 213.51 493.178 213.406 493.83C214.199 494.658 215.137 494.577 215.961 494.801C217.574 495.241 219.158 495.702 220.513 496.772C223.324 498.995 223.759 502.328 221.497 505.104C220.075 506.851 218.129 507.886 216.124 508.796C211.615 510.842 206.83 511.936 201.987 512.821C195.241 514.052 188.44 514.778 181.585 514.963C175.781 515.12 169.994 514.774 164.25 513.975C162.09 513.675 159.948 513.084 157.871 512.403C156.389 511.917 154.94 511.194 153.634 510.338C150.648 508.378 150.813 505.468 151.982 503.17C152.744 501.672 153.813 500.353 155.273 499.476C156.546 498.712 157.854 497.907 159.255 497.478C161.849 496.682 164.495 495.97 167.17 495.541C172.195 494.734 177.244 494.031 182.306 493.518C186.143 493.13 190.015 493.1 193.872 492.921C194.486 492.892 195.102 492.925 195.716 492.91C197.856 492.857 198.022 492.676 198.247 490.087C193.693 489.252 189.038 489.187 184.457 488.544C179.959 487.914 175.398 487.779 170.765 486.939C171.055 482.211 172.219 477.796 172.871 473.308C173.526 468.798 174.322 464.308 175.059 459.809C175.796 455.312 176.517 450.812 177.279 446.319C178.041 441.828 178.847 437.345 179.63 432.857C180.413 428.369 181.191 423.879 181.971 419.389C182.751 414.898 183.532 410.406 184.31 405.914C185.088 401.421 185.858 396.927 186.639 392.435C187.421 387.945 188.204 383.455 189.001 378.967C189.798 374.481 190.601 369.997 191.423 365.516C192.243 361.054 193.091 356.598 193.997 351.755C193.354 352.176 192.968 352.334 192.71 352.611C188.583 357.049 183.379 359.694 177.708 361.501C174.724 362.453 171.812 361.95 169.035 360.553C167.342 359.701 166.668 358.271 166.709 356.465C166.743 354.949 167.232 353.547 167.929 352.205C169.862 348.483 172.623 345.458 175.803 342.775C179.38 339.759 183.356 337.365 187.493 335.217C187.793 335.061 188.083 334.885 188.432 334.687C188.344 334.381 188.348 334.078 188.199 333.928C184.681 330.383 181.146 326.855 177.524 323.234C175.292 324.628 173.578 326.507 171.632 328.089C169.658 329.695 167.759 331.391 165.83 333.051C163.968 334.653 162.112 336.265 160.249 337.865C158.325 339.518 156.396 341.163 154.297 342.958C153.968 342.381 153.665 341.993 153.508 341.553C151.034 334.621 148.576 327.683 146.12 320.744C143.985 314.713 141.865 308.677 139.724 302.648C137.349 295.959 134.948 289.279 132.579 282.587C130.679 277.222 128.811 271.846 127 266.679C127.174 265.566 127.873 265.126 128.437 264.593C138.439 255.127 148.447 245.669 158.447 236.202C171.128 224.197 183.801 212.185 196.481 200.179C201.513 195.414 206.561 190.664 211.583 185.886C212.201 185.299 213.001 184.827 213.253 183.79C211.447 182.748 209.61 181.735 207.818 180.647C196.263 173.626 187.053 164.295 180.232 152.623C174.898 143.497 171.58 133.701 170.129 123.223C169.451 118.331 169.128 113.436 169.438 108.537C169.787 103.027 170.501 97.5371 172.059 92.2084C172.82 89.603 173.621 87.0014 174.558 84.4552C178.688 73.2392 185.184 63.5613 193.754 55.2484C201.283 47.9436 209.983 42.4301 219.692 38.5173C222.942 37.2077 226.262 36.0034 229.726 35.367C231.407 35.0578 232.57 34.2433 233.587 32.9211C236.98 28.5106 240.995 24.7205 245.539 21.5138C251.681 17.1789 258.351 13.9524 265.624 11.9297C269.715 10.7917 273.848 10.118 278.074 10.0061C279.559 9.96667 281.053 10.1251 282.537 10.2528C283.039 10.2961 283.525 10.5225 283.961 10.6492C284.168 11.4703 283.657 11.7186 283.158 11.8715C280.979 12.5409 278.801 13.2173 276.599 13.8071C263.583 17.2924 251.984 23.4608 241.702 32.1339C241.464 32.3345 241.086 32.5143 241.284 33.159C241.699 33.1798 242.183 33.2423 242.664 33.2226C244.856 33.1321 247.047 32.9534 249.239 32.9392C250.465 32.9309 251.432 32.5845 252.302 31.7299C255.079 28.9995 258.311 26.8924 261.729 25.0664C266.33 22.609 271.157 20.7814 276.374 20.185C277.848 20.0167 279.352 20.0458 280.84 20.0798C281.308 20.0907 281.769 20.4142 282.466 20.6849C281.974 21.2041 281.697 21.6651 281.29 21.8937C280.144 22.5367 278.968 23.1369 277.762 23.6598C273.573 25.4765 269.437 27.3994 265.505 29.7253C263.92 30.6626 262.393 31.697 260.853 32.7078C260.654 32.8377 260.539 33.0938 260.271 33.438C260.655 33.5948 260.931 33.757 261.227 33.8206C263.63 34.3337 266.057 34.7487 268.432 35.361C269.696 35.686 270.826 35.6148 272.02 35.1801C275.138 34.0454 278.372 33.9462 281.64 34.1945C282.806 34.2833 283.876 34.6231 284.854 35.2552C285.454 35.6438 285.527 36.4123 284.92 36.7686C284.173 37.2066 283.343 37.501 282.557 37.8754C281.801 38.2355 280.83 38.1698 280.087 39.1121C291.112 43.9447 300.655 50.6191 308.566 59.5158C316.557 68.5014 322.314 78.7356 325.633 90.3106C328.921 101.778 329.692 113.394 327.795 125.191C325.884 137.075 321.526 147.971 314.658 157.842C307.857 167.617 299.278 175.531 288.759 181.634C303.829 195.894 318.659 209.942 333.507 223.971C348.357 238.003 363.172 252.071 378 266.062C377.881 266.602 377.85 266.953 377.728 267.271C369.134 289.787 360.534 312.301 351.923 334.81C351.87 334.949 351.667 335.031 351.42 335.233C350.598 335.109 349.965 334.474 349.289 333.967C344.024 330.019 338.774 326.049 333.515 322.093C332.823 321.572 332.102 321.089 331.443 320.623C329.782 321.778 319.383 332.103 316.919 335.011C317.199 335.966 318.162 336.114 318.874 336.544C321.351 338.038 323.921 339.393 326.305 341.021C330.17 343.661 333.559 346.835 336.163 350.771C337.185 352.315 338.048 353.94 338.478 355.752C339.16 358.626 338.065 360.802 335.274 361.807C332.751 362.716 330.123 362.956 327.516 362.149C321.544 360.303 316.216 357.377 311.972 352.685C311.808 352.504 311.568 352.39 311.333 352.223C311.237 353.867 312.521 359.155 314.612 366.666C315.953 371.479 317.08 376.35 318.294 381.198C319.508 386.044 320.709 390.893 321.92 395.74C323.13 400.585 324.353 405.427 325.558 410.273C326.763 415.12 327.955 419.971 329.148 424.821C330.342 429.673 331.537 434.525 332.716 439.38C333.896 444.233 335.069 449.088 336.223 453.946C337.377 458.803 338.436 463.685 339.663 468.523C340.888 473.357 341.969 478.219 343.219 483.325Z" fill="black"/>
<path d="M266.187 113.34C265.527 112.591 264.897 111.877 264.337 111.241C264.331 110.447 264.877 110.252 265.303 109.99C270.298 106.912 275.285 103.82 280.304 100.781C284.499 98.2422 288.732 95.7667 292.953 93.272C293.243 93.1004 293.577 93.0039 293.939 92.8521C294.832 93.5548 295.189 94.5426 295.877 95.4855C292.712 97.6792 289.451 99.3676 286.331 101.281C283.201 103.199 280.022 105.038 276.642 107.044C277.133 107.384 277.416 107.685 277.762 107.804C283.99 109.961 284.273 118.342 281.299 121.947C279.075 124.644 276.173 125.507 272.824 124.895C269.625 124.31 267.405 122.464 266.516 119.296C266.167 118.053 266.118 116.717 266.025 115.417C265.976 114.732 266.127 114.033 266.187 113.34Z" fill="black"/>
<path d="M219.541 107.597C213.667 104.397 208.144 101.388 202.574 98.3531C202.766 97.1187 203.41 96.3337 204.09 95.3991C206.813 96.5442 209.257 98.0653 211.784 99.4204C214.41 100.828 217.024 102.257 219.638 103.687C222.175 105.074 224.721 106.447 227.235 107.874C229.721 109.286 232.361 110.458 234.594 112.29C233.222 114.252 233.222 114.252 231.634 114.935C231.56 115.954 231.574 117.013 231.393 118.038C230.81 121.328 228.991 123.703 225.748 124.662C222.304 125.681 219.035 125.133 216.591 122.346C212.889 118.125 213.99 111.863 217.661 108.92C218.129 108.545 218.642 108.227 219.541 107.597Z" fill="black"/>
<path d="M221.947 157.774C221.35 156.892 221.469 156.027 221.495 155.268C221.629 155.096 221.676 155.02 221.739 154.959C221.798 154.899 221.864 154.827 221.941 154.806C224.308 154.155 226.664 153.465 229.045 152.872C244.954 148.909 260.868 144.967 276.783 141.029C276.932 140.992 277.115 141.089 277.457 141.161C277.728 142.476 276.916 143.6 276.725 144.891C276.076 145.113 275.519 145.357 274.936 145.494C257.771 149.535 240.604 153.568 223.435 157.591C222.94 157.708 222.419 157.719 221.947 157.774Z" fill="black"/>
</g>
<defs>
<filter id="filter0_f_37_113" x="0" y="1" width="269" height="523" filterUnits="userSpaceOnUse" color-interpolation-filters="sRGB">
<feFlood flood-opacity="0" result="BackgroundImageFix"/>
<feBlend mode="normal" in="SourceGraphic" in2="BackgroundImageFix" result="shape"/>
<feGaussianBlur stdDeviation="4.5" result="effect1_foregroundBlur_37_113"/>
</filter>
<filter id="filter1_f_37_113" x="261" y="1" width="269" height="523" filterUnits="userSpaceOnUse" color-interpolation-filters="sRGB">
<feFlood flood-opacity="0" result="BackgroundImageFix"/>
<feBlend mode="normal" in="SourceGraphic" in2="BackgroundImageFix" result="shape"/>
<feGaussianBlur stdDeviation="4.5" result="effect1_foregroundBlur_37_113"/>
</filter>
<filter id="filter2_d_37_113" x="117" y="0" width="279" height="533" filterUnits="userSpaceOnUse" color-interpolation-filters="sRGB">
<feFlood flood-opacity="0" result="BackgroundImageFix"/>
<feColorMatrix in="SourceAlpha" type="matrix" values="0 0 0 0 0 0 0 0 0 0 0 0 0 0 0 0 0 0 127 0" result="hardAlpha"/>
<feOffset dx="4" dy="4"/>
<feGaussianBlur stdDeviation="7"/>
<feComposite in2="hardAlpha" operator="out"/>
<feColorMatrix type="matrix" values="0 0 0 0 0 0 0 0 0 0 0 0 0 0 0 0 0 0 0.45 0"/>
<feBlend mode="normal" in2="BackgroundImageFix" result="effect1_dropShadow_37_113"/>
<feBlend mode="normal" in="SourceGraphic" in2="effect1_dropShadow_37_113" result="shape"/>
</filter>
</defs>
</svg>
