<svg width="279" height="533" viewBox="0 0 279 533" fill="none" xmlns="http://www.w3.org/2000/svg">
<g filter="url(#filter0_d_37_45)">
<path d="M134.743 332.34C129.329 384.3 124.551 436.274 119.632 488.376C118.961 488.41 118.457 488.497 117.967 488.45C111.851 487.86 105.734 487.279 99.6238 486.638C91.0677 485.74 82.5182 484.782 73.9637 483.871C70.1228 483.462 66.2742 483.119 62.4328 482.714C61.5799 482.624 60.6562 482.711 59.9472 482.057C60.5727 474.007 85.0257 332.65 88.5014 321.787C91.8239 320.943 95.3469 320.854 98.7869 320.259C102.243 319.662 105.736 319.278 109.213 318.808C112.661 318.341 116.064 317.499 119.817 317.385C118.308 322.548 116.384 327.322 114.688 332.171C112.981 337.052 111.206 341.908 109.477 346.781C107.747 351.653 106.051 356.537 104.315 361.407C102.584 366.266 100.823 371.114 99.0884 375.931C99.8984 376.847 100.93 376.751 101.854 376.879C105.245 377.35 108.646 377.753 112.041 378.2C113.956 378.452 115.863 378.748 117.777 379.01C118.552 379.116 119.331 379.182 120.222 379.279C120.45 378.754 120.729 378.314 120.835 377.835C121.216 376.124 121.562 374.404 121.879 372.678C122.784 367.765 123.64 362.842 124.567 357.933C126.225 349.155 127.937 340.386 129.591 331.606C130.045 329.195 130.401 326.763 130.749 324.334C130.883 323.394 131.247 322.692 132.095 322.219C133.163 321.624 134.201 320.973 135.366 320.278C135.671 320.685 135.916 321.012 136.26 321.469C137.099 321.295 138.009 321.107 139.07 320.887C139.816 324.757 140.55 328.525 141.268 332.297C141.972 335.997 142.663 339.701 143.356 343.404C144.065 347.194 144.769 350.985 145.478 354.775C146.17 358.481 146.914 362.177 147.545 365.893C148.188 369.682 148.854 373.46 149.767 377.302C150.353 377.302 150.787 377.362 151.201 377.293C157.764 376.205 164.433 375.824 171.126 374.497C170.625 371.83 169.464 369.556 168.708 367.158C167.944 364.738 166.987 362.378 166.124 359.989C165.29 357.682 164.461 355.372 163.643 353.059C162.796 350.663 161.971 348.258 161.126 345.861C160.281 343.463 159.428 341.069 158.568 338.676C157.709 336.285 156.83 333.9 155.974 331.507C155.147 329.198 154.28 326.901 153.537 324.564C152.775 322.165 151.545 319.907 151.16 317.183C151.771 317.131 152.261 317.017 152.735 317.062C158.327 317.592 163.915 318.159 169.507 318.688C172.041 318.927 174.581 319.097 177.118 319.31C177.81 319.368 178.498 319.47 179.208 319.554C179.836 320.481 180.134 321.477 180.408 322.49C182.033 328.495 183.674 334.496 185.292 340.503C186.955 346.682 188.623 352.861 190.241 359.052C191.371 363.374 192.412 367.721 193.507 372.053C194.645 376.554 195.809 381.049 196.945 385.551C198.533 391.839 200.124 398.126 201.678 404.423C203.421 411.484 205.117 418.557 206.849 425.62C207.766 429.363 208.724 433.096 209.649 436.837C210.448 440.07 211.232 443.306 212.011 446.544C213.467 452.595 214.917 458.649 216.366 464.702C217.426 469.132 218.482 473.563 219.534 477.995C219.611 478.322 219.631 478.665 219.678 479.003C219.378 479.166 219.164 479.36 218.923 479.402C200.001 482.748 181.076 486.084 162.148 489.409C161.73 489.483 161.289 489.418 160.841 489.418C160.077 488.53 160.078 487.439 159.912 486.431C158.503 477.871 157.119 469.306 155.741 460.74C154.836 455.118 153.969 449.49 153.055 443.869C152.069 437.815 151.028 431.77 150.046 425.715C148.447 415.849 146.888 405.977 145.29 396.11C144.072 388.586 142.807 381.069 141.586 373.545C140.21 365.069 138.872 356.588 137.493 348.112C136.69 343.181 135.843 338.256 135.009 333.329C134.952 332.994 134.833 332.67 134.743 332.34Z" fill="white"/>
<path d="M104.947 157.774C105.419 157.719 105.94 157.708 106.436 157.591C123.604 153.568 140.771 149.536 157.936 145.494C158.519 145.357 159.077 145.113 159.725 144.891C159.916 143.6 160.728 142.476 160.457 141.161C160.115 141.089 159.932 140.992 159.783 141.029C143.868 144.967 127.954 148.909 112.045 152.872C109.664 153.465 107.308 154.155 104.941 154.806C104.864 154.827 104.798 154.899 104.739 154.959C104.677 155.02 104.629 155.096 104.495 155.268C104.47 156.027 104.35 156.892 104.947 157.774ZM102.541 107.598C101.642 108.227 101.129 108.545 100.662 108.92C96.9898 111.863 95.8887 118.125 99.5912 122.347C102.035 125.133 105.304 125.682 108.748 124.663C111.991 123.703 113.81 121.329 114.393 118.038C114.574 117.013 114.56 115.954 114.634 114.935C116.222 114.251 116.222 114.251 117.594 112.29C115.361 110.458 112.721 109.286 110.235 107.874C107.721 106.447 105.175 105.074 102.639 103.686C100.024 102.257 97.4099 100.828 94.7843 99.4201C92.257 98.0656 89.8121 96.5444 87.0904 95.3993C86.4105 96.3334 85.7658 97.1189 85.5741 98.3534C91.1438 101.387 96.6674 104.397 102.541 107.598ZM149.187 113.34C149.127 114.033 148.976 114.731 149.025 115.417C149.118 116.717 149.168 118.053 149.517 119.295C150.406 122.464 152.624 124.31 155.824 124.895C159.173 125.507 162.075 124.644 164.299 121.947C167.273 118.342 166.99 109.961 160.762 107.804C160.416 107.685 160.133 107.384 159.642 107.044C163.022 105.038 166.201 103.199 169.331 101.281C172.451 99.3675 175.712 97.6791 178.877 95.4854C178.189 94.5425 177.831 93.5547 176.939 92.852C176.578 93.0038 176.243 93.1003 175.953 93.2719C171.732 95.7666 167.499 98.2421 163.305 100.781C158.285 103.82 153.298 106.912 148.302 109.99C147.877 110.252 147.331 110.446 147.337 111.241C147.897 111.877 148.526 112.591 149.187 113.34ZM109.616 43.7386C108.734 46.1922 107.979 48.2889 107.225 50.3857C107.313 50.4399 107.4 50.4942 107.488 50.5485C107.71 50.3435 107.966 50.1648 108.148 49.929C109.703 47.9189 111.246 45.9 112.788 43.8801C113.675 42.7185 114.784 41.9582 116.265 41.7208C119.901 41.1381 123.516 40.4129 127.205 40.2167C127.358 40.209 127.519 40.3307 127.834 40.4535C126.628 43.3856 124.824 46.0892 124.139 49.2269C124.809 49.4933 125.021 49.0257 125.305 48.7478C127.875 46.2372 130.454 43.7348 132.994 41.194C133.945 40.2424 135.032 39.8845 136.336 40.095C138.824 40.4957 141.398 40.3406 144.001 41.2829C142.772 43.5298 140.881 45.3195 140.126 47.7051C140.612 48.2303 141.007 47.8937 141.367 47.726C143.912 46.5425 146.492 45.4242 148.972 44.1163C151.065 43.0118 153.061 42.9405 155.273 43.7397C164.364 47.0232 172.67 51.6289 179.937 58.0375C186.516 63.8382 191.945 70.562 196.094 78.2873C199.559 84.7386 201.994 91.5605 203.388 98.7623C205.35 108.898 205.161 118.982 202.813 129.022C200.528 138.796 196.378 147.72 190.362 155.763C184.24 163.948 176.759 170.617 167.841 175.639C158.536 180.879 148.582 183.969 137.899 184.814C131.812 185.295 125.783 184.98 119.795 184.04C114.851 183.264 110.031 181.875 105.38 179.995C97.5038 176.811 90.3431 172.456 83.9892 166.798C74.8356 158.647 68.0841 148.851 63.862 137.354C59.6702 125.938 58.4016 114.132 60.2419 102.153C63.2052 82.8617 72.4445 67.0998 87.9059 55.0593C94.1214 50.2196 101.01 46.6154 108.416 43.9694C108.654 43.8844 108.917 43.8702 109.616 43.7386Z" fill="white"/>
<path d="M172.121 296.356C169.859 297.318 151.816 302.076 149.01 302.48C146.595 300.547 144.072 298.527 141.481 296.453C140.5 296.857 139.616 297.217 138.734 297.585C136.248 298.623 136.891 298.599 134.547 297.618C133.174 297.043 131.819 296.43 130.364 295.794C129.697 296.191 129.011 296.565 128.36 296.991C126.086 298.483 123.812 299.977 121.562 301.504C120.789 302.029 120.028 302.287 119.094 302.014C114.219 300.589 109.338 299.184 104.624 297.82C104.101 296.801 104.689 296.249 105.018 295.684C108.414 289.849 111.84 284.032 115.253 278.206C120.881 268.598 126.498 258.983 132.136 249.381C134.577 245.224 137.081 241.104 139.516 236.944C142.217 232.33 144.851 227.677 147.548 223.061C152.591 214.431 157.66 205.817 162.712 197.193C164.307 194.469 165.873 191.729 167.463 189.002C167.901 188.252 168.378 187.525 168.924 186.646C169.435 186.99 169.89 187.212 170.241 187.544C180.383 197.12 190.513 206.708 200.648 216.289C210.784 225.872 220.927 235.446 231.061 245.03C238.579 252.142 246.089 259.265 253.599 266.386C253.976 266.744 254.322 267.135 254.767 267.599C253.21 272.636 251.09 277.441 249.301 282.364C247.475 287.386 245.501 292.354 243.591 297.346C241.711 302.257 239.846 307.174 237.947 312.077C236.053 316.965 234.357 321.934 232.171 326.912C231.587 326.595 231.116 326.41 230.726 326.117C219.076 317.377 207.433 308.628 195.794 299.873C195.32 299.516 194.897 299.091 194.352 298.611C197.233 295.367 200.386 292.58 203.332 289.594C206.289 286.598 209.313 283.668 212.318 280.718C215.26 277.83 218.23 274.971 221.156 272.068C224.135 269.113 227.075 266.12 230.262 262.913C229.085 262.854 228.598 263.531 227.98 263.887C227.22 264.325 226.473 264.786 225.73 265.252C225.061 265.671 224.409 266.118 223.744 266.542C223.004 267.014 222.267 267.492 221.511 267.937C220.841 268.332 220.148 268.686 219.617 268.975C219.319 268.939 219.229 268.938 219.146 268.914C219.062 268.891 218.971 268.861 218.908 268.806C207 258.433 195.095 248.059 183.193 237.681C182.933 237.454 182.713 237.181 182.358 236.806C182.727 231.651 183.657 226.492 184.191 221.221C183.955 221.618 183.657 221.991 183.495 222.417C181.803 226.835 180.193 231.286 178.442 235.68C176.034 241.729 174.41 247.995 172.923 254.315C171.734 259.365 171.057 264.486 170.498 269.628C169.621 277.705 170.067 285.728 171.627 293.695C171.793 294.546 171.943 295.4 172.121 296.356Z" fill="white"/>
<path d="M15.9578 267.632C43.9997 241.092 71.8916 214.693 99.7902 188.301C99.9703 188.131 100.249 188.066 100.471 187.957C101.77 189.059 131.387 237.939 132.966 241.001C122.264 259.357 111.467 277.799 100.614 296.274C98.5562 296.308 96.7856 295.578 94.8558 294.933C94.8251 294.426 94.7229 293.92 94.774 293.429C95.7686 283.846 95.2298 274.363 93.222 264.93C91.6305 257.452 89.3976 250.184 86.6561 243.061C86.2821 242.089 85.7418 241.175 85.2151 240.27C82.4802 235.574 79.7272 230.889 76.9709 226.206C76.8452 225.993 76.6288 225.833 76.4481 225.641C76.3657 225.746 76.2575 225.829 76.2713 225.874C76.9479 228.044 77.6283 230.212 78.3224 232.375C79.2319 235.212 80.0908 238.066 81.0947 240.869C81.6158 242.322 81.3467 243.262 80.1468 244.287C74.7435 248.9 69.4264 253.613 64.078 258.29C60.4463 261.466 56.8179 264.644 53.1797 267.812C52.6558 268.269 52.0863 268.674 51.6392 269.024C50.6859 269.141 50.2048 268.57 49.6606 268.151C46.5308 265.746 43.4099 263.33 40.2818 260.924C39.96 260.676 39.6112 260.464 39.1653 260.365C40.653 262.519 42.5543 264.28 44.2754 266.196C46.0915 268.219 47.9449 270.209 49.794 272.202C51.5832 274.13 53.3834 276.049 55.1863 277.965C57.0491 279.944 58.9361 281.901 60.7841 283.894C62.5733 285.823 64.3218 287.789 66.0979 289.73C67.9321 291.736 69.774 293.736 71.6203 295.731C73.3986 297.654 75.1845 299.569 76.9067 301.606C76.5821 302.002 76.3998 302.303 76.1466 302.521C64.3147 312.707 52.4773 322.886 40.6349 333.06C40.3823 333.277 40.0621 333.414 39.6058 333.691C39.2598 333.001 38.8929 332.428 38.6716 331.803C37.0318 327.179 35.432 322.541 33.7988 317.916C32.282 313.621 30.7333 309.336 29.2077 305.043C27.5064 300.255 25.8215 295.462 24.1169 290.675C22.4716 286.054 20.7999 281.444 19.159 276.822C18.1051 273.855 17.0858 270.875 15.9578 267.632Z" fill="white"/>
<path d="M166.564 371.488C164.533 372.094 154.564 373.444 152.591 373.417C151.591 370.655 151.489 367.658 150.856 364.778C150.2 361.784 149.715 358.752 149.154 355.737C148.61 352.807 148.073 349.876 147.516 346.949C146.96 344.02 146.378 341.097 145.819 338.17C145.243 335.159 144.671 332.147 144.115 329.132C143.577 326.206 143.061 323.275 142.53 320.312C143.727 318.854 144.054 318.691 147.258 318C147.393 318.19 147.597 318.376 147.678 318.605C153.957 336.167 160.226 353.733 166.564 371.488Z" fill="white"/>
<path d="M117.74 375.315C117.143 375.315 116.797 375.354 116.462 375.309C112.553 374.794 108.644 374.27 104.738 373.731C104.497 373.698 104.278 373.511 104.028 373.385C104.028 373.109 103.959 372.833 104.038 372.609C110.326 354.874 116.626 337.142 122.986 319.238C123.574 319.523 124.034 319.697 124.441 319.955C124.883 320.236 125.287 320.581 125.687 320.921C127.361 322.342 127.996 322.059 127.235 325.033C126.457 328.079 126.099 331.23 125.519 334.327C124.083 341.985 122.615 349.637 121.177 357.296C120.176 362.633 119.207 367.976 118.215 373.315C118.105 373.906 117.938 374.486 117.74 375.315Z" fill="white"/>
<path d="M128.581 309.408C127.065 310.187 125.999 310.757 124.914 311.288C119.801 313.794 119.8 313.798 114.217 314.585C107.1 315.588 99.9801 316.578 92.8601 317.567C91.0446 317.819 89.2251 318.044 87.2421 318.303C87.1745 317.841 87.0367 317.437 87.0751 317.05C87.1531 316.268 87.319 315.493 87.4623 314.719C88.4481 309.387 89.4344 304.055 90.4339 298.726C90.4954 298.398 90.6728 298.092 90.8567 297.622C91.5696 297.751 92.2516 297.813 92.8958 298.003C98.4447 299.634 103.983 301.302 109.532 302.931C113.564 304.114 117.613 305.24 121.646 306.421C123.907 307.083 126.091 307.94 128.581 309.408Z" fill="white"/>
<path d="M141.766 191.739C144.768 191.15 147.447 190.708 150.083 190.085C152.639 189.481 155.158 188.713 157.68 187.977C160.247 187.229 162.618 185.903 165.377 185.191C165.245 185.647 165.222 185.91 165.102 186.115C156.997 199.949 148.884 213.779 140.763 227.603C140.689 227.73 140.49 227.783 140.35 227.87C140.265 227.851 140.16 227.854 140.1 227.804C140.041 227.754 139.992 227.649 139.994 227.57C140.123 224.158 140.224 220.745 140.399 217.335C140.833 208.864 141.301 200.394 141.766 191.739Z" fill="white"/>
<path d="M127.749 192.204C127.862 193.498 127.996 194.619 128.054 195.745C128.308 200.643 128.507 205.544 128.791 210.441C129.019 214.374 129.378 218.299 129.604 222.232C129.704 223.962 129.621 225.702 129.621 227.449C128.908 227.648 128.784 227.011 128.538 226.611C125.921 222.359 123.314 218.1 120.713 213.839C115.647 205.54 110.585 197.238 105.525 188.935C105.35 188.648 105.204 188.344 104.906 187.792C107.683 188.035 109.948 189.22 112.376 189.721C114.866 190.234 117.348 190.796 119.857 191.204C122.356 191.609 124.884 191.848 127.749 192.204Z" fill="white"/>
<path d="M149.206 313.262C149.798 310.633 150.313 308.342 150.858 305.923C155.193 304.501 159.631 303.518 164.017 302.371C168.326 301.245 172.585 299.902 177.042 299.06C178.206 300.873 178.582 302.861 179.212 304.744C179.823 306.569 180.418 308.402 180.94 310.254C181.478 312.167 182.299 314.008 182.693 316.179C181.858 316.179 181.259 316.226 180.669 316.172C170.291 315.22 159.913 314.255 149.206 313.262Z" fill="white"/>
<path d="M145.64 315.054C143.537 315.951 141.485 316.609 139.397 317.291C139.235 316.881 139.063 316.651 139.066 316.422C139.115 311.199 139.183 305.976 139.247 300.786C139.861 300.472 140.319 300.237 140.912 299.934C143.232 301.637 145.406 303.497 147.729 305.388C147.257 308.676 146.402 311.846 145.64 315.054Z" fill="white"/>
<path d="M124.192 303.409C126.128 302.115 127.937 300.915 129.737 299.701C130.296 299.323 130.862 299.28 131.467 299.553C132.973 300.233 134.48 300.913 136 301.599V308.845C135.562 308.845 135.202 308.948 134.943 308.83C131.535 307.269 128.14 305.679 124.747 304.085C124.612 304.021 124.535 303.836 124.192 303.409Z" fill="white"/>
<path d="M129.626 320.177C127.58 318.552 125.739 317.09 123.874 315.609C125.307 314.351 128.061 312.913 132.471 311.088C133.511 311.587 134.675 312.145 135.842 312.704V316.288C135.39 316.613 134.987 316.943 134.547 317.213C132.983 318.17 131.407 319.106 129.626 320.177Z" fill="white"/>
<path d="M129.626 320.177C131.407 319.106 132.983 318.17 134.547 317.213C134.987 316.943 135.39 316.613 135.842 316.288V312.704C134.675 312.145 133.511 311.587 132.471 311.088C128.061 312.913 125.307 314.351 123.874 315.609C125.739 317.09 127.58 318.552 129.626 320.177ZM124.192 303.409C124.535 303.836 124.612 304.021 124.747 304.085C128.14 305.679 131.535 307.269 134.943 308.829C135.202 308.948 135.562 308.845 136.001 308.845V301.6C134.479 300.913 132.973 300.233 131.467 299.553C130.862 299.28 130.296 299.323 129.737 299.7C127.938 300.915 126.129 302.115 124.192 303.409ZM145.64 315.054C146.402 311.846 147.257 308.676 147.729 305.387C145.406 303.496 143.233 301.637 140.912 299.934C140.319 300.237 139.861 300.472 139.247 300.786C139.183 305.976 139.115 311.199 139.066 316.423C139.063 316.651 139.235 316.881 139.397 317.291C141.486 316.61 143.537 315.951 145.64 315.054ZM149.205 313.262C159.913 314.255 170.29 315.219 180.67 316.172C181.259 316.226 181.858 316.179 182.693 316.179C182.299 314.008 181.478 312.167 180.94 310.255C180.419 308.402 179.823 306.569 179.212 304.744C178.582 302.861 178.206 300.873 177.042 299.059C172.585 299.903 168.326 301.245 164.018 302.371C159.63 303.518 155.193 304.501 150.858 305.924C150.313 308.343 149.797 310.633 149.205 313.262ZM127.749 192.204C124.884 191.848 122.356 191.609 119.857 191.203C117.348 190.796 114.866 190.234 112.376 189.721C109.948 189.22 107.683 188.035 104.906 187.792C105.204 188.344 105.35 188.648 105.525 188.935C110.585 197.238 115.647 205.54 120.713 213.839C123.314 218.1 125.921 222.359 128.538 226.611C128.784 227.011 128.908 227.648 129.621 227.449C129.621 225.702 129.704 223.962 129.604 222.232C129.378 218.299 129.019 214.374 128.791 210.441C128.507 205.544 128.308 200.643 128.054 195.744C127.996 194.619 127.862 193.498 127.749 192.204ZM141.766 191.739C141.301 200.394 140.833 208.864 140.399 217.335C140.224 220.745 140.123 224.158 139.995 227.57C139.991 227.649 140.04 227.754 140.1 227.804C140.16 227.854 140.264 227.851 140.349 227.87C140.49 227.783 140.689 227.73 140.763 227.603C148.884 213.779 156.997 199.949 165.102 186.115C165.222 185.91 165.245 185.647 165.376 185.191C162.618 185.903 160.247 187.229 157.681 187.977C155.157 188.713 152.639 189.481 150.084 190.085C147.447 190.708 144.768 191.15 141.766 191.739ZM128.581 309.408C126.091 307.94 123.906 307.083 121.645 306.421C117.613 305.24 113.564 304.114 109.533 302.931C103.983 301.302 98.4448 299.634 92.896 298.003C92.2518 297.813 91.5697 297.752 90.8564 297.622C90.673 298.092 90.4956 298.398 90.4341 298.726C89.434 304.055 88.4482 309.387 87.4619 314.719C87.3186 315.493 87.1527 316.267 87.0748 317.05C87.0363 317.436 87.1742 317.84 87.2423 318.303C89.2253 318.044 91.0447 317.819 92.8603 317.567C99.9803 316.578 107.1 315.588 114.218 314.585C119.8 313.799 119.801 313.794 124.913 311.288C125.998 310.757 127.065 310.187 128.581 309.408ZM117.739 375.315C117.938 374.486 118.105 373.906 118.215 373.315C119.207 367.976 120.176 362.633 121.177 357.296C122.614 349.638 124.082 341.985 125.519 334.327C126.1 331.23 126.457 328.078 127.235 325.033C127.996 322.059 127.36 322.342 125.688 320.921C125.287 320.581 124.883 320.236 124.441 319.956C124.034 319.697 123.573 319.522 122.986 319.239C116.626 337.142 110.327 354.874 104.038 372.609C103.959 372.833 104.028 373.109 104.028 373.385C104.278 373.511 104.497 373.698 104.738 373.731C108.644 374.27 112.553 374.794 116.462 375.309C116.797 375.354 117.143 375.315 117.739 375.315ZM166.564 371.488C160.226 353.732 153.957 336.167 147.678 318.605C147.596 318.376 147.393 318.19 147.258 318C144.054 318.691 143.727 318.854 142.53 320.312C143.061 323.275 143.576 326.206 144.115 329.132C144.67 332.147 145.243 335.159 145.819 338.17C146.378 341.097 146.96 344.02 147.517 346.948C148.072 349.876 148.61 352.807 149.154 355.737C149.715 358.752 150.199 361.784 150.856 364.778C151.488 367.658 151.59 370.655 152.591 373.417C154.564 373.444 164.533 372.094 166.564 371.488ZM81.5117 328.572C83.7045 316.432 85.7243 304.913 87.8771 293.31C89.1144 293.302 89.6081 292.64 89.6564 291.5C89.7723 288.79 90.009 286.082 90.0617 283.371C90.0925 281.803 89.8217 280.231 89.7536 278.658C89.5746 274.534 89.0029 270.467 88.1451 266.432C87.0155 261.118 85.6546 255.867 83.8105 250.751C83.6133 250.203 83.3113 249.693 83.0971 249.247C82.8302 249.229 82.7094 249.182 82.6633 249.222C78.0843 253.167 73.4965 257.101 68.9411 261.073C65.0452 264.47 61.1862 267.911 57.3145 271.335C57.2552 271.388 57.23 271.487 57.2042 271.568C57.1789 271.648 57.174 271.735 57.1388 271.944C57.5891 272.477 58.074 273.092 58.6007 273.668C61.1423 276.45 63.6987 279.216 66.243 281.996C72.0428 288.331 77.8415 294.669 83.6304 301.015C83.9599 301.376 84.1982 301.821 84.5392 302.313C82.6468 303.955 80.868 305.508 79.0788 307.048C77.3517 308.536 75.5652 309.957 73.8952 311.505C72.1806 313.094 70.213 314.417 68.527 316.349C72.676 320.426 76.8706 324.236 81.5117 328.572ZM205.899 314.215C205.216 313.664 204.824 313.328 204.413 313.02C199.011 308.962 193.601 304.914 188.21 300.843C187.536 300.333 186.681 299.972 186.37 299.047C186.524 298.818 186.637 298.57 186.818 298.391C190.498 294.75 194.188 291.119 197.871 287.482C202.867 282.55 207.862 277.619 212.844 272.674C213.186 272.333 213.411 271.876 213.673 271.498C209.792 267.685 183.377 244.787 181.536 243.635C181.378 243.821 181.131 243.988 181.066 244.208C180.422 246.391 179.75 248.569 179.198 250.777C178.007 255.538 177.068 260.345 176.35 265.21C175.044 274.051 174.9 282.846 176.653 291.633C176.872 292.731 176.941 293.885 177.557 294.965C178.174 294.93 178.764 294.897 179.408 294.86C179.596 295.17 179.839 295.443 179.94 295.76C182.364 303.357 184.774 310.957 187.178 318.56C187.329 319.038 187.412 319.538 187.554 320.144C186.726 320.215 186.086 320.271 185.332 320.336C186.06 323.071 186.728 325.602 187.412 328.129C187.572 328.72 187.778 329.3 187.974 329.88C188.056 330.12 188.167 330.349 188.332 330.748C194.33 325.103 200.002 319.765 205.899 314.215ZM15.958 267.632C17.086 270.874 18.1052 273.854 19.1591 276.823C20.8 281.444 22.4712 286.055 24.117 290.675C25.8217 295.461 27.5065 300.255 29.2079 305.043C30.7335 309.336 32.2816 313.62 33.7984 317.916C35.4322 322.541 37.0319 327.179 38.6712 331.802C38.8931 332.427 39.2599 333.001 39.6054 333.69C40.0623 333.414 40.3824 333.276 40.6345 333.06C52.4774 322.886 64.3148 312.707 76.1468 302.521C76.3999 302.302 76.5817 302.002 76.9068 301.606C75.1841 299.569 73.3987 297.653 71.6199 295.731C69.7742 293.736 67.9322 291.736 66.0975 289.73C64.322 287.789 62.5734 285.822 60.7842 283.893C58.9357 281.901 57.0487 279.944 55.1865 277.965C53.383 276.049 51.5828 274.131 49.7936 272.202C47.9445 270.208 46.0916 268.219 44.275 266.196C42.5544 264.28 40.6532 262.519 39.1649 260.365C39.6108 260.464 39.9601 260.676 40.2814 260.924C43.41 263.331 46.531 265.746 49.6607 268.151C50.205 268.569 50.686 269.141 51.6394 269.023C52.0859 268.674 52.6554 268.269 53.1798 267.812C56.8175 264.644 60.4465 261.466 64.0776 258.29C69.426 253.613 74.7436 248.9 80.1464 244.286C81.3469 243.262 81.6154 242.322 81.0948 240.868C80.0904 238.066 79.232 235.211 78.3226 232.375C77.6284 230.212 76.948 228.044 76.2714 225.875C76.2572 225.829 76.3653 225.746 76.4483 225.64C76.6284 225.832 76.8453 225.992 76.9711 226.206C79.7268 230.889 82.4804 235.574 85.2147 240.27C85.7414 241.174 86.2818 242.089 86.6557 243.061C89.3978 250.183 91.6307 257.452 93.2222 264.93C95.2294 274.362 95.7687 283.846 94.7742 293.429C94.7231 293.919 94.8247 294.425 94.856 294.933C96.7858 295.578 98.5563 296.308 100.615 296.275C111.467 277.799 122.264 259.357 132.966 241.001C131.387 237.939 101.771 189.059 100.471 187.957C100.249 188.065 99.9699 188.131 99.7903 188.301C71.8912 214.693 43.9998 241.092 15.958 267.632ZM172.121 296.356C171.943 295.399 171.793 294.546 171.627 293.695C170.067 285.728 169.621 277.705 170.499 269.627C171.057 264.486 171.734 259.365 172.923 254.314C174.41 247.995 176.033 241.729 178.442 235.68C180.193 231.285 181.803 226.835 183.495 222.417C183.657 221.991 183.955 221.618 184.191 221.221C183.657 226.492 182.727 231.651 182.358 236.806C182.713 237.181 182.933 237.455 183.193 237.681C195.095 248.059 207 258.433 218.908 268.806C218.971 268.861 219.062 268.891 219.146 268.914C219.229 268.938 219.318 268.938 219.617 268.975C220.148 268.686 220.841 268.332 221.511 267.937C222.267 267.492 223.004 267.014 223.744 266.542C224.409 266.118 225.061 265.672 225.73 265.252C226.473 264.785 227.22 264.324 227.98 263.886C228.598 263.531 229.085 262.854 230.262 262.912C227.075 266.12 224.135 269.113 221.156 272.068C218.23 274.971 215.26 277.83 212.318 280.718C209.314 283.668 206.289 286.598 203.332 289.594C200.386 292.58 197.233 295.367 194.352 298.611C194.897 299.091 195.32 299.516 195.795 299.873C207.433 308.628 219.076 317.377 230.726 326.117C231.116 326.41 231.587 326.595 232.171 326.912C234.357 321.934 236.053 316.966 237.946 312.077C239.846 307.173 241.711 302.257 243.59 297.346C245.501 292.354 247.476 287.386 249.301 282.363C251.09 277.441 253.211 272.636 254.767 267.599C254.322 267.135 253.976 266.744 253.599 266.386C246.089 259.265 238.579 252.143 231.061 245.03C220.927 235.445 210.784 225.872 200.648 216.29C190.513 206.708 180.383 197.119 170.242 187.544C169.89 187.212 169.434 186.99 168.923 186.647C168.378 187.524 167.901 188.252 167.463 189.003C165.873 191.729 164.307 194.469 162.712 197.192C157.66 205.817 152.591 214.431 147.548 223.061C144.851 227.677 142.217 232.33 139.516 236.944C137.081 241.104 134.577 245.224 132.135 249.381C126.498 258.983 120.881 268.598 115.253 278.206C111.84 284.032 108.415 289.849 105.018 295.684C104.689 296.249 104.101 296.801 104.624 297.82C109.338 299.184 114.219 300.589 119.094 302.014C120.028 302.287 120.789 302.029 121.561 301.504C123.812 299.977 126.085 298.483 128.36 296.991C129.011 296.565 129.697 296.19 130.364 295.794C131.819 296.429 133.175 297.043 134.547 297.618C136.891 298.599 136.248 298.623 138.734 297.585C139.616 297.217 140.501 296.856 141.481 296.452C144.072 298.527 146.595 300.547 149.01 302.481C151.816 302.075 169.859 297.318 172.121 296.356ZM109.617 43.7386C108.917 43.8701 108.654 43.8844 108.416 43.9693C101.011 46.6159 94.1212 50.2195 87.9062 55.0593C72.4448 67.0997 63.2055 82.8616 60.2416 102.153C58.4014 114.132 59.6699 125.938 63.8618 137.354C68.0838 148.851 74.8354 158.647 83.989 166.798C90.3434 172.456 97.5036 176.811 105.38 179.995C110.031 181.876 114.85 183.264 119.795 184.04C125.783 184.98 131.812 185.295 137.899 184.814C148.583 183.969 158.536 180.879 167.841 175.639C176.759 170.617 184.24 163.948 190.362 155.763C196.378 147.72 200.528 138.796 202.814 129.021C205.161 118.982 205.351 108.898 203.388 98.7628C201.994 91.5605 199.56 84.7386 196.094 78.2878C191.944 70.5619 186.517 63.8381 179.937 58.0374C172.669 51.6288 164.365 47.0232 155.273 43.7397C153.061 42.9405 151.065 43.0117 148.971 44.1162C146.492 45.4242 143.911 46.5424 141.367 47.7259C141.006 47.8936 140.611 48.2302 140.126 47.7051C140.881 45.3195 142.772 43.5297 144 41.2828C141.398 40.3405 138.824 40.4956 136.337 40.0949C135.032 39.8844 133.946 40.2424 132.994 41.194C130.454 43.7347 127.876 46.2371 125.305 48.7477C125.021 49.0256 124.808 49.4937 124.139 49.2268C124.824 46.0891 126.627 43.3856 127.833 40.4534C127.519 40.3307 127.358 40.209 127.205 40.2166C123.517 40.4129 119.901 41.1381 116.266 41.7208C114.783 41.9581 113.675 42.7184 112.788 43.88C111.246 45.9 109.703 47.9189 108.148 49.929C107.966 50.1647 107.71 50.3434 107.488 50.5484C107.4 50.4941 107.312 50.4399 107.225 50.3856C107.979 48.2889 108.734 46.1922 109.617 43.7386ZM134.743 332.34C134.833 332.67 134.952 332.994 135.009 333.329C135.844 338.256 136.69 343.18 137.493 348.113C138.872 356.587 140.21 365.069 141.586 373.545C142.808 381.069 144.072 388.586 145.29 396.11C146.888 405.976 148.447 415.849 150.046 425.715C151.028 431.77 152.069 437.814 153.055 443.869C153.97 449.489 154.836 455.118 155.741 460.74C157.119 469.306 158.502 477.871 159.912 486.432C160.078 487.439 160.077 488.53 160.841 489.418C161.289 489.418 161.73 489.482 162.148 489.409C181.075 486.084 200.001 482.748 218.923 479.402C219.165 479.36 219.378 479.166 219.678 479.002C219.631 478.664 219.611 478.323 219.534 477.995C218.482 473.563 217.426 469.132 216.366 464.702C214.917 458.649 213.467 452.595 212.011 446.544C211.232 443.306 210.448 440.069 209.649 436.837C208.724 433.096 207.766 429.363 206.849 425.62C205.117 418.557 203.421 411.484 201.678 404.423C200.124 398.127 198.533 391.839 196.946 385.551C195.809 381.049 194.645 376.554 193.507 372.053C192.412 367.72 191.371 363.375 190.241 359.051C188.623 352.86 186.956 346.682 185.292 340.503C183.674 334.496 182.033 328.495 180.408 322.489C180.134 321.477 179.836 320.48 179.208 319.554C178.498 319.469 177.81 319.368 177.118 319.31C174.581 319.097 172.041 318.927 169.507 318.687C163.915 318.159 158.327 317.592 152.736 317.062C152.261 317.017 151.771 317.131 151.16 317.183C151.545 319.906 152.775 322.164 153.537 324.564C154.279 326.901 155.147 329.198 155.974 331.508C156.83 333.9 157.709 336.285 158.568 338.676C159.428 341.069 160.281 343.464 161.126 345.861C161.971 348.258 162.796 350.663 163.643 353.059C164.461 355.372 165.29 357.681 166.124 359.989C166.987 362.379 167.944 364.738 168.708 367.158C169.464 369.555 170.625 371.831 171.126 374.497C164.433 375.824 157.764 376.205 151.201 377.294C150.787 377.362 150.353 377.302 149.767 377.302C148.855 373.46 148.187 369.681 147.545 365.893C146.914 362.177 146.17 358.481 145.478 354.775C144.769 350.985 144.065 347.194 143.356 343.404C142.663 339.701 141.972 335.998 141.268 332.297C140.55 328.526 139.816 324.757 139.07 320.887C138.009 321.107 137.099 321.295 136.26 321.469C135.917 321.012 135.671 320.684 135.366 320.278C134.201 320.973 133.164 321.624 132.095 322.219C131.247 322.692 130.883 323.394 130.749 324.333C130.401 326.763 130.045 329.194 129.591 331.606C127.937 340.386 126.225 349.154 124.567 357.933C123.64 362.842 122.784 367.765 121.879 372.679C121.562 374.403 121.216 376.124 120.835 377.835C120.729 378.314 120.45 378.754 120.222 379.279C119.332 379.182 118.551 379.116 117.777 379.01C115.864 378.748 113.955 378.452 112.041 378.2C108.646 377.753 105.245 377.349 101.854 376.879C100.93 376.751 99.8979 376.847 99.0879 375.931C100.823 371.114 102.585 366.266 104.315 361.407C106.05 356.537 107.747 351.653 109.477 346.781C111.206 341.908 112.981 337.052 114.688 332.171C116.384 327.322 118.308 322.547 119.818 317.385C116.064 317.499 112.661 318.341 109.214 318.808C105.736 319.279 102.243 319.661 98.787 320.259C95.347 320.855 91.824 320.943 88.5015 321.787C85.0253 332.649 60.5728 474.007 59.9473 482.057C60.6563 482.711 61.58 482.623 62.4328 482.713C66.2743 483.119 70.1223 483.462 73.9638 483.871C82.5183 484.782 91.0678 485.74 99.6239 486.638C105.734 487.279 111.851 487.86 117.967 488.45C118.457 488.498 118.961 488.41 119.632 488.376C124.551 436.274 129.329 384.299 134.743 332.34ZM226.219 483.325C220.743 484.716 215.505 485.274 210.356 486.296C205.227 487.313 200.018 487.935 194.9 489.16C194.786 490.554 195.366 491.531 195.726 492.405C196.572 493.079 197.393 492.92 198.163 492.907C203.176 492.826 208.178 493.034 213.148 493.66C218.286 494.306 223.429 494.971 228.521 495.898C231.521 496.445 234.535 497.176 237.225 498.793C238.678 499.666 239.931 500.724 240.916 502.106C241.592 503.055 242.007 504.106 242.209 505.241C242.488 506.809 242.115 508.191 240.998 509.36C239.43 511 237.439 511.903 235.32 512.531C231.863 513.557 228.332 514.216 224.733 514.523C216.833 515.196 208.947 515.119 201.07 514.194C194.878 513.468 188.722 512.54 182.726 510.771C179.773 509.899 176.883 508.847 174.327 507.08C173.54 506.535 172.784 505.905 172.148 505.194C169.954 502.739 170.255 499.099 172.766 496.995C173.861 496.078 175.097 495.447 176.489 495.109C177.675 494.821 178.853 494.502 180.032 494.196C180.088 493.837 180.191 493.576 180.152 493.338C180.071 492.836 179.915 492.346 179.75 491.694C177.079 492.159 174.505 492.604 171.933 493.058C169.34 493.515 166.749 493.986 164.156 494.443C161.583 494.897 159.018 495.409 156.28 495.592C155.464 493.068 155.418 490.513 154.959 488.039C154.48 485.456 154.063 482.862 153.62 480.272C153.191 477.768 152.739 475.268 152.341 472.759C151.943 470.249 151.627 467.725 151.224 465.216C150.819 462.707 150.34 460.21 149.914 457.705C149.473 455.112 149.042 452.518 148.635 449.92C148.241 447.408 147.912 444.886 147.503 442.376C147.095 439.867 146.603 437.37 146.187 434.862C145.772 432.353 145.415 429.836 145.016 427.324C144.605 424.73 144.189 422.136 143.749 419.546C143.324 417.042 142.838 414.547 142.431 412.04C142.023 409.531 141.699 407.008 141.306 404.497C140.912 401.989 140.485 399.485 140.059 396.982C139.619 394.39 139.139 391.805 138.721 389.21C138.316 386.7 138.002 384.176 137.587 381.669C137.176 379.19 136.69 376.725 136.235 374.242C135.432 374.342 135.572 374.884 135.538 375.248C134.719 383.889 133.921 392.531 133.111 401.173C132.325 409.553 131.522 417.931 130.741 426.311C130.195 432.158 129.682 438.008 129.138 443.855C128.708 448.481 128.245 453.104 127.81 457.729C127.046 465.844 126.3 473.961 125.531 482.075C125.184 485.739 124.805 489.4 124.426 493.061C124.392 493.394 124.258 493.716 124.153 494.109C121.793 494.544 119.58 493.802 117.335 493.633C115.06 493.463 112.786 493.25 110.515 493.024C108.244 492.798 105.977 492.532 103.708 492.288C101.455 492.045 99.201 491.808 96.7688 491.549C96.6271 492.443 96.5101 493.178 96.4063 493.83C97.1993 494.658 98.1373 494.577 98.9611 494.801C100.574 495.241 102.158 495.702 103.513 496.772C106.324 498.995 106.759 502.328 104.497 505.104C103.075 506.851 101.129 507.886 99.1236 508.796C94.6149 510.842 89.83 511.936 84.9868 512.821C78.2408 514.052 71.4398 514.778 64.585 514.963C58.7808 515.12 52.9942 514.774 47.2498 513.975C45.0899 513.675 42.9476 513.084 40.8707 512.403C39.389 511.917 37.9397 511.194 36.6343 510.338C33.6485 508.378 33.8127 505.468 34.9819 503.17C35.7441 501.672 36.8134 500.353 38.2731 499.476C39.5455 498.712 40.8536 497.907 42.2551 497.478C44.8494 496.682 47.4953 495.97 50.1703 495.541C55.1953 494.734 60.2438 494.031 65.3061 493.518C69.1426 493.13 73.0154 493.1 76.8722 492.921C77.4862 492.892 78.1018 492.925 78.7164 492.91C80.8559 492.857 81.0223 492.676 81.2475 490.087C76.6926 489.252 72.0379 489.187 67.4567 488.544C62.9595 487.914 58.3975 487.779 53.7652 486.939C54.0552 482.211 55.2194 477.796 55.8713 473.308C56.5265 468.798 57.3222 464.308 58.0592 459.809C58.7957 455.312 59.5167 450.812 60.279 446.319C61.0407 441.828 61.8469 437.345 62.63 432.857C63.4126 428.369 64.1913 423.879 64.9711 419.389C65.7509 414.898 66.5319 410.406 67.31 405.914C68.0877 401.421 68.8576 396.927 69.6391 392.435C70.4205 387.945 71.2042 383.455 72.0011 378.967C72.7979 374.481 73.6008 369.997 74.4235 365.516C75.2428 361.054 76.0908 356.598 76.9974 351.755C76.3544 352.176 75.9677 352.334 75.7102 352.611C71.5831 357.049 66.3792 359.694 60.7084 361.501C57.7237 362.453 54.812 361.95 52.0353 360.553C50.3422 359.701 49.6684 358.271 49.709 356.465C49.7425 354.949 50.2319 353.547 50.9288 352.205C52.8618 348.483 55.6225 345.458 58.8033 342.775C62.3796 339.759 66.3556 337.365 70.493 335.217C70.7934 335.061 71.0829 334.885 71.4321 334.687C71.3437 334.381 71.3481 334.078 71.1987 333.928C67.6807 330.383 64.1462 326.855 60.5239 323.234C58.2921 324.628 56.5781 326.507 54.6318 328.089C52.6581 329.695 50.7585 331.391 48.8298 333.051C46.9676 334.653 45.1125 336.265 43.2486 337.865C41.3254 339.518 39.3956 341.163 37.2972 342.958C36.9682 342.381 36.6651 341.993 36.508 341.553C34.034 334.621 31.5765 327.683 29.12 320.744C26.9854 314.713 24.865 308.677 22.7243 302.648C20.3492 295.959 17.9476 289.279 15.5785 282.587C13.6789 277.222 11.8106 271.846 10 266.679C10.1735 265.566 10.8726 265.126 11.4366 264.593C21.4387 255.127 31.4469 245.669 41.4467 236.202C54.1277 224.197 66.801 212.185 79.4808 200.179C84.5134 195.414 89.5614 190.664 94.5831 185.886C95.2014 185.299 96.001 184.827 96.2525 183.79C94.4469 182.748 92.6099 181.735 90.8185 180.647C79.2628 173.626 70.0532 164.295 63.2319 152.623C57.8983 143.497 54.5797 133.701 53.1287 123.223C52.4511 118.331 52.1276 113.436 52.4379 108.537C52.7866 103.027 53.5011 97.5371 55.0585 92.2084C55.8202 89.603 56.6209 87.0014 57.5584 84.4552C61.6876 73.2392 68.1843 63.5613 76.7536 55.2484C84.2828 47.9435 92.9833 42.4301 102.692 38.5173C105.942 37.2077 109.262 36.0034 112.726 35.367C114.407 35.0578 115.57 34.2433 116.587 32.9211C119.98 28.5106 123.995 24.7206 128.539 21.5138C134.681 17.1789 141.351 13.9524 148.624 11.9297C152.715 10.7917 156.848 10.118 161.074 10.0061C162.559 9.96667 164.053 10.1251 165.537 10.2528C166.039 10.2961 166.525 10.5225 166.961 10.6491C167.168 11.4703 166.656 11.7186 166.158 11.8716C163.979 12.5409 161.801 13.2173 159.599 13.8071C146.583 17.2924 134.984 23.4608 124.702 32.1339C124.464 32.3345 124.086 32.5143 124.284 33.159C124.699 33.1798 125.183 33.2423 125.664 33.2226C127.856 33.1321 130.047 32.9534 132.239 32.9391C133.465 32.9309 134.432 32.5845 135.302 31.7299C138.079 28.9995 141.311 26.8924 144.729 25.0664C149.33 22.609 154.157 20.7814 159.374 20.185C160.848 20.0167 162.352 20.0458 163.84 20.0798C164.308 20.0907 164.769 20.4142 165.466 20.6849C164.974 21.2041 164.697 21.6651 164.29 21.8936C163.144 22.5367 161.968 23.1369 160.762 23.6598C156.573 25.4764 152.437 27.3994 148.505 29.7253C146.92 30.6626 145.393 31.697 143.853 32.7078C143.654 32.8377 143.539 33.0938 143.271 33.438C143.656 33.5948 143.931 33.757 144.227 33.8206C146.63 34.3337 149.057 34.7487 151.432 35.361C152.696 35.686 153.826 35.6147 155.02 35.1801C158.138 34.0453 161.372 33.9462 164.64 34.1945C165.806 34.2833 166.876 34.6231 167.854 35.2552C168.454 35.6438 168.527 36.4124 167.92 36.7686C167.173 37.2066 166.343 37.501 165.557 37.8754C164.801 38.2355 163.83 38.1698 163.087 39.1121C174.112 43.9447 183.655 50.6191 191.566 59.5158C199.557 68.5014 205.314 78.7356 208.633 90.3106C211.921 101.778 212.692 113.394 210.795 125.191C208.884 137.075 204.526 147.971 197.658 157.842C190.857 167.617 182.278 175.531 171.759 181.634C186.829 195.894 201.659 209.942 216.507 223.971C231.357 238.003 246.172 252.071 261 266.062C260.881 266.602 260.85 266.953 260.728 267.271C252.134 289.787 243.534 312.301 234.923 334.81C234.87 334.949 234.667 335.031 234.42 335.233C233.598 335.109 232.965 334.474 232.289 333.967C227.024 330.019 221.774 326.049 216.515 322.093C215.823 321.572 215.102 321.089 214.443 320.623C212.782 321.778 202.383 332.103 199.919 335.011C200.199 335.966 201.162 336.114 201.874 336.544C204.351 338.038 206.921 339.393 209.305 341.021C213.17 343.661 216.559 346.835 219.163 350.771C220.185 352.315 221.048 353.94 221.478 355.752C222.16 358.626 221.065 360.802 218.274 361.807C215.751 362.716 213.123 362.956 210.516 362.149C204.544 360.303 199.216 357.377 194.972 352.685C194.808 352.504 194.568 352.39 194.333 352.223C194.237 353.867 195.521 359.155 197.612 366.666C198.953 371.479 200.08 376.35 201.294 381.198C202.508 386.044 203.709 390.893 204.92 395.74C206.13 400.585 207.353 405.427 208.558 410.273C209.763 415.12 210.955 419.971 212.148 424.821C213.342 429.673 214.537 434.525 215.716 439.38C216.896 444.233 218.069 449.088 219.223 453.946C220.377 458.803 221.436 463.685 222.663 468.523C223.888 473.357 224.969 478.219 226.219 483.325Z" fill="black"/>
<path d="M149.187 113.34C148.527 112.591 147.897 111.877 147.337 111.241C147.331 110.447 147.877 110.252 148.303 109.99C153.298 106.912 158.285 103.82 163.304 100.781C167.499 98.2422 171.732 95.7667 175.953 93.272C176.243 93.1004 176.577 93.0039 176.939 92.8521C177.832 93.5548 178.189 94.5426 178.877 95.4855C175.712 97.6792 172.451 99.3676 169.331 101.281C166.201 103.199 163.022 105.038 159.642 107.044C160.133 107.384 160.416 107.685 160.762 107.804C166.99 109.961 167.273 118.342 164.299 121.947C162.075 124.644 159.173 125.507 155.824 124.895C152.625 124.31 150.405 122.464 149.516 119.296C149.167 118.053 149.118 116.717 149.025 115.417C148.976 114.732 149.127 114.033 149.187 113.34Z" fill="black"/>
<path d="M102.541 107.597C96.6673 104.397 91.1437 101.388 85.574 98.3531C85.7657 97.1187 86.4104 96.3337 87.0903 95.3991C89.8126 96.5442 92.2569 98.0653 94.7842 99.4204C97.4098 100.828 100.024 102.257 102.638 103.687C105.175 105.074 107.721 106.447 110.235 107.874C112.721 109.286 115.361 110.458 117.594 112.29C116.222 114.252 116.222 114.252 114.634 114.935C114.56 115.954 114.574 117.013 114.393 118.038C113.81 121.328 111.991 123.703 108.748 124.662C105.304 125.681 102.035 125.133 99.5911 122.346C95.8891 118.125 96.9897 111.863 100.661 108.92C101.129 108.545 101.642 108.227 102.541 107.597Z" fill="black"/>
<path d="M104.947 157.774C104.35 156.892 104.469 156.027 104.495 155.268C104.629 155.096 104.676 155.02 104.739 154.959C104.798 154.899 104.864 154.827 104.941 154.806C107.308 154.155 109.664 153.465 112.045 152.872C127.954 148.909 143.868 144.967 159.783 141.029C159.932 140.992 160.115 141.089 160.457 141.161C160.728 142.476 159.916 143.6 159.725 144.891C159.076 145.113 158.519 145.357 157.936 145.494C140.771 149.535 123.604 153.568 106.435 157.591C105.94 157.708 105.419 157.719 104.947 157.774Z" fill="black"/>
</g>
<defs>
<filter id="filter0_d_37_45" x="0" y="0" width="279" height="533" filterUnits="userSpaceOnUse" color-interpolation-filters="sRGB">
<feFlood flood-opacity="0" result="BackgroundImageFix"/>
<feColorMatrix in="SourceAlpha" type="matrix" values="0 0 0 0 0 0 0 0 0 0 0 0 0 0 0 0 0 0 127 0" result="hardAlpha"/>
<feOffset dx="4" dy="4"/>
<feGaussianBlur stdDeviation="7"/>
<feComposite in2="hardAlpha" operator="out"/>
<feColorMatrix type="matrix" values="0 0 0 0 0 0 0 0 0 0 0 0 0 0 0 0 0 0 0.45 0"/>
<feBlend mode="normal" in2="BackgroundImageFix" result="effect1_dropShadow_37_45"/>
<feBlend mode="normal" in="SourceGraphic" in2="effect1_dropShadow_37_45" result="shape"/>
</filter>
</defs>
</svg>
