<svg width="269" height="523" viewBox="0 0 269 523" fill="none" xmlns="http://www.w3.org/2000/svg">
<g opacity="0.94" filter="url(#filter0_f_37_46)">
<path d="M128.626 319.177C130.407 318.106 131.983 317.17 133.547 316.213C133.987 315.943 134.39 315.613 134.842 315.288V311.704C133.675 311.145 132.511 310.587 131.471 310.088C127.061 311.913 124.307 313.351 122.874 314.609C124.739 316.09 126.58 317.552 128.626 319.177ZM123.192 302.409C123.535 302.836 123.612 303.021 123.747 303.085C127.14 304.679 130.535 306.269 133.943 307.829C134.202 307.948 134.562 307.845 135.001 307.845V300.6C133.479 299.913 131.973 299.233 130.467 298.553C129.862 298.28 129.296 298.323 128.737 298.7C126.938 299.915 125.129 301.115 123.192 302.409ZM144.64 314.054C145.402 310.846 146.257 307.676 146.729 304.387C144.406 302.496 142.233 300.637 139.912 298.934C139.319 299.237 138.861 299.472 138.247 299.786C138.183 304.976 138.115 310.199 138.066 315.423C138.063 315.651 138.235 315.881 138.397 316.291C140.486 315.61 142.537 314.951 144.64 314.054ZM148.205 312.262C158.913 313.255 169.29 314.219 179.67 315.172C180.259 315.226 180.858 315.179 181.693 315.179C181.299 313.008 180.478 311.167 179.94 309.255C179.419 307.402 178.823 305.569 178.212 303.744C177.582 301.861 177.206 299.873 176.042 298.059C171.585 298.903 167.326 300.245 163.018 301.371C158.63 302.518 154.193 303.501 149.858 304.924C149.313 307.343 148.797 309.633 148.205 312.262ZM126.749 191.204C123.884 190.848 121.356 190.609 118.857 190.203C116.348 189.796 113.866 189.234 111.376 188.721C108.948 188.22 106.683 187.035 103.906 186.792C104.204 187.344 104.35 187.648 104.525 187.935C109.585 196.238 114.647 204.54 119.713 212.839C122.314 217.1 124.921 221.359 127.538 225.611C127.784 226.011 127.908 226.648 128.621 226.449C128.621 224.702 128.704 222.962 128.604 221.232C128.378 217.299 128.019 213.374 127.791 209.441C127.507 204.544 127.308 199.643 127.054 194.744C126.996 193.619 126.862 192.498 126.749 191.204ZM140.766 190.739C140.301 199.394 139.833 207.864 139.399 216.335C139.224 219.745 139.123 223.158 138.995 226.57C138.991 226.649 139.04 226.754 139.1 226.804C139.16 226.854 139.264 226.851 139.349 226.87C139.49 226.783 139.689 226.73 139.763 226.603C147.884 212.779 155.997 198.949 164.102 185.115C164.222 184.91 164.245 184.647 164.376 184.191C161.618 184.903 159.247 186.229 156.681 186.977C154.157 187.713 151.639 188.481 149.084 189.085C146.447 189.708 143.768 190.15 140.766 190.739ZM127.581 308.408C125.091 306.94 122.906 306.083 120.645 305.421C116.613 304.24 112.564 303.114 108.533 301.931C102.983 300.302 97.4448 298.634 91.896 297.003C91.2518 296.813 90.5697 296.752 89.8564 296.622C89.673 297.092 89.4956 297.398 89.4341 297.726C88.434 303.055 87.4482 308.387 86.4619 313.719C86.3186 314.493 86.1527 315.267 86.0748 316.05C86.0363 316.436 86.1742 316.84 86.2423 317.303C88.2253 317.044 90.0447 316.819 91.8603 316.567C98.9803 315.578 106.1 314.588 113.218 313.585C118.8 312.799 118.801 312.794 123.913 310.288C124.998 309.757 126.065 309.187 127.581 308.408ZM116.739 374.315C116.938 373.486 117.105 372.906 117.215 372.315C118.207 366.976 119.176 361.633 120.177 356.296C121.614 348.638 123.082 340.985 124.519 333.327C125.1 330.23 125.457 327.078 126.235 324.033C126.996 321.059 126.36 321.342 124.688 319.921C124.287 319.581 123.883 319.236 123.441 318.956C123.034 318.697 122.573 318.522 121.986 318.239C115.626 336.142 109.327 353.874 103.038 371.609C102.959 371.833 103.028 372.109 103.028 372.385C103.278 372.511 103.497 372.698 103.738 372.731C107.644 373.27 111.553 373.794 115.462 374.309C115.797 374.354 116.143 374.315 116.739 374.315ZM165.564 370.488C159.226 352.732 152.957 335.167 146.678 317.605C146.596 317.376 146.393 317.19 146.258 317C143.054 317.691 142.727 317.854 141.53 319.312C142.061 322.275 142.576 325.206 143.115 328.132C143.67 331.147 144.243 334.159 144.819 337.17C145.378 340.097 145.96 343.02 146.517 345.948C147.072 348.876 147.61 351.807 148.154 354.737C148.715 357.752 149.199 360.784 149.856 363.778C150.488 366.658 150.59 369.655 151.591 372.417C153.564 372.444 163.533 371.094 165.564 370.488ZM80.5117 327.572C82.7045 315.432 84.7243 303.913 86.8771 292.31C88.1144 292.302 88.6081 291.64 88.6564 290.5C88.7723 287.79 89.009 285.082 89.0617 282.371C89.0925 280.803 88.8217 279.231 88.7536 277.658C88.5746 273.534 88.0029 269.467 87.1451 265.432C86.0155 260.118 84.6546 254.867 82.8105 249.751C82.6133 249.203 82.3113 248.693 82.0971 248.247C81.8302 248.229 81.7094 248.182 81.6633 248.222C77.0843 252.167 72.4965 256.101 67.9411 260.073C64.0452 263.47 60.1862 266.911 56.3145 270.335C56.2552 270.388 56.23 270.487 56.2042 270.568C56.1789 270.648 56.174 270.735 56.1388 270.944C56.5891 271.477 57.074 272.092 57.6007 272.668C60.1423 275.45 62.6987 278.216 65.243 280.996C71.0428 287.331 76.8415 293.669 82.6304 300.015C82.9599 300.376 83.1982 300.821 83.5392 301.313C81.6468 302.955 79.868 304.508 78.0788 306.048C76.3517 307.536 74.5652 308.957 72.8952 310.505C71.1806 312.094 69.213 313.417 67.527 315.349C71.676 319.426 75.8706 323.236 80.5117 327.572ZM204.899 313.215C204.216 312.664 203.824 312.328 203.413 312.02C198.011 307.962 192.601 303.914 187.21 299.843C186.536 299.333 185.681 298.972 185.37 298.047C185.524 297.818 185.637 297.57 185.818 297.391C189.498 293.75 193.188 290.119 196.871 286.482C201.867 281.55 206.862 276.619 211.844 271.674C212.186 271.333 212.411 270.876 212.673 270.498C208.792 266.685 182.377 243.787 180.536 242.635C180.378 242.821 180.131 242.988 180.066 243.208C179.422 245.391 178.75 247.569 178.198 249.777C177.007 254.538 176.068 259.345 175.35 264.21C174.044 273.051 173.9 281.846 175.653 290.633C175.872 291.731 175.941 292.885 176.557 293.965C177.174 293.93 177.764 293.897 178.408 293.86C178.596 294.17 178.839 294.443 178.94 294.76C181.364 302.357 183.774 309.957 186.178 317.56C186.329 318.038 186.412 318.538 186.554 319.144C185.726 319.215 185.086 319.271 184.332 319.336C185.06 322.071 185.728 324.602 186.412 327.129C186.572 327.72 186.778 328.3 186.974 328.88C187.056 329.12 187.167 329.349 187.332 329.748C193.33 324.103 199.002 318.765 204.899 313.215ZM14.958 266.632C16.086 269.874 17.1052 272.854 18.1591 275.823C19.8 280.444 21.4712 285.055 23.117 289.675C24.8217 294.461 26.5065 299.255 28.2079 304.043C29.7335 308.336 31.2816 312.62 32.7984 316.916C34.4322 321.541 36.0319 326.179 37.6712 330.802C37.8931 331.427 38.2599 332.001 38.6054 332.69C39.0623 332.414 39.3824 332.276 39.6345 332.06C51.4774 321.886 63.3148 311.707 75.1468 301.521C75.3999 301.302 75.5817 301.002 75.9068 300.606C74.1841 298.569 72.3987 296.653 70.6199 294.731C68.7742 292.736 66.9322 290.736 65.0975 288.73C63.322 286.789 61.5734 284.822 59.7842 282.893C57.9357 280.901 56.0487 278.944 54.1865 276.965C52.383 275.049 50.5828 273.131 48.7936 271.202C46.9445 269.208 45.0916 267.219 43.275 265.196C41.5544 263.28 39.6532 261.519 38.1649 259.365C38.6108 259.464 38.9601 259.676 39.2814 259.924C42.41 262.331 45.531 264.746 48.6607 267.151C49.205 267.569 49.686 268.141 50.6394 268.023C51.0859 267.674 51.6554 267.269 52.1798 266.812C55.8175 263.644 59.4465 260.466 63.0776 257.29C68.426 252.613 73.7436 247.9 79.1464 243.286C80.3469 242.262 80.6154 241.322 80.0948 239.868C79.0904 237.066 78.232 234.211 77.3226 231.375C76.6284 229.212 75.948 227.044 75.2714 224.875C75.2572 224.829 75.3653 224.746 75.4483 224.64C75.6284 224.832 75.8453 224.992 75.9711 225.206C78.7268 229.889 81.4804 234.574 84.2147 239.27C84.7414 240.174 85.2818 241.089 85.6557 242.061C88.3978 249.183 90.6307 256.452 92.2222 263.93C94.2294 273.362 94.7687 282.846 93.7742 292.429C93.7231 292.919 93.8247 293.425 93.856 293.933C95.7858 294.578 97.5563 295.308 99.6146 295.275C110.467 276.799 121.264 258.357 131.966 240.001C130.387 236.939 100.771 188.059 99.4707 186.957C99.2489 187.065 98.9699 187.131 98.7903 187.301C70.8912 213.693 42.9998 240.092 14.958 266.632ZM171.121 295.356C170.943 294.399 170.793 293.546 170.627 292.695C169.067 284.728 168.621 276.705 169.499 268.627C170.057 263.486 170.734 258.365 171.923 253.314C173.41 246.995 175.033 240.729 177.442 234.68C179.193 230.285 180.803 225.835 182.495 221.417C182.657 220.991 182.955 220.618 183.191 220.221C182.657 225.492 181.727 230.651 181.358 235.806C181.713 236.181 181.933 236.455 182.193 236.681C194.095 247.059 206 257.433 217.908 267.806C217.971 267.861 218.062 267.891 218.146 267.914C218.229 267.938 218.318 267.938 218.617 267.975C219.148 267.686 219.841 267.332 220.511 266.937C221.267 266.492 222.004 266.014 222.744 265.542C223.409 265.118 224.061 264.672 224.73 264.252C225.473 263.785 226.22 263.324 226.98 262.886C227.598 262.531 228.085 261.854 229.262 261.912C226.075 265.12 223.135 268.113 220.156 271.068C217.23 273.971 214.26 276.83 211.318 279.718C208.314 282.668 205.289 285.598 202.332 288.594C199.386 291.58 196.233 294.367 193.352 297.611C193.897 298.091 194.32 298.516 194.795 298.873C206.433 307.628 218.076 316.377 229.726 325.117C230.116 325.41 230.587 325.595 231.171 325.912C233.357 320.934 235.053 315.966 236.946 311.077C238.846 306.173 240.711 301.257 242.59 296.346C244.501 291.354 246.476 286.386 248.301 281.363C250.09 276.441 252.211 271.636 253.767 266.599C253.322 266.135 252.976 265.744 252.599 265.386C245.089 258.265 237.579 251.143 230.061 244.03C219.927 234.445 209.784 224.872 199.648 215.29C189.513 205.708 179.383 196.119 169.242 186.544C168.89 186.212 168.434 185.99 167.923 185.647C167.378 186.524 166.901 187.252 166.463 188.003C164.873 190.729 163.307 193.469 161.712 196.192C156.66 204.817 151.591 213.431 146.548 222.061C143.851 226.677 141.217 231.33 138.516 235.944C136.081 240.104 133.577 244.224 131.135 248.381C125.498 257.983 119.881 267.598 114.253 277.206C110.84 283.032 107.415 288.849 104.018 294.684C103.689 295.249 103.101 295.801 103.624 296.82C108.338 298.184 113.219 299.589 118.094 301.014C119.028 301.287 119.789 301.029 120.561 300.504C122.812 298.977 125.085 297.483 127.36 295.991C128.011 295.565 128.697 295.19 129.364 294.794C130.819 295.429 132.175 296.043 133.547 296.618C135.891 297.599 135.248 297.623 137.734 296.585C138.616 296.217 139.501 295.856 140.481 295.452C143.072 297.527 145.595 299.547 148.01 301.481C150.816 301.075 168.859 296.318 171.121 295.356ZM108.617 42.7386C107.917 42.8701 107.654 42.8844 107.416 42.9693C100.011 45.6159 93.1212 49.2195 86.9062 54.0593C71.4448 66.0997 62.2055 81.8616 59.2416 101.153C57.4014 113.132 58.6699 124.938 62.8618 136.354C67.0838 147.851 73.8354 157.647 82.989 165.798C89.3434 171.456 96.5036 175.811 104.38 178.995C109.031 180.876 113.85 182.264 118.795 183.04C124.783 183.98 130.812 184.295 136.899 183.814C147.583 182.969 157.536 179.879 166.841 174.639C175.759 169.617 183.24 162.948 189.362 154.763C195.378 146.72 199.528 137.796 201.814 128.021C204.161 117.982 204.351 107.898 202.388 97.7628C200.994 90.5605 198.56 83.7386 195.094 77.2878C190.944 69.5619 185.517 62.8381 178.937 57.0374C171.669 50.6288 163.365 46.0232 154.273 42.7397C152.061 41.9405 150.065 42.0117 147.971 43.1162C145.492 44.4242 142.911 45.5424 140.367 46.7259C140.006 46.8936 139.611 47.2302 139.126 46.7051C139.881 44.3195 141.772 42.5297 143 40.2828C140.398 39.3405 137.824 39.4956 135.337 39.0949C134.032 38.8844 132.946 39.2424 131.994 40.194C129.454 42.7347 126.876 45.2371 124.305 47.7477C124.021 48.0256 123.808 48.4937 123.139 48.2268C123.824 45.0891 125.627 42.3856 126.833 39.4534C126.519 39.3307 126.358 39.209 126.205 39.2166C122.517 39.4129 118.901 40.1381 115.266 40.7208C113.783 40.9581 112.675 41.7184 111.788 42.88C110.246 44.9 108.703 46.9189 107.148 48.929C106.966 49.1647 106.71 49.3434 106.488 49.5484C106.4 49.4941 106.312 49.4399 106.225 49.3856C106.979 47.2889 107.734 45.1922 108.617 42.7386ZM133.743 331.34C133.833 331.67 133.952 331.994 134.009 332.329C134.844 337.256 135.69 342.18 136.493 347.113C137.872 355.587 139.21 364.069 140.586 372.545C141.808 380.069 143.072 387.586 144.29 395.11C145.888 404.976 147.447 414.849 149.046 424.715C150.028 430.77 151.069 436.814 152.055 442.869C152.97 448.489 153.836 454.118 154.741 459.74C156.119 468.306 157.502 476.871 158.912 485.432C159.078 486.439 159.077 487.53 159.841 488.418C160.289 488.418 160.73 488.482 161.148 488.409C180.075 485.084 199.001 481.748 217.923 478.402C218.165 478.36 218.378 478.166 218.678 478.002C218.631 477.664 218.611 477.323 218.534 476.995C217.482 472.563 216.426 468.132 215.366 463.702C213.917 457.649 212.467 451.595 211.011 445.544C210.232 442.306 209.448 439.069 208.649 435.837C207.724 432.096 206.766 428.363 205.849 424.62C204.117 417.557 202.421 410.484 200.678 403.423C199.124 397.127 197.533 390.839 195.946 384.551C194.809 380.049 193.645 375.554 192.507 371.053C191.412 366.72 190.371 362.375 189.241 358.051C187.623 351.86 185.956 345.682 184.292 339.503C182.674 333.496 181.033 327.495 179.408 321.489C179.134 320.477 178.836 319.48 178.208 318.554C177.498 318.469 176.81 318.368 176.118 318.31C173.581 318.097 171.041 317.927 168.507 317.687C162.915 317.159 157.327 316.592 151.736 316.062C151.261 316.017 150.771 316.131 150.16 316.183C150.545 318.906 151.775 321.164 152.537 323.564C153.279 325.901 154.147 328.198 154.974 330.508C155.83 332.9 156.709 335.285 157.568 337.676C158.428 340.069 159.281 342.464 160.126 344.861C160.971 347.258 161.796 349.663 162.643 352.059C163.461 354.372 164.29 356.681 165.124 358.989C165.987 361.379 166.944 363.738 167.708 366.158C168.464 368.555 169.625 370.831 170.126 373.497C163.433 374.824 156.764 375.205 150.201 376.294C149.787 376.362 149.353 376.302 148.767 376.302C147.855 372.46 147.187 368.681 146.545 364.893C145.914 361.177 145.17 357.481 144.478 353.775C143.769 349.985 143.065 346.194 142.356 342.404C141.663 338.701 140.972 334.998 140.268 331.297C139.55 327.526 138.816 323.757 138.07 319.887C137.009 320.107 136.099 320.295 135.26 320.469C134.917 320.012 134.671 319.684 134.366 319.278C133.201 319.973 132.164 320.624 131.095 321.219C130.247 321.692 129.883 322.394 129.749 323.333C129.401 325.763 129.045 328.194 128.591 330.606C126.937 339.386 125.225 348.154 123.567 356.933C122.64 361.842 121.784 366.765 120.879 371.679C120.562 373.403 120.216 375.124 119.835 376.835C119.729 377.314 119.45 377.754 119.222 378.279C118.332 378.182 117.551 378.116 116.777 378.01C114.864 377.748 112.955 377.452 111.041 377.2C107.646 376.753 104.245 376.349 100.854 375.879C99.9304 375.751 98.8979 375.847 98.0879 374.931C99.8233 370.114 101.585 365.266 103.315 360.407C105.05 355.537 106.747 350.653 108.477 345.781C110.206 340.908 111.981 336.052 113.688 331.171C115.384 326.322 117.308 321.547 118.818 316.385C115.064 316.499 111.661 317.341 108.214 317.808C104.736 318.279 101.243 318.661 97.787 319.259C94.347 319.855 90.824 319.943 87.5015 320.787C84.0253 331.649 59.5728 473.007 58.9473 481.057C59.6563 481.711 60.58 481.623 61.4328 481.713C65.2743 482.119 69.1223 482.462 72.9638 482.871C81.5183 483.782 90.0678 484.74 98.6239 485.638C104.734 486.279 110.851 486.86 116.967 487.45C117.457 487.498 117.961 487.41 118.632 487.376C123.551 435.274 128.329 383.299 133.743 331.34ZM225.219 482.325C219.743 483.716 214.505 484.274 209.356 485.296C204.227 486.313 199.018 486.935 193.9 488.16C193.786 489.554 194.366 490.531 194.726 491.405C195.572 492.079 196.393 491.92 197.163 491.907C202.176 491.826 207.178 492.034 212.148 492.66C217.286 493.306 222.429 493.971 227.521 494.898C230.521 495.445 233.535 496.176 236.225 497.793C237.678 498.666 238.931 499.724 239.916 501.106C240.592 502.055 241.007 503.106 241.209 504.241C241.488 505.809 241.115 507.191 239.998 508.36C238.43 510 236.439 510.903 234.32 511.531C230.863 512.557 227.332 513.216 223.733 513.523C215.833 514.196 207.947 514.119 200.07 513.194C193.878 512.468 187.722 511.54 181.726 509.771C178.773 508.899 175.883 507.847 173.327 506.08C172.54 505.535 171.784 504.905 171.148 504.194C168.954 501.739 169.255 498.099 171.766 495.995C172.861 495.078 174.097 494.447 175.489 494.109C176.675 493.821 177.853 493.502 179.032 493.196C179.088 492.837 179.191 492.576 179.152 492.338C179.071 491.836 178.915 491.346 178.75 490.694C176.079 491.159 173.505 491.604 170.933 492.058C168.34 492.515 165.749 492.986 163.156 493.443C160.583 493.897 158.018 494.409 155.28 494.592C154.464 492.068 154.418 489.513 153.959 487.039C153.48 484.456 153.063 481.862 152.62 479.272C152.191 476.768 151.739 474.268 151.341 471.759C150.943 469.249 150.627 466.725 150.224 464.216C149.819 461.707 149.34 459.21 148.914 456.705C148.473 454.112 148.042 451.518 147.635 448.92C147.241 446.408 146.912 443.886 146.503 441.376C146.095 438.867 145.603 436.37 145.187 433.862C144.772 431.353 144.415 428.836 144.016 426.324C143.605 423.73 143.189 421.136 142.749 418.546C142.324 416.042 141.838 413.547 141.431 411.04C141.023 408.531 140.699 406.008 140.306 403.497C139.912 400.989 139.485 398.485 139.059 395.982C138.619 393.39 138.139 390.805 137.721 388.21C137.316 385.7 137.002 383.176 136.587 380.669C136.176 378.19 135.69 375.725 135.235 373.242C134.432 373.342 134.572 373.884 134.538 374.248C133.719 382.889 132.921 391.531 132.111 400.173C131.325 408.553 130.522 416.931 129.741 425.311C129.195 431.158 128.682 437.008 128.138 442.855C127.708 447.481 127.245 452.104 126.81 456.729C126.046 464.844 125.3 472.961 124.531 481.075C124.184 484.739 123.805 488.4 123.426 492.061C123.392 492.394 123.258 492.716 123.153 493.109C120.793 493.544 118.58 492.802 116.335 492.633C114.06 492.463 111.786 492.25 109.515 492.024C107.244 491.798 104.977 491.532 102.708 491.288C100.455 491.045 98.201 490.808 95.7688 490.549C95.6271 491.443 95.5101 492.178 95.4063 492.83C96.1993 493.658 97.1373 493.577 97.9611 493.801C99.574 494.241 101.158 494.702 102.513 495.772C105.324 497.995 105.759 501.328 103.497 504.104C102.075 505.851 100.129 506.886 98.1236 507.796C93.6149 509.842 88.83 510.936 83.9868 511.821C77.2408 513.052 70.4398 513.778 63.585 513.963C57.7808 514.12 51.9942 513.774 46.2498 512.975C44.0899 512.675 41.9476 512.084 39.8707 511.403C38.389 510.917 36.9397 510.194 35.6343 509.338C32.6485 507.378 32.8127 504.468 33.9819 502.17C34.7441 500.672 35.8134 499.353 37.2731 498.476C38.5455 497.712 39.8536 496.907 41.2551 496.478C43.8494 495.682 46.4953 494.97 49.1703 494.541C54.1953 493.734 59.2438 493.031 64.3061 492.518C68.1426 492.13 72.0154 492.1 75.8722 491.921C76.4862 491.892 77.1018 491.925 77.7164 491.91C79.8559 491.857 80.0223 491.676 80.2475 489.087C75.6926 488.252 71.0379 488.187 66.4567 487.544C61.9595 486.914 57.3975 486.779 52.7652 485.939C53.0552 481.211 54.2194 476.796 54.8713 472.308C55.5265 467.798 56.3222 463.308 57.0592 458.809C57.7957 454.312 58.5167 449.812 59.279 445.319C60.0407 440.828 60.8469 436.345 61.63 431.857C62.4126 427.369 63.1913 422.879 63.9711 418.389C64.7509 413.898 65.5319 409.406 66.31 404.914C67.0877 400.421 67.8576 395.927 68.6391 391.435C69.4205 386.945 70.2042 382.455 71.0011 377.967C71.7979 373.481 72.6008 368.997 73.4235 364.516C74.2428 360.054 75.0908 355.598 75.9974 350.755C75.3544 351.176 74.9677 351.334 74.7102 351.611C70.5831 356.049 65.3792 358.694 59.7084 360.501C56.7237 361.453 53.812 360.95 51.0353 359.553C49.3422 358.701 48.6684 357.271 48.709 355.465C48.7425 353.949 49.2319 352.547 49.9288 351.205C51.8618 347.483 54.6225 344.458 57.8033 341.775C61.3796 338.759 65.3556 336.365 69.493 334.217C69.7934 334.061 70.0829 333.885 70.4321 333.687C70.3437 333.381 70.3481 333.078 70.1987 332.928C66.6807 329.383 63.1462 325.855 59.5239 322.234C57.2921 323.628 55.5781 325.507 53.6318 327.089C51.6581 328.695 49.7585 330.391 47.8298 332.051C45.9676 333.653 44.1125 335.265 42.2486 336.865C40.3254 338.518 38.3956 340.163 36.2972 341.958C35.9682 341.381 35.6651 340.993 35.508 340.553C33.034 333.621 30.5765 326.683 28.12 319.744C25.9854 313.713 23.865 307.677 21.7243 301.648C19.3492 294.959 16.9476 288.279 14.5785 281.587C12.6789 276.222 10.8106 270.846 9 265.679C9.17354 264.566 9.87263 264.126 10.4366 263.593C20.4387 254.127 30.4469 244.669 40.4467 235.202C53.1277 223.197 65.801 211.185 78.4808 199.179C83.5134 194.414 88.5614 189.664 93.5831 184.886C94.2014 184.299 95.001 183.827 95.2525 182.79C93.4469 181.748 91.6099 180.735 89.8185 179.647C78.2628 172.626 69.0532 163.295 62.2319 151.623C56.8983 142.497 53.5797 132.701 52.1287 122.223C51.4511 117.331 51.1276 112.436 51.4379 107.537C51.7866 102.027 52.5011 96.5371 54.0585 91.2084C54.8202 88.603 55.6209 86.0014 56.5584 83.4552C60.6876 72.2392 67.1843 62.5613 75.7536 54.2484C83.2828 46.9435 91.9833 41.4301 101.692 37.5173C104.942 36.2077 108.262 35.0034 111.726 34.367C113.407 34.0578 114.57 33.2433 115.587 31.9211C118.98 27.5106 122.995 23.7206 127.539 20.5138C133.681 16.1789 140.351 12.9524 147.624 10.9297C151.715 9.79169 155.848 9.11795 160.074 9.00613C161.559 8.96667 163.053 9.12509 164.537 9.25281C165.039 9.29611 165.525 9.52252 165.961 9.64914C166.168 10.4703 165.656 10.7186 165.158 10.8716C162.979 11.5409 160.801 12.2173 158.599 12.8071C145.583 16.2924 133.984 22.4608 123.702 31.1339C123.464 31.3345 123.086 31.5143 123.284 32.159C123.699 32.1798 124.183 32.2423 124.664 32.2226C126.856 32.1321 129.047 31.9534 131.239 31.9391C132.465 31.9309 133.432 31.5845 134.302 30.7299C137.079 27.9995 140.311 25.8924 143.729 24.0664C148.33 21.609 153.157 19.7814 158.374 19.185C159.848 19.0167 161.352 19.0458 162.84 19.0798C163.308 19.0907 163.769 19.4142 164.466 19.6849C163.974 20.2041 163.697 20.6651 163.29 20.8936C162.144 21.5367 160.968 22.1369 159.762 22.6598C155.573 24.4764 151.437 26.3994 147.505 28.7253C145.92 29.6626 144.393 30.697 142.853 31.7078C142.654 31.8377 142.539 32.0938 142.271 32.438C142.656 32.5948 142.931 32.757 143.227 32.8206C145.63 33.3337 148.057 33.7487 150.432 34.361C151.696 34.686 152.826 34.6147 154.02 34.1801C157.138 33.0453 160.372 32.9462 163.64 33.1945C164.806 33.2833 165.876 33.6231 166.854 34.2552C167.454 34.6438 167.527 35.4124 166.92 35.7686C166.173 36.2066 165.343 36.501 164.557 36.8754C163.801 37.2355 162.83 37.1698 162.087 38.1121C173.112 42.9447 182.655 49.6191 190.566 58.5158C198.557 67.5014 204.314 77.7356 207.633 89.3106C210.921 100.778 211.692 112.394 209.795 124.191C207.884 136.075 203.526 146.971 196.658 156.842C189.857 166.617 181.278 174.531 170.759 180.634C185.829 194.894 200.659 208.942 215.507 222.971C230.357 237.003 245.172 251.071 260 265.062C259.881 265.602 259.85 265.953 259.728 266.271C251.134 288.787 242.534 311.301 233.923 333.81C233.87 333.949 233.667 334.031 233.42 334.233C232.598 334.109 231.965 333.474 231.289 332.967C226.024 329.019 220.774 325.049 215.515 321.093C214.823 320.572 214.102 320.089 213.443 319.623C211.782 320.778 201.383 331.103 198.919 334.011C199.199 334.966 200.162 335.114 200.874 335.544C203.351 337.038 205.921 338.393 208.305 340.021C212.17 342.661 215.559 345.835 218.163 349.771C219.185 351.315 220.048 352.94 220.478 354.752C221.16 357.626 220.065 359.802 217.274 360.807C214.751 361.716 212.123 361.956 209.516 361.149C203.544 359.303 198.216 356.377 193.972 351.685C193.808 351.504 193.568 351.39 193.333 351.223C193.237 352.867 194.521 358.155 196.612 365.666C197.953 370.479 199.08 375.35 200.294 380.198C201.508 385.044 202.709 389.893 203.92 394.74C205.13 399.585 206.353 404.427 207.558 409.273C208.763 414.12 209.955 418.971 211.148 423.821C212.342 428.673 213.537 433.525 214.716 438.38C215.896 443.233 217.069 448.088 218.223 452.946C219.377 457.803 220.436 462.685 221.663 467.523C222.888 472.357 223.969 477.219 225.219 482.325Z" fill="black" fill-opacity="0.25"/>
<path d="M148.187 112.34C147.527 111.591 146.897 110.877 146.337 110.241C146.331 109.447 146.877 109.252 147.303 108.99C152.298 105.912 157.285 102.82 162.304 99.7813C166.499 97.2422 170.732 94.7667 174.953 92.272C175.243 92.1004 175.577 92.0039 175.939 91.8521C176.832 92.5548 177.189 93.5426 177.877 94.4855C174.712 96.6792 171.451 98.3676 168.331 100.281C165.201 102.199 162.022 104.038 158.642 106.044C159.133 106.384 159.416 106.685 159.762 106.804C165.99 108.961 166.273 117.342 163.299 120.947C161.075 123.644 158.173 124.507 154.824 123.895C151.625 123.31 149.405 121.464 148.516 118.296C148.167 117.053 148.118 115.717 148.025 114.417C147.976 113.732 148.127 113.033 148.187 112.34Z" fill="black" fill-opacity="0.25"/>
<path d="M101.541 106.597C95.6673 103.397 90.1437 100.388 84.574 97.3531C84.7657 96.1187 85.4104 95.3337 86.0903 94.3991C88.8126 95.5442 91.2569 97.0653 93.7842 98.4204C96.4098 99.8281 99.0244 101.257 101.638 102.687C104.175 104.074 106.721 105.447 109.235 106.874C111.721 108.286 114.361 109.458 116.594 111.29C115.222 113.252 115.222 113.252 113.634 113.935C113.56 114.954 113.574 116.013 113.393 117.038C112.81 120.328 110.991 122.703 107.748 123.662C104.304 124.681 101.035 124.133 98.5911 121.346C94.8891 117.125 95.9897 110.863 99.6615 107.92C100.129 107.545 100.642 107.227 101.541 106.597Z" fill="black" fill-opacity="0.25"/>
<path d="M103.947 156.774C103.35 155.892 103.469 155.027 103.495 154.268C103.629 154.096 103.676 154.02 103.739 153.959C103.798 153.899 103.864 153.827 103.941 153.806C106.308 153.155 108.664 152.465 111.045 151.872C126.954 147.909 142.868 143.967 158.783 140.029C158.932 139.992 159.115 140.089 159.457 140.161C159.728 141.476 158.916 142.6 158.725 143.891C158.076 144.113 157.519 144.357 156.936 144.494C139.771 148.535 122.604 152.568 105.435 156.591C104.94 156.708 104.419 156.719 103.947 156.774Z" fill="black" fill-opacity="0.25"/>
</g>
<defs>
<filter id="filter0_f_37_46" x="0" y="0" width="269" height="523" filterUnits="userSpaceOnUse" color-interpolation-filters="sRGB">
<feFlood flood-opacity="0" result="BackgroundImageFix"/>
<feBlend mode="normal" in="SourceGraphic" in2="BackgroundImageFix" result="shape"/>
<feGaussianBlur stdDeviation="4.5" result="effect1_foregroundBlur_37_46"/>
</filter>
</defs>
</svg>
