<svg width="251" height="505" viewBox="0 0 251 505" fill="none" xmlns="http://www.w3.org/2000/svg">
<path d="M124.743 322.34C119.329 374.3 114.551 426.274 109.632 478.376C108.961 478.41 108.457 478.497 107.967 478.45C101.851 477.86 95.7339 477.279 89.6238 476.638C81.0677 475.74 72.5182 474.782 63.9637 473.871C60.1228 473.462 56.2742 473.119 52.4328 472.714C51.5799 472.624 50.6562 472.711 49.9472 472.057C50.5727 464.007 75.0257 322.65 78.5014 311.787C81.8239 310.943 85.3469 310.854 88.7869 310.259C92.2428 309.662 95.7361 309.278 99.2135 308.808C102.661 308.341 106.064 307.499 109.817 307.385C108.308 312.548 106.384 317.322 104.688 322.171C102.981 327.052 101.206 331.908 99.4766 336.781C97.7472 341.653 96.0508 346.537 94.3154 351.407C92.5844 356.266 90.8232 361.114 89.0884 365.931C89.8984 366.847 90.9303 366.751 91.854 366.879C95.2452 367.35 98.6462 367.753 102.041 368.2C103.956 368.452 105.863 368.748 107.777 369.01C108.552 369.116 109.331 369.182 110.222 369.279C110.45 368.754 110.729 368.314 110.835 367.835C111.216 366.124 111.562 364.404 111.879 362.678C112.784 357.765 113.64 352.842 114.567 347.933C116.225 339.155 117.937 330.386 119.591 321.606C120.045 319.195 120.401 316.763 120.749 314.334C120.883 313.394 121.247 312.692 122.095 312.219C123.163 311.624 124.201 310.973 125.366 310.278C125.671 310.685 125.916 311.012 126.26 311.469C127.099 311.295 128.009 311.107 129.07 310.887C129.816 314.757 130.55 318.525 131.268 322.297C131.972 325.997 132.663 329.701 133.356 333.404C134.065 337.194 134.769 340.985 135.478 344.775C136.17 348.481 136.914 352.177 137.545 355.893C138.188 359.682 138.854 363.46 139.767 367.302C140.353 367.302 140.787 367.362 141.201 367.293C147.764 366.205 154.433 365.824 161.126 364.497C160.625 361.83 159.464 359.556 158.708 357.158C157.944 354.738 156.987 352.378 156.124 349.989C155.29 347.682 154.461 345.372 153.643 343.059C152.796 340.663 151.971 338.258 151.126 335.861C150.281 333.463 149.428 331.069 148.568 328.676C147.709 326.285 146.83 323.9 145.974 321.507C145.147 319.198 144.28 316.901 143.537 314.564C142.775 312.165 141.545 309.907 141.16 307.183C141.771 307.131 142.261 307.017 142.735 307.062C148.327 307.592 153.915 308.159 159.507 308.688C162.041 308.927 164.581 309.097 167.118 309.31C167.81 309.368 168.498 309.47 169.208 309.554C169.836 310.481 170.134 311.477 170.408 312.49C172.033 318.495 173.674 324.496 175.292 330.503C176.955 336.682 178.623 342.861 180.241 349.052C181.371 353.374 182.412 357.721 183.507 362.053C184.645 366.554 185.809 371.049 186.945 375.551C188.533 381.839 190.124 388.126 191.678 394.423C193.421 401.484 195.117 408.557 196.849 415.62C197.766 419.363 198.724 423.096 199.649 426.837C200.448 430.07 201.232 433.306 202.011 436.544C203.467 442.595 204.917 448.649 206.366 454.702C207.426 459.132 208.482 463.563 209.534 467.995C209.611 468.322 209.631 468.665 209.678 469.003C209.378 469.166 209.164 469.36 208.923 469.402C190.001 472.748 171.076 476.084 152.148 479.409C151.73 479.483 151.289 479.418 150.841 479.418C150.077 478.53 150.078 477.439 149.912 476.431C148.503 467.871 147.119 459.306 145.741 450.74C144.836 445.118 143.969 439.49 143.055 433.869C142.069 427.815 141.028 421.77 140.046 415.715C138.447 405.849 136.888 395.977 135.29 386.11C134.072 378.586 132.807 371.069 131.586 363.545C130.21 355.069 128.872 346.588 127.493 338.112C126.69 333.181 125.843 328.256 125.009 323.329C124.952 322.994 124.833 322.67 124.743 322.34Z" fill="white"/>
<path d="M94.9473 147.774C95.419 147.719 95.9396 147.708 96.4355 147.591C113.604 143.568 130.771 139.536 147.936 135.494C148.519 135.357 149.077 135.113 149.725 134.891C149.916 133.6 150.728 132.476 150.457 131.161C150.115 131.089 149.932 130.992 149.783 131.029C133.868 134.967 117.954 138.909 102.045 142.872C99.6641 143.465 97.3076 144.155 94.9407 144.806C94.8644 144.827 94.7979 144.899 94.7386 144.959C94.6765 145.02 94.6288 145.096 94.4948 145.268C94.4695 146.027 94.3498 146.892 94.9473 147.774ZM92.5408 97.5976C91.6424 98.2269 91.1294 98.5454 90.6615 98.9198C86.9898 101.863 85.8887 108.125 89.5912 112.347C92.035 115.133 95.3042 115.682 98.7481 114.663C101.991 113.703 103.81 111.329 104.393 108.038C104.574 107.013 104.56 105.954 104.634 104.935C106.222 104.251 106.222 104.251 107.594 102.29C105.361 100.458 102.721 99.286 100.235 97.8745C97.7206 96.447 95.1752 95.0739 92.6386 93.6865C90.0245 92.2574 87.4099 90.8278 84.7843 89.4201C82.257 88.0656 79.8121 86.5444 77.0904 85.3993C76.4105 86.3334 75.7658 87.1189 75.5741 88.3534C81.1438 91.3875 86.6674 94.3974 92.5408 97.5976ZM139.187 103.34C139.127 104.033 138.976 104.731 139.025 105.417C139.118 106.717 139.168 108.053 139.517 109.295C140.406 112.464 142.624 114.31 145.824 114.895C149.173 115.507 152.075 114.644 154.299 111.947C157.273 108.342 156.99 99.9608 150.762 97.8043C150.416 97.6848 150.133 97.3844 149.642 97.044C153.022 95.0377 156.201 93.1992 159.331 91.2806C162.451 89.3675 165.712 87.6791 168.877 85.4854C168.189 84.5425 167.831 83.5547 166.939 82.852C166.578 83.0038 166.243 83.1003 165.953 83.2719C161.732 85.7666 157.499 88.2421 153.305 90.7812C148.285 93.8197 143.298 96.9119 138.302 99.9904C137.877 100.252 137.331 100.446 137.337 101.241C137.897 101.877 138.526 102.591 139.187 103.34ZM99.6164 33.7386C98.7338 36.1922 97.9793 38.2889 97.2247 40.3857C97.3126 40.4399 97.4004 40.4942 97.4883 40.5485C97.7096 40.3435 97.9661 40.1648 98.1479 39.929C99.7026 37.9189 101.246 35.9 102.788 33.8801C103.675 32.7185 104.784 31.9582 106.265 31.7208C109.901 31.1381 113.516 30.4129 117.205 30.2167C117.358 30.209 117.519 30.3307 117.834 30.4535C116.628 33.3856 114.824 36.0892 114.139 39.2269C114.809 39.4933 115.021 39.0257 115.305 38.7478C117.875 36.2372 120.454 33.7348 122.994 31.194C123.945 30.2424 125.032 29.8845 126.336 30.095C128.824 30.4957 131.398 30.3406 134.001 31.2829C132.772 33.5298 130.881 35.3195 130.126 37.7051C130.612 38.2303 131.007 37.8937 131.367 37.726C133.912 36.5425 136.492 35.4242 138.972 34.1163C141.065 33.0118 143.061 32.9405 145.273 33.7397C154.364 37.0232 162.67 41.6289 169.937 48.0375C176.516 53.8382 181.945 60.562 186.094 68.2873C189.559 74.7386 191.994 81.5605 193.388 88.7623C195.35 98.8979 195.161 108.982 192.813 119.022C190.528 128.796 186.378 137.72 180.362 145.763C174.24 153.948 166.759 160.617 157.841 165.639C148.536 170.879 138.582 173.969 127.899 174.814C121.812 175.295 115.783 174.98 109.795 174.04C104.851 173.264 100.031 171.875 95.38 169.995C87.5038 166.811 80.3431 162.456 73.9892 156.798C64.8356 148.647 58.0841 138.851 53.862 127.354C49.6702 115.938 48.4016 104.132 50.2419 92.1533C53.2052 72.8617 62.4445 57.0998 77.9059 45.0593C84.1214 40.2196 91.0103 36.6154 98.4159 33.9694C98.6537 33.8844 98.9167 33.8702 99.6164 33.7386Z" fill="white"/>
<path d="M162.121 286.356C159.859 287.318 141.816 292.076 139.01 292.48C136.595 290.547 134.072 288.527 131.481 286.453C130.5 286.857 129.616 287.217 128.734 287.585C126.248 288.623 126.891 288.599 124.547 287.618C123.174 287.043 121.819 286.43 120.364 285.794C119.697 286.191 119.011 286.565 118.36 286.991C116.086 288.483 113.812 289.977 111.562 291.504C110.789 292.029 110.028 292.287 109.094 292.014C104.219 290.589 99.3377 289.184 94.6236 287.82C94.1013 286.801 94.6894 286.249 95.0184 285.684C98.4145 279.849 101.84 274.032 105.253 268.206C110.881 258.598 116.498 248.983 122.136 239.381C124.577 235.224 127.081 231.104 129.516 226.944C132.217 222.33 134.851 217.677 137.548 213.061C142.591 204.431 147.66 195.817 152.712 187.193C154.307 184.469 155.873 181.729 157.463 179.002C157.901 178.252 158.378 177.525 158.924 176.646C159.435 176.99 159.89 177.212 160.241 177.544C170.383 187.12 180.513 196.708 190.648 206.289C200.784 215.872 210.927 225.446 221.061 235.03C228.579 242.142 236.089 249.265 243.599 256.386C243.976 256.744 244.322 257.135 244.767 257.599C243.21 262.636 241.09 267.441 239.301 272.364C237.475 277.386 235.501 282.354 233.591 287.346C231.711 292.257 229.846 297.174 227.947 302.077C226.053 306.965 224.357 311.934 222.171 316.912C221.587 316.595 221.116 316.41 220.726 316.117C209.076 307.377 197.433 298.628 185.794 289.873C185.32 289.516 184.897 289.091 184.352 288.611C187.233 285.367 190.386 282.58 193.332 279.594C196.289 276.598 199.313 273.668 202.318 270.718C205.26 267.83 208.23 264.971 211.156 262.068C214.135 259.113 217.075 256.12 220.262 252.913C219.085 252.854 218.598 253.531 217.98 253.887C217.22 254.325 216.473 254.786 215.73 255.252C215.061 255.671 214.409 256.118 213.744 256.542C213.004 257.014 212.267 257.492 211.511 257.937C210.841 258.332 210.148 258.686 209.617 258.975C209.319 258.939 209.229 258.938 209.146 258.914C209.062 258.891 208.971 258.861 208.908 258.806C197 248.433 185.095 238.059 173.193 227.681C172.933 227.454 172.713 227.181 172.358 226.806C172.727 221.651 173.657 216.492 174.191 211.221C173.955 211.618 173.657 211.991 173.495 212.417C171.803 216.835 170.193 221.286 168.442 225.68C166.034 231.729 164.41 237.995 162.923 244.315C161.734 249.365 161.057 254.486 160.498 259.628C159.621 267.705 160.067 275.728 161.627 283.695C161.793 284.546 161.943 285.4 162.121 286.356Z" fill="white"/>
<path d="M5.95782 257.632C33.9997 231.092 61.8916 204.693 89.7902 178.301C89.9703 178.131 90.2493 178.066 90.4706 177.957C91.7705 179.059 121.387 227.939 122.966 231.001C112.264 249.357 101.467 267.799 90.6145 286.274C88.5562 286.308 86.7856 285.578 84.8558 284.933C84.8251 284.426 84.7229 283.92 84.774 283.429C85.7686 273.846 85.2298 264.363 83.222 254.93C81.6305 247.452 79.3976 240.184 76.6561 233.061C76.2821 232.089 75.7418 231.175 75.2151 230.27C72.4802 225.574 69.7272 220.889 66.9709 216.206C66.8452 215.993 66.6288 215.833 66.4481 215.641C66.3657 215.746 66.2575 215.829 66.2713 215.874C66.9479 218.044 67.6283 220.212 68.3224 222.375C69.2319 225.212 70.0908 228.066 71.0947 230.869C71.6158 232.322 71.3467 233.262 70.1468 234.287C64.7435 238.9 59.4264 243.613 54.078 248.29C50.4463 251.466 46.8179 254.644 43.1797 257.812C42.6558 258.269 42.0863 258.674 41.6392 259.024C40.6859 259.141 40.2048 258.57 39.6606 258.151C36.5308 255.746 33.4099 253.33 30.2818 250.924C29.96 250.676 29.6112 250.464 29.1653 250.365C30.653 252.519 32.5543 254.28 34.2754 256.196C36.0915 258.219 37.9449 260.209 39.794 262.202C41.5832 264.13 43.3834 266.049 45.1863 267.965C47.0491 269.944 48.9361 271.901 50.7841 273.894C52.5733 275.823 54.3218 277.789 56.0979 279.73C57.9321 281.736 59.774 283.736 61.6203 285.731C63.3986 287.654 65.1845 289.569 66.9067 291.606C66.5821 292.002 66.3998 292.303 66.1466 292.521C54.3147 302.707 42.4773 312.886 30.6349 323.06C30.3823 323.277 30.0621 323.414 29.6058 323.691C29.2598 323.001 28.8929 322.428 28.6716 321.803C27.0318 317.179 25.432 312.541 23.7988 307.916C22.282 303.621 20.7333 299.336 19.2077 295.043C17.5064 290.255 15.8215 285.462 14.1169 280.675C12.4716 276.054 10.7999 271.444 9.15895 266.822C8.10509 263.855 7.08583 260.875 5.95782 257.632Z" fill="white"/>
<path d="M156.564 361.488C154.533 362.094 144.564 363.444 142.591 363.417C141.591 360.655 141.489 357.658 140.856 354.778C140.2 351.784 139.715 348.752 139.154 345.737C138.61 342.807 138.073 339.876 137.516 336.949C136.96 334.02 136.378 331.097 135.819 328.17C135.243 325.159 134.671 322.147 134.115 319.132C133.577 316.206 133.061 313.275 132.53 310.312C133.727 308.854 134.054 308.691 137.258 308C137.393 308.19 137.597 308.376 137.678 308.605C143.957 326.167 150.226 343.733 156.564 361.488Z" fill="white"/>
<path d="M107.74 365.315C107.143 365.315 106.797 365.354 106.462 365.309C102.553 364.794 98.6442 364.27 94.738 363.731C94.4974 363.698 94.2778 363.511 94.0284 363.385C94.0284 363.109 93.9593 362.833 94.0383 362.609C100.326 344.874 106.626 327.142 112.986 309.238C113.574 309.523 114.034 309.697 114.441 309.955C114.883 310.236 115.287 310.581 115.687 310.921C117.361 312.342 117.996 312.059 117.235 315.033C116.457 318.079 116.099 321.23 115.519 324.327C114.083 331.985 112.615 339.637 111.177 347.296C110.176 352.633 109.207 357.976 108.215 363.315C108.105 363.906 107.938 364.486 107.74 365.315Z" fill="white"/>
<path d="M118.581 299.408C117.065 300.187 115.999 300.757 114.914 301.288C109.801 303.794 109.8 303.798 104.217 304.585C97.0996 305.588 89.9801 306.578 82.8601 307.567C81.0446 307.819 79.2251 308.044 77.2421 308.303C77.1745 307.841 77.0367 307.437 77.0751 307.05C77.1531 306.268 77.319 305.493 77.4623 304.719C78.4481 299.387 79.4344 294.055 80.4339 288.726C80.4954 288.398 80.6728 288.092 80.8567 287.622C81.5696 287.751 82.2516 287.813 82.8958 288.003C88.4447 289.634 93.9831 291.302 99.5325 292.931C103.564 294.114 107.613 295.24 111.646 296.421C113.907 297.083 116.091 297.94 118.581 299.408Z" fill="white"/>
<path d="M131.766 181.739C134.768 181.15 137.447 180.708 140.083 180.085C142.639 179.481 145.158 178.713 147.68 177.977C150.247 177.229 152.618 175.903 155.377 175.191C155.245 175.647 155.222 175.91 155.102 176.115C146.997 189.949 138.884 203.779 130.763 217.603C130.689 217.73 130.49 217.783 130.35 217.87C130.265 217.851 130.16 217.854 130.1 217.804C130.041 217.754 129.992 217.649 129.994 217.57C130.123 214.158 130.224 210.745 130.399 207.335C130.833 198.864 131.301 190.394 131.766 181.739Z" fill="white"/>
<path d="M117.749 182.204C117.862 183.498 117.996 184.619 118.054 185.745C118.308 190.643 118.507 195.544 118.791 200.441C119.019 204.374 119.378 208.299 119.604 212.232C119.704 213.962 119.621 215.702 119.621 217.449C118.908 217.648 118.784 217.011 118.538 216.611C115.921 212.359 113.314 208.1 110.713 203.839C105.647 195.54 100.585 187.238 95.5248 178.935C95.3502 178.648 95.2035 178.344 94.9064 177.792C97.6831 178.035 99.9478 179.22 102.376 179.721C104.866 180.234 107.348 180.796 109.857 181.204C112.356 181.609 114.884 181.848 117.749 182.204Z" fill="white"/>
<path d="M139.206 303.262C139.798 300.633 140.313 298.342 140.858 295.923C145.193 294.501 149.631 293.518 154.017 292.371C158.326 291.245 162.585 289.902 167.042 289.06C168.206 290.873 168.582 292.861 169.212 294.744C169.823 296.569 170.418 298.402 170.94 300.254C171.478 302.167 172.299 304.008 172.693 306.179C171.858 306.179 171.259 306.226 170.669 306.172C160.291 305.22 149.913 304.255 139.206 303.262Z" fill="white"/>
<path d="M135.64 305.054C133.537 305.951 131.485 306.609 129.397 307.291C129.235 306.881 129.063 306.651 129.066 306.422C129.115 301.199 129.183 295.976 129.247 290.786C129.861 290.472 130.319 290.237 130.912 289.934C133.232 291.637 135.406 293.497 137.729 295.388C137.257 298.676 136.402 301.846 135.64 305.054Z" fill="white"/>
<path d="M114.192 293.409C116.128 292.115 117.937 290.915 119.737 289.701C120.296 289.323 120.862 289.28 121.467 289.553C122.973 290.233 124.48 290.913 126 291.599V298.845C125.562 298.845 125.202 298.948 124.943 298.83C121.535 297.269 118.14 295.679 114.747 294.085C114.612 294.021 114.535 293.836 114.192 293.409Z" fill="white"/>
<path d="M119.626 310.177C117.58 308.552 115.739 307.09 113.874 305.609C115.307 304.351 118.061 302.913 122.471 301.088C123.511 301.587 124.675 302.145 125.842 302.704V306.288C125.39 306.613 124.987 306.943 124.547 307.213C122.983 308.17 121.407 309.106 119.626 310.177Z" fill="white"/>
<path d="M119.626 310.177C121.407 309.106 122.983 308.17 124.547 307.213C124.987 306.943 125.39 306.613 125.842 306.288V302.704C124.675 302.145 123.511 301.587 122.471 301.088C118.061 302.913 115.307 304.351 113.874 305.609C115.739 307.09 117.58 308.552 119.626 310.177ZM114.192 293.409C114.535 293.836 114.612 294.021 114.747 294.085C118.14 295.679 121.535 297.269 124.943 298.829C125.202 298.948 125.562 298.845 126.001 298.845V291.6C124.479 290.913 122.973 290.233 121.467 289.553C120.862 289.28 120.296 289.323 119.737 289.7C117.938 290.915 116.129 292.115 114.192 293.409ZM135.64 305.054C136.402 301.846 137.257 298.676 137.729 295.387C135.406 293.496 133.233 291.637 130.912 289.934C130.319 290.237 129.861 290.472 129.247 290.786C129.183 295.976 129.115 301.199 129.066 306.423C129.063 306.651 129.235 306.881 129.397 307.291C131.486 306.61 133.537 305.951 135.64 305.054ZM139.205 303.262C149.913 304.255 160.29 305.219 170.67 306.172C171.259 306.226 171.858 306.179 172.693 306.179C172.299 304.008 171.478 302.167 170.94 300.255C170.419 298.402 169.823 296.569 169.212 294.744C168.582 292.861 168.206 290.873 167.042 289.059C162.585 289.903 158.326 291.245 154.018 292.371C149.63 293.518 145.193 294.501 140.858 295.924C140.313 298.343 139.797 300.633 139.205 303.262ZM117.749 182.204C114.884 181.848 112.356 181.609 109.857 181.203C107.348 180.796 104.866 180.234 102.376 179.721C99.9478 179.22 97.683 178.035 94.9064 177.792C95.2035 178.344 95.3501 178.648 95.5248 178.935C100.585 187.238 105.647 195.54 110.713 203.839C113.314 208.1 115.921 212.359 118.538 216.611C118.784 217.011 118.908 217.648 119.621 217.449C119.621 215.702 119.704 213.962 119.604 212.232C119.378 208.299 119.019 204.374 118.791 200.441C118.507 195.544 118.308 190.643 118.054 185.744C117.996 184.619 117.862 183.498 117.749 182.204ZM131.766 181.739C131.301 190.394 130.833 198.864 130.399 207.335C130.224 210.745 130.123 214.158 129.995 217.57C129.991 217.649 130.04 217.754 130.1 217.804C130.16 217.854 130.264 217.851 130.349 217.87C130.49 217.783 130.689 217.73 130.763 217.603C138.884 203.779 146.997 189.949 155.102 176.115C155.222 175.91 155.245 175.647 155.376 175.191C152.618 175.903 150.247 177.229 147.681 177.977C145.157 178.713 142.639 179.481 140.084 180.085C137.447 180.708 134.768 181.15 131.766 181.739ZM118.581 299.408C116.091 297.94 113.906 297.083 111.645 296.421C107.613 295.24 103.564 294.114 99.5326 292.931C93.9827 291.302 88.4448 289.634 82.896 288.003C82.2518 287.813 81.5697 287.752 80.8564 287.622C80.673 288.092 80.4956 288.398 80.4341 288.726C79.434 294.055 78.4482 299.387 77.4619 304.719C77.3186 305.493 77.1527 306.267 77.0748 307.05C77.0363 307.436 77.1742 307.84 77.2423 308.303C79.2253 308.044 81.0447 307.819 82.8603 307.567C89.9803 306.578 97.0998 305.588 104.218 304.585C109.8 303.799 109.801 303.794 114.913 301.288C115.998 300.757 117.065 300.187 118.581 299.408ZM107.739 365.315C107.938 364.486 108.105 363.906 108.215 363.315C109.207 357.976 110.176 352.633 111.177 347.296C112.614 339.638 114.082 331.985 115.519 324.327C116.1 321.23 116.457 318.078 117.235 315.033C117.996 312.059 117.36 312.342 115.688 310.921C115.287 310.581 114.883 310.236 114.441 309.956C114.034 309.697 113.573 309.522 112.986 309.239C106.626 327.142 100.327 344.874 94.0382 362.609C93.9591 362.833 94.0283 363.109 94.0283 363.385C94.2776 363.511 94.4973 363.698 94.7384 363.731C98.6441 364.27 102.553 364.794 106.462 365.309C106.797 365.354 107.143 365.315 107.739 365.315ZM156.564 361.488C150.226 343.732 143.957 326.167 137.678 308.605C137.596 308.376 137.393 308.19 137.258 308C134.054 308.691 133.727 308.854 132.53 310.312C133.061 313.275 133.576 316.206 134.115 319.132C134.67 322.147 135.243 325.159 135.819 328.17C136.378 331.097 136.96 334.02 137.517 336.948C138.072 339.876 138.61 342.807 139.154 345.737C139.715 348.752 140.199 351.784 140.856 354.778C141.488 357.658 141.59 360.655 142.591 363.417C144.564 363.444 154.533 362.094 156.564 361.488ZM71.5117 318.572C73.7045 306.432 75.7243 294.913 77.8771 283.31C79.1144 283.302 79.6081 282.64 79.6564 281.5C79.7723 278.79 80.009 276.082 80.0617 273.371C80.0925 271.803 79.8217 270.231 79.7536 268.658C79.5746 264.534 79.0029 260.467 78.1451 256.432C77.0155 251.118 75.6546 245.867 73.8105 240.751C73.6133 240.203 73.3113 239.693 73.0971 239.247C72.8302 239.229 72.7094 239.182 72.6633 239.222C68.0843 243.167 63.4965 247.101 58.9411 251.073C55.0452 254.47 51.1862 257.911 47.3145 261.335C47.2552 261.388 47.23 261.487 47.2042 261.568C47.1789 261.648 47.174 261.735 47.1388 261.944C47.5891 262.477 48.074 263.092 48.6007 263.668C51.1423 266.45 53.6987 269.216 56.243 271.996C62.0428 278.331 67.8415 284.669 73.6304 291.015C73.9599 291.376 74.1982 291.821 74.5392 292.313C72.6468 293.955 70.868 295.508 69.0788 297.048C67.3517 298.536 65.5652 299.957 63.8952 301.505C62.1806 303.094 60.213 304.417 58.527 306.349C62.676 310.426 66.8706 314.236 71.5117 318.572ZM195.899 304.215C195.216 303.664 194.824 303.328 194.413 303.02C189.011 298.962 183.601 294.914 178.21 290.843C177.536 290.333 176.681 289.972 176.37 289.047C176.524 288.818 176.637 288.57 176.818 288.391C180.498 284.75 184.188 281.119 187.871 277.482C192.867 272.55 197.862 267.619 202.844 262.674C203.186 262.333 203.411 261.876 203.673 261.498C199.792 257.685 173.377 234.787 171.536 233.635C171.378 233.821 171.131 233.988 171.066 234.208C170.422 236.391 169.75 238.569 169.198 240.777C168.007 245.538 167.068 250.345 166.35 255.21C165.044 264.051 164.9 272.846 166.653 281.633C166.872 282.731 166.941 283.885 167.557 284.965C168.174 284.93 168.764 284.897 169.408 284.86C169.596 285.17 169.839 285.443 169.94 285.76C172.364 293.357 174.774 300.957 177.178 308.56C177.329 309.038 177.412 309.538 177.554 310.144C176.726 310.215 176.086 310.271 175.332 310.336C176.06 313.071 176.728 315.602 177.412 318.129C177.572 318.72 177.778 319.3 177.974 319.88C178.056 320.12 178.167 320.349 178.332 320.748C184.33 315.103 190.002 309.765 195.899 304.215ZM5.95798 257.632C7.08598 260.874 8.10525 263.854 9.15911 266.823C10.8 271.444 12.4712 276.055 14.117 280.675C15.8217 285.461 17.5065 290.255 19.2079 295.043C20.7335 299.336 22.2816 303.62 23.7984 307.916C25.4322 312.541 27.0319 317.179 28.6712 321.802C28.8931 322.427 29.2599 323.001 29.6054 323.69C30.0623 323.414 30.3824 323.276 30.6345 323.06C42.4774 312.886 54.3148 302.707 66.1468 292.521C66.3999 292.302 66.5817 292.002 66.9068 291.606C65.1841 289.569 63.3987 287.653 61.6199 285.731C59.7742 283.736 57.9322 281.736 56.0975 279.73C54.322 277.789 52.5734 275.822 50.7842 273.893C48.9357 271.901 47.0487 269.944 45.1865 267.965C43.383 266.049 41.5828 264.131 39.7936 262.202C37.9445 260.208 36.0916 258.219 34.275 256.196C32.5544 254.28 30.6532 252.519 29.1649 250.365C29.6108 250.464 29.9601 250.676 30.2814 250.924C33.41 253.331 36.531 255.746 39.6607 258.151C40.205 258.569 40.686 259.141 41.6394 259.023C42.0859 258.674 42.6554 258.269 43.1798 257.812C46.8175 254.644 50.4465 251.466 54.0776 248.29C59.426 243.613 64.7436 238.9 70.1464 234.286C71.3469 233.262 71.6154 232.322 71.0948 230.868C70.0904 228.066 69.232 225.211 68.3226 222.375C67.6284 220.212 66.948 218.044 66.2714 215.875C66.2572 215.829 66.3653 215.746 66.4483 215.64C66.6284 215.832 66.8453 215.992 66.9711 216.206C69.7268 220.889 72.4804 225.574 75.2147 230.27C75.7414 231.174 76.2818 232.089 76.6557 233.061C79.3978 240.183 81.6307 247.452 83.2222 254.93C85.2294 264.362 85.7687 273.846 84.7742 283.429C84.7231 283.919 84.8247 284.425 84.856 284.933C86.7858 285.578 88.5563 286.308 90.6146 286.275C101.467 267.799 112.264 249.357 122.966 231.001C121.387 227.939 91.7706 179.059 90.4707 177.957C90.2489 178.065 89.9699 178.131 89.7903 178.301C61.8912 204.693 33.9998 231.092 5.95798 257.632ZM162.121 286.356C161.943 285.399 161.793 284.546 161.627 283.695C160.067 275.728 159.621 267.705 160.499 259.627C161.057 254.486 161.734 249.365 162.923 244.314C164.41 237.995 166.033 231.729 168.442 225.68C170.193 221.285 171.803 216.835 173.495 212.417C173.657 211.991 173.955 211.618 174.191 211.221C173.657 216.492 172.727 221.651 172.358 226.806C172.713 227.181 172.933 227.455 173.193 227.681C185.095 238.059 197 248.433 208.908 258.806C208.971 258.861 209.062 258.891 209.146 258.914C209.229 258.938 209.318 258.938 209.617 258.975C210.148 258.686 210.841 258.332 211.511 257.937C212.267 257.492 213.004 257.014 213.744 256.542C214.409 256.118 215.061 255.672 215.73 255.252C216.473 254.785 217.22 254.324 217.98 253.886C218.598 253.531 219.085 252.854 220.262 252.912C217.075 256.12 214.135 259.113 211.156 262.068C208.23 264.971 205.26 267.83 202.318 270.718C199.314 273.668 196.289 276.598 193.332 279.594C190.386 282.58 187.233 285.367 184.352 288.611C184.897 289.091 185.32 289.516 185.795 289.873C197.433 298.628 209.076 307.377 220.726 316.117C221.116 316.41 221.587 316.595 222.171 316.912C224.357 311.934 226.053 306.966 227.946 302.077C229.846 297.173 231.711 292.257 233.59 287.346C235.501 282.354 237.476 277.386 239.301 272.363C241.09 267.441 243.211 262.636 244.767 257.599C244.322 257.135 243.976 256.744 243.599 256.386C236.089 249.265 228.579 242.143 221.061 235.03C210.927 225.445 200.784 215.872 190.648 206.29C180.513 196.708 170.383 187.119 160.242 177.544C159.89 177.212 159.434 176.99 158.923 176.647C158.378 177.524 157.901 178.252 157.463 179.003C155.873 181.729 154.307 184.469 152.712 187.192C147.66 195.817 142.591 204.431 137.548 213.061C134.851 217.677 132.217 222.33 129.516 226.944C127.081 231.104 124.577 235.224 122.135 239.381C116.498 248.983 110.881 258.598 105.253 268.206C101.84 274.032 98.4145 279.849 95.0184 285.684C94.6895 286.249 94.1013 286.801 94.6236 287.82C99.3377 289.184 104.219 290.589 109.094 292.014C110.028 292.287 110.789 292.029 111.561 291.504C113.812 289.977 116.085 288.483 118.36 286.991C119.011 286.565 119.697 286.19 120.364 285.794C121.819 286.429 123.175 287.043 124.547 287.618C126.891 288.599 126.248 288.623 128.734 287.585C129.616 287.217 130.501 286.856 131.481 286.452C134.072 288.527 136.595 290.547 139.01 292.481C141.816 292.075 159.859 287.318 162.121 286.356ZM99.6167 33.7386C98.917 33.8701 98.654 33.8844 98.4162 33.9693C91.0106 36.6159 84.1212 40.2195 77.9062 45.0593C62.4448 57.0997 53.2055 72.8616 50.2416 92.1532C48.4014 104.132 49.6699 115.938 53.8618 127.354C58.0838 138.851 64.8354 148.647 73.989 156.798C80.3434 162.456 87.5036 166.811 95.3798 169.995C100.031 171.876 104.85 173.264 109.795 174.04C115.783 174.98 121.812 175.295 127.899 174.814C138.583 173.969 148.536 170.879 157.841 165.639C166.759 160.617 174.24 153.948 180.362 145.763C186.378 137.72 190.528 128.796 192.814 119.021C195.161 108.982 195.351 98.8978 193.388 88.7628C191.994 81.5605 189.56 74.7386 186.094 68.2878C181.944 60.5619 176.517 53.8381 169.937 48.0374C162.669 41.6288 154.365 37.0232 145.273 33.7397C143.061 32.9405 141.065 33.0117 138.971 34.1162C136.492 35.4242 133.911 36.5424 131.367 37.7259C131.006 37.8936 130.611 38.2302 130.126 37.7051C130.881 35.3195 132.772 33.5297 134 31.2828C131.398 30.3405 128.824 30.4956 126.337 30.0949C125.032 29.8844 123.946 30.2424 122.994 31.194C120.454 33.7347 117.876 36.2371 115.305 38.7477C115.021 39.0256 114.808 39.4937 114.139 39.2268C114.824 36.0891 116.627 33.3856 117.833 30.4534C117.519 30.3307 117.358 30.209 117.205 30.2166C113.517 30.4129 109.901 31.1381 106.266 31.7208C104.783 31.9581 103.675 32.7184 102.788 33.88C101.246 35.9 99.7029 37.9189 98.1482 39.929C97.9659 40.1647 97.7099 40.3434 97.4881 40.5484C97.4002 40.4941 97.3123 40.4399 97.225 40.3856C97.979 38.2889 98.7336 36.1922 99.6167 33.7386ZM124.743 322.34C124.833 322.67 124.952 322.994 125.009 323.329C125.844 328.256 126.69 333.18 127.493 338.113C128.872 346.587 130.21 355.069 131.586 363.545C132.808 371.069 134.072 378.586 135.29 386.11C136.888 395.976 138.447 405.849 140.046 415.715C141.028 421.77 142.069 427.814 143.055 433.869C143.97 439.489 144.836 445.118 145.741 450.74C147.119 459.306 148.502 467.871 149.912 476.432C150.078 477.439 150.077 478.53 150.841 479.418C151.289 479.418 151.73 479.482 152.148 479.409C171.075 476.084 190.001 472.748 208.923 469.402C209.165 469.36 209.378 469.166 209.678 469.002C209.631 468.664 209.611 468.323 209.534 467.995C208.482 463.563 207.426 459.132 206.366 454.702C204.917 448.649 203.467 442.595 202.011 436.544C201.232 433.306 200.448 430.069 199.649 426.837C198.724 423.096 197.766 419.363 196.849 415.62C195.117 408.557 193.421 401.484 191.678 394.423C190.124 388.127 188.533 381.839 186.946 375.551C185.809 371.049 184.645 366.554 183.507 362.053C182.412 357.72 181.371 353.375 180.241 349.051C178.623 342.86 176.956 336.682 175.292 330.503C173.674 324.496 172.033 318.495 170.408 312.489C170.134 311.477 169.836 310.48 169.208 309.554C168.498 309.469 167.81 309.368 167.118 309.31C164.581 309.097 162.041 308.927 159.507 308.687C153.915 308.159 148.327 307.592 142.736 307.062C142.261 307.017 141.771 307.131 141.16 307.183C141.545 309.906 142.775 312.164 143.537 314.564C144.279 316.901 145.147 319.198 145.974 321.508C146.83 323.9 147.709 326.285 148.568 328.676C149.428 331.069 150.281 333.464 151.126 335.861C151.971 338.258 152.796 340.663 153.643 343.059C154.461 345.372 155.29 347.681 156.124 349.989C156.987 352.379 157.944 354.738 158.708 357.158C159.464 359.555 160.625 361.831 161.126 364.497C154.433 365.824 147.764 366.205 141.201 367.294C140.787 367.362 140.353 367.302 139.767 367.302C138.855 363.46 138.187 359.681 137.545 355.893C136.914 352.177 136.17 348.481 135.478 344.775C134.769 340.985 134.065 337.194 133.356 333.404C132.663 329.701 131.972 325.998 131.268 322.297C130.55 318.526 129.816 314.757 129.07 310.887C128.009 311.107 127.099 311.295 126.26 311.469C125.917 311.012 125.671 310.684 125.366 310.278C124.201 310.973 123.164 311.624 122.095 312.219C121.247 312.692 120.883 313.394 120.749 314.333C120.401 316.763 120.045 319.194 119.591 321.606C117.937 330.386 116.225 339.154 114.567 347.933C113.64 352.842 112.784 357.765 111.879 362.679C111.562 364.403 111.216 366.124 110.835 367.835C110.729 368.314 110.45 368.754 110.222 369.279C109.332 369.182 108.551 369.116 107.777 369.01C105.864 368.748 103.955 368.452 102.041 368.2C98.6463 367.753 95.2452 367.349 91.8541 366.879C90.9304 366.751 89.8979 366.847 89.0879 365.931C90.8233 361.114 92.5845 356.266 94.3155 351.407C96.0503 346.537 97.7473 341.653 99.4766 336.781C101.206 331.908 102.981 327.052 104.688 322.171C106.384 317.322 108.308 312.547 109.818 307.385C106.064 307.499 102.661 308.341 99.2136 308.808C95.7357 309.279 92.2429 309.661 88.787 310.259C85.347 310.855 81.824 310.943 78.5015 311.787C75.0253 322.649 50.5728 464.007 49.9473 472.057C50.6563 472.711 51.58 472.623 52.4328 472.713C56.2743 473.119 60.1223 473.462 63.9638 473.871C72.5183 474.782 81.0678 475.74 89.6239 476.638C95.734 477.279 101.851 477.86 107.967 478.45C108.457 478.498 108.961 478.41 109.632 478.376C114.551 426.274 119.329 374.299 124.743 322.34ZM216.219 473.325C210.743 474.716 205.505 475.274 200.356 476.296C195.227 477.313 190.018 477.935 184.9 479.16C184.786 480.554 185.366 481.531 185.726 482.405C186.572 483.079 187.393 482.92 188.163 482.907C193.176 482.826 198.178 483.034 203.148 483.66C208.286 484.306 213.429 484.971 218.521 485.898C221.521 486.445 224.535 487.176 227.225 488.793C228.678 489.666 229.931 490.724 230.916 492.106C231.592 493.055 232.007 494.106 232.209 495.241C232.488 496.809 232.115 498.191 230.998 499.36C229.43 501 227.439 501.903 225.32 502.531C221.863 503.557 218.332 504.216 214.733 504.523C206.833 505.196 198.947 505.119 191.07 504.194C184.878 503.468 178.722 502.54 172.726 500.771C169.773 499.899 166.883 498.847 164.327 497.08C163.54 496.535 162.784 495.905 162.148 495.194C159.954 492.739 160.255 489.099 162.766 486.995C163.861 486.078 165.097 485.447 166.489 485.109C167.675 484.821 168.853 484.502 170.032 484.196C170.088 483.837 170.191 483.576 170.152 483.338C170.071 482.836 169.915 482.346 169.75 481.694C167.079 482.159 164.505 482.604 161.933 483.058C159.34 483.515 156.749 483.986 154.156 484.443C151.583 484.897 149.018 485.409 146.28 485.592C145.464 483.068 145.418 480.513 144.959 478.039C144.48 475.456 144.063 472.862 143.62 470.272C143.191 467.768 142.739 465.268 142.341 462.759C141.943 460.249 141.627 457.725 141.224 455.216C140.819 452.707 140.34 450.21 139.914 447.705C139.473 445.112 139.042 442.518 138.635 439.92C138.241 437.408 137.912 434.886 137.503 432.376C137.095 429.867 136.603 427.37 136.187 424.862C135.772 422.353 135.415 419.836 135.016 417.324C134.605 414.73 134.189 412.136 133.749 409.546C133.324 407.042 132.838 404.547 132.431 402.04C132.023 399.531 131.699 397.008 131.306 394.497C130.912 391.989 130.485 389.485 130.059 386.982C129.619 384.39 129.139 381.805 128.721 379.21C128.316 376.7 128.002 374.176 127.587 371.669C127.176 369.19 126.69 366.725 126.235 364.242C125.432 364.342 125.572 364.884 125.538 365.248C124.719 373.889 123.921 382.531 123.111 391.173C122.325 399.553 121.522 407.931 120.741 416.311C120.195 422.158 119.682 428.008 119.138 433.855C118.708 438.481 118.245 443.104 117.81 447.729C117.046 455.844 116.3 463.961 115.531 472.075C115.184 475.739 114.805 479.4 114.426 483.061C114.392 483.394 114.258 483.716 114.153 484.109C111.793 484.544 109.58 483.802 107.335 483.633C105.06 483.463 102.786 483.25 100.515 483.024C98.2437 482.798 95.9773 482.532 93.7081 482.288C91.4549 482.045 89.201 481.808 86.7688 481.549C86.6271 482.443 86.5101 483.178 86.4063 483.83C87.1993 484.658 88.1373 484.577 88.9611 484.801C90.574 485.241 92.1584 485.702 93.5126 486.772C96.3244 488.995 96.7588 492.328 94.4973 495.104C93.0749 496.851 91.1292 497.886 89.1236 498.796C84.6149 500.842 79.83 501.936 74.9868 502.821C68.2408 504.052 61.4398 504.778 54.585 504.963C48.7808 505.12 42.9942 504.774 37.2498 503.975C35.0899 503.675 32.9476 503.084 30.8707 502.403C29.389 501.917 27.9397 501.194 26.6343 500.338C23.6485 498.378 23.8127 495.468 24.9819 493.17C25.7441 491.672 26.8134 490.353 28.2731 489.476C29.5455 488.712 30.8536 487.907 32.2551 487.478C34.8494 486.682 37.4953 485.97 40.1703 485.541C45.1953 484.734 50.2438 484.031 55.3061 483.518C59.1426 483.13 63.0154 483.1 66.8722 482.921C67.4862 482.892 68.1018 482.925 68.7164 482.91C70.8559 482.857 71.0223 482.676 71.2475 480.087C66.6926 479.252 62.0379 479.187 57.4567 478.544C52.9595 477.914 48.3975 477.779 43.7652 476.939C44.0552 472.211 45.2194 467.796 45.8713 463.308C46.5265 458.798 47.3222 454.308 48.0592 449.809C48.7957 445.312 49.5167 440.812 50.279 436.319C51.0407 431.828 51.8469 427.345 52.63 422.857C53.4126 418.369 54.1913 413.879 54.9711 409.389C55.7509 404.898 56.5319 400.406 57.31 395.914C58.0877 391.421 58.8576 386.927 59.6391 382.435C60.4205 377.945 61.2042 373.455 62.0011 368.967C62.7979 364.481 63.6008 359.997 64.4235 355.516C65.2428 351.054 66.0908 346.598 66.9974 341.755C66.3544 342.176 65.9677 342.334 65.7102 342.611C61.5831 347.049 56.3792 349.694 50.7084 351.501C47.7237 352.453 44.812 351.95 42.0353 350.553C40.3422 349.701 39.6684 348.271 39.709 346.465C39.7425 344.949 40.2319 343.547 40.9288 342.205C42.8618 338.483 45.6225 335.458 48.8033 332.775C52.3796 329.759 56.3556 327.365 60.493 325.217C60.7934 325.061 61.0829 324.885 61.4321 324.687C61.3437 324.381 61.3481 324.078 61.1987 323.928C57.6807 320.383 54.1462 316.855 50.5239 313.234C48.2921 314.628 46.5781 316.507 44.6318 318.089C42.6581 319.695 40.7585 321.391 38.8298 323.051C36.9676 324.653 35.1125 326.265 33.2486 327.865C31.3254 329.518 29.3956 331.163 27.2972 332.958C26.9682 332.381 26.6651 331.993 26.508 331.553C24.034 324.621 21.5765 317.683 19.12 310.744C16.9854 304.713 14.865 298.677 12.7243 292.648C10.3492 285.959 7.94763 279.279 5.5785 272.587C3.67891 267.222 1.81062 261.846 0 256.679C0.173539 255.566 0.872634 255.126 1.43663 254.593C11.4387 245.127 21.4469 235.669 31.4467 226.202C44.1277 214.197 56.801 202.185 69.4808 190.179C74.5134 185.414 79.5614 180.664 84.5831 175.886C85.2014 175.299 86.001 174.827 86.2525 173.79C84.4469 172.748 82.6099 171.735 80.8185 170.647C69.2628 163.626 60.0532 154.295 53.2319 142.623C47.8983 133.497 44.5797 123.701 43.1287 113.223C42.4511 108.331 42.1276 103.436 42.4379 98.5366C42.7866 93.027 43.5011 87.5371 45.0585 82.2084C45.8202 79.603 46.6209 77.0014 47.5584 74.4552C51.6876 63.2392 58.1843 53.5613 66.7536 45.2484C74.2828 37.9435 82.9833 32.4301 92.6921 28.5173C95.9422 27.2077 99.2625 26.0034 102.726 25.367C104.407 25.0578 105.57 24.2433 106.587 22.9211C109.98 18.5106 113.995 14.7206 118.539 11.5138C124.681 7.17889 131.351 3.95239 138.624 1.92966C142.715 0.791687 146.848 0.11795 151.074 0.00613403C152.559 -0.0333252 154.053 0.125092 155.537 0.252808C156.039 0.296112 156.525 0.522522 156.961 0.649139C157.168 1.47031 156.656 1.7186 156.158 1.87155C153.979 2.54086 151.801 3.21729 149.599 3.80713C136.583 7.29236 124.984 13.4608 114.702 22.1339C114.464 22.3345 114.086 22.5143 114.284 23.159C114.699 23.1798 115.183 23.2423 115.664 23.2226C117.856 23.1321 120.047 22.9534 122.239 22.9391C123.465 22.9309 124.432 22.5845 125.302 21.7299C128.079 18.9995 131.311 16.8924 134.729 15.0664C139.33 12.609 144.157 10.7814 149.374 10.185C150.848 10.0167 152.352 10.0458 153.84 10.0798C154.308 10.0907 154.769 10.4142 155.466 10.6849C154.974 11.2041 154.697 11.6651 154.29 11.8936C153.144 12.5367 151.968 13.1369 150.762 13.6598C146.573 15.4764 142.437 17.3994 138.505 19.7253C136.92 20.6626 135.393 21.697 133.853 22.7078C133.654 22.8377 133.539 23.0938 133.271 23.438C133.656 23.5948 133.931 23.757 134.227 23.8206C136.63 24.3337 139.057 24.7487 141.432 25.361C142.696 25.686 143.826 25.6147 145.02 25.1801C148.138 24.0453 151.372 23.9462 154.64 24.1945C155.806 24.2833 156.876 24.6231 157.854 25.2552C158.454 25.6438 158.527 26.4124 157.92 26.7686C157.173 27.2066 156.343 27.501 155.557 27.8754C154.801 28.2355 153.83 28.1698 153.087 29.1121C164.112 33.9447 173.655 40.6191 181.566 49.5158C189.557 58.5014 195.314 68.7356 198.633 80.3106C201.921 91.7783 202.692 103.394 200.795 115.191C198.884 127.075 194.526 137.971 187.658 147.842C180.857 157.617 172.278 165.531 161.759 171.634C176.829 185.894 191.659 199.942 206.507 213.971C221.357 228.003 236.172 242.071 251 256.062C250.881 256.602 250.85 256.953 250.728 257.271C242.134 279.787 233.534 302.301 224.923 324.81C224.87 324.949 224.667 325.031 224.42 325.233C223.598 325.109 222.965 324.474 222.289 323.967C217.024 320.019 211.774 316.049 206.515 312.093C205.823 311.572 205.102 311.089 204.443 310.623C202.782 311.778 192.383 322.103 189.919 325.011C190.199 325.966 191.162 326.114 191.874 326.544C194.351 328.038 196.921 329.393 199.305 331.021C203.17 333.661 206.559 336.835 209.163 340.771C210.185 342.315 211.048 343.94 211.478 345.752C212.16 348.626 211.065 350.802 208.274 351.807C205.751 352.716 203.123 352.956 200.516 352.149C194.544 350.303 189.216 347.377 184.972 342.685C184.808 342.504 184.568 342.39 184.333 342.223C184.237 343.867 185.521 349.155 187.612 356.666C188.953 361.479 190.08 366.35 191.294 371.198C192.508 376.044 193.709 380.893 194.92 385.74C196.13 390.585 197.353 395.427 198.558 400.273C199.763 405.12 200.955 409.971 202.148 414.821C203.342 419.673 204.537 424.525 205.716 429.38C206.896 434.233 208.069 439.088 209.223 443.946C210.377 448.803 211.436 453.685 212.663 458.523C213.888 463.357 214.969 468.219 216.219 473.325Z" fill="black"/>
<path d="M139.187 103.34C138.527 102.591 137.897 101.877 137.337 101.241C137.331 100.447 137.877 100.252 138.303 99.9905C143.298 96.912 148.285 93.8198 153.304 90.7813C157.499 88.2422 161.732 85.7667 165.953 83.272C166.243 83.1004 166.577 83.0039 166.939 82.8521C167.832 83.5548 168.189 84.5426 168.877 85.4855C165.712 87.6792 162.451 89.3676 159.331 91.2807C156.201 93.1992 153.022 95.0378 149.642 97.0441C150.133 97.3845 150.416 97.6849 150.762 97.8044C156.99 99.9609 157.273 108.342 154.299 111.947C152.075 114.644 149.173 115.507 145.824 114.895C142.625 114.31 140.405 112.464 139.516 109.296C139.167 108.053 139.118 106.717 139.025 105.417C138.976 104.732 139.127 104.033 139.187 103.34Z" fill="black"/>
<path d="M92.5407 97.5974C86.6673 94.3972 81.1437 91.3878 75.574 88.3531C75.7657 87.1187 76.4104 86.3337 77.0903 85.3991C79.8126 86.5442 82.2569 88.0653 84.7842 89.4204C87.4098 90.8281 90.0244 92.2572 92.6385 93.6868C95.1751 95.0736 97.7205 96.4468 100.235 97.8742C102.721 99.2863 105.361 100.458 107.594 102.29C106.222 104.252 106.222 104.252 104.634 104.935C104.56 105.954 104.574 107.013 104.393 108.038C103.81 111.328 101.991 113.703 98.748 114.662C95.3042 115.681 92.0349 115.133 89.5911 112.346C85.8891 108.125 86.9897 101.863 90.6615 98.9201C91.1294 98.5452 91.6423 98.2267 92.5407 97.5974Z" fill="black"/>
<path d="M94.9472 147.774C94.3497 146.892 94.4695 146.027 94.4947 145.268C94.6287 145.096 94.6765 145.02 94.7386 144.959C94.7979 144.899 94.8643 144.827 94.9406 144.806C97.3076 144.155 99.6641 143.465 102.045 142.872C117.954 138.909 133.868 134.967 149.783 131.029C149.932 130.992 150.115 131.089 150.457 131.161C150.728 132.476 149.916 133.6 149.725 134.891C149.076 135.113 148.519 135.357 147.936 135.494C130.771 139.535 113.604 143.568 96.4355 147.591C95.9396 147.708 95.419 147.719 94.9472 147.774Z" fill="black"/>
</svg>
